<svg width="16" height="16" viewBox="0 0 16 16" fill="none" xmlns="http://www.w3.org/2000/svg">
<g clip-path="url(#clip0)">
<path d="M3.84932 7.48518L11.122 0.212646C11.406 -0.0713783 11.8665 -0.0713784 12.1505 0.212694C12.4345 0.496719 12.4345 0.957179 12.1505 1.2412L5.39206 7.99951L12.1505 14.7581C12.4345 15.0422 12.4345 15.5026 12.1505 15.7867C12.0085 15.9287 11.8224 15.9997 11.6363 15.9997C11.4501 15.9997 11.264 15.9287 11.122 15.7866L3.84932 8.51369C3.71288 8.3773 3.63628 8.19233 3.63628 7.99946C3.63628 7.80659 3.71288 7.62157 3.84932 7.48518Z" fill="#103742"/>
</g>
<defs>
<clipPath id="clip0">
<rect width="16" height="16" fill="white" transform="matrix(-1 0 0 1 16 0)"/>
</clipPath>
</defs>
</svg>
