<svg width="22" height="22" viewBox="0 0 22 22" fill="none" xmlns="http://www.w3.org/2000/svg">
<g clip-path="url(#clip0)">
<path d="M21.5417 9.16616H17.6578L12.7528 2.03154C12.6096 1.82297 12.3244 1.77059 12.1154 1.91338C11.9069 2.05706 11.854 2.34216 11.9973 2.55073L16.5453 9.16611H5.45467L10.0028 2.55077C10.146 2.3422 10.0932 2.05706 9.88462 1.91342C9.67695 1.77063 9.39138 1.82301 9.24726 2.03158L4.34221 9.16616H0.458348C0.205004 9.16616 0 9.37116 0 9.62451C0 9.87785 0.205004 10.0829 0.458348 10.0829H1.03984L3.84171 18.8888C4.08521 19.6528 4.78702 20.1662 5.58864 20.1662H16.4114C17.213 20.1662 17.9149 19.6528 18.1583 18.8883L20.9602 10.0829H21.5417C21.795 10.0829 22 9.87785 22 9.62451C22 9.37116 21.795 9.16616 21.5417 9.16616ZM17.2846 18.6103C17.1629 18.9926 16.812 19.2495 16.4114 19.2495H5.58864C5.18805 19.2495 4.83712 18.9926 4.71539 18.6108L2.00187 10.0828H19.9982L17.2846 18.6103Z" fill="#103742"/>
</g>
<defs>
<clipPath id="clip0">
<rect width="22" height="22" fill="white"/>
</clipPath>
</defs>
</svg>
