<svg width="41" height="41" viewBox="0 0 41 41" fill="none" xmlns="http://www.w3.org/2000/svg">
<path d="M20.5 30.1895C24.0823 30.1895 26.9863 27.2854 26.9863 23.7031C26.9863 20.1208 24.0823 17.2168 20.5 17.2168C16.9177 17.2168 14.0137 20.1208 14.0137 23.7031C14.0137 27.2854 16.9177 30.1895 20.5 30.1895Z" fill="#962689"/>
<path d="M29.9729 7.28711L29.5583 5.21445C29.3346 4.09544 28.3438 3.2832 27.2026 3.2832H13.7971C12.656 3.2832 11.6652 4.09544 11.4414 5.21445L11.0269 7.28711H29.9729Z" fill="#103742"/>
<path d="M3.60352 10.1211H3.61157H3.62028H3.62963H3.63961H3.65024H3.66151H3.6734H3.68593H3.69909H3.71287H3.72728H3.74231H3.75796H3.77422H3.7911H3.80859H3.82669H3.84539H3.8647H3.88461H3.90512H3.92623H3.94793H3.97022H3.9931H4.01657H4.04062H4.06526H4.09047H4.11627H4.14263H4.16957H4.19708H4.22515H4.25379H4.28299H4.31275H4.34307H4.37394H4.40537H4.43734H4.46987H4.50293H4.53654H4.57069H4.60538H4.6406H4.67636H4.71264H4.74946H4.78679H4.82466H4.86304H4.90193H4.94135H4.98128H5.02171H5.06266H5.10411H5.14606H5.18852H5.23147H5.27491H5.31886H5.36329H5.40821H5.45361H5.4995H5.54587H5.59272H5.64004H5.68784H5.73611H5.78484H5.83404H5.88371H5.93384H5.98442H6.03546H6.08696H6.13891H6.1913H6.24414H6.29743H6.35115H6.40532H6.45992H6.51496H6.57042H6.62632H6.68264H6.73939H6.79656H6.85415H6.91215H6.97057H7.0294H7.08864H7.14828H7.20833H7.26879H7.32964H7.39089H7.45253H7.51457H7.57699H7.6398H7.703H7.76658H7.83054H7.89487H7.95958H8.02466H8.09012H8.15594H8.22212H8.28867H8.35558H8.42284H8.49046H8.55843H8.62675H8.69542H8.76444H8.8338H8.90349H8.97353H9.0439H9.1146H9.18564H9.257H9.32869H9.4007H9.47303H9.54568H9.61864H9.69192H9.76551H9.8394H9.9136H9.98811H10.0629H10.138H10.2134H10.2891H10.3651H10.4414H10.5179H10.5948H10.6719H10.7493H10.827H10.9049H10.9832H11.0616H11.1404H11.2194H11.2987H11.3782H11.458H11.5381H11.6184H11.699H11.7798H11.8608H11.9421H12.0236H12.1054H12.1874H12.2696H12.352H12.4347H12.5176H12.6008H12.6841H12.7677H12.8514H12.9354H13.0196H13.104H13.1887H13.2735H13.3585H13.4437H13.5291H13.6147H13.7005H13.7865H13.8726H13.959H14.0455H14.1322H14.2191H14.3061H14.3933H14.4807H14.5683H14.656H14.7439H14.8319H14.9201H15.0084H15.0969H15.1855H15.2743H15.3632H15.4523H15.5415H15.6309H15.7203H15.8099H15.8997H15.9895H16.0795H16.1696H16.2598H16.3502H16.4406H16.5312H16.6218H16.7126H16.8035H16.8945H16.9855H17.0767H17.168H17.2593H17.3508H17.4423H17.5339H17.6256H17.7174H17.8093H17.9012H17.9932H18.0853H18.1774H18.2696H18.3618H18.4542H18.5465H18.639H18.7314H18.824H18.9166H19.0092H19.1018H19.1945H19.2873H19.3801H19.4729H19.5657H19.6586H19.7514H19.8444H19.9373H20.0302H20.1232H20.2162H20.3091H20.4021H20.4951H20.5881H20.6811H20.7741H20.8671H20.9601H21.0531H21.146H21.239H21.3319H21.4248H21.5177H21.6105H21.7034H21.7962H21.8889H21.9817H22.0744H22.167H22.2597H22.3522H22.4448H22.5372H22.6297H22.722H22.8144H22.9066H22.9988H23.0909H23.183H23.275H23.3669H23.4588H23.5505H23.6422H23.7338H23.8254H23.9168H24.0081H24.0994H24.1906H24.2816H24.3726H24.4635H24.5542H24.6449H24.7355H24.8259H24.9162H25.0064H25.0965H25.1865H25.2764H25.3661H25.4557H25.5451H25.6345H25.7237H25.8127H25.9016H25.9904H26.079H26.1675H26.2558H26.344H26.432H26.5199H26.6076H26.6951H26.7825H26.8697H26.9567H27.0436H27.1303H27.2168H27.3031H27.3893H27.4752H27.561H27.6466H27.732H27.8172H27.9022H27.987H28.0716H28.156H28.2402H28.3241H28.4079H28.4915H28.5748H28.6579H28.7408H28.8235H28.9059H28.9881H29.0701H29.1518H29.2333H29.3146H29.3956H29.4764H29.5569H29.6372H29.7173H29.797H29.8766H29.9558H30.0348H30.1136H30.192H30.2702H30.3482H30.4258H30.5032H30.5803H30.6571H30.7337H30.8099H30.8859H30.9616H31.0369H31.112H31.1868H31.2613H31.3355H31.4093H31.4829H31.5562H31.6291H31.7017H31.774H31.846H31.9177H31.989H32.06H32.1307H32.2011H32.2711H32.3407H32.4101H32.4791H32.5477H32.616H32.684H32.7516H32.8188H32.8857H32.9522H33.0184H33.0841H33.1496H33.2146H33.2793H33.3436H33.4076H33.4711H33.5343H33.5971H33.6595H33.7215H33.7831H33.8443H33.9051H33.9655H34.0256H34.0852H34.1444H34.2032H34.2616H34.3195H34.3771H34.4342H34.491H34.5473H34.6031H34.6586H34.7136H34.7681H34.8223H34.876H34.9292H34.982H35.0344H35.0863H35.1378H35.1888H35.2393H35.2894H35.339H35.3882H35.4369H35.4851H35.5329H35.5802H35.627H35.6733H35.7192H35.7646H35.8095H35.8539H35.8978H35.9412H35.9841H36.0265H36.0684H36.1098H36.1507H36.1911H36.231H36.2704H36.3093H36.3476H36.3854H36.4227H36.4595H36.4958H36.5315H36.5667H36.6013H36.6354H36.669H36.702H36.7345H36.7664H36.7978H36.8287H36.8589H36.8886H36.9178H36.9464H36.9744H37.0019H37.0288H37.0551H37.0809H37.1061H37.1306H37.1547H37.1781H37.2009H37.2232H37.2448H37.2659H37.2864H37.3062H37.3255H37.3442H37.3622H37.3797H37.3965C38.9692 10.1211 40.25 11.4018 40.25 12.9746V33.7949C40.25 35.3677 38.9692 36.6484 37.3965 36.6484H3.60352C2.03075 36.6484 0.75 35.3677 0.75 33.7949V12.9746C0.75 11.4018 2.03075 10.1211 3.60352 10.1211ZM6.40625 17.6484H10.25C11.3276 17.6484 12.2012 16.7748 12.2012 15.6973C12.2012 14.6197 11.3276 13.7461 10.25 13.7461H6.40625C5.32867 13.7461 4.45508 14.6197 4.45508 15.6973C4.45508 16.7748 5.32867 17.6484 6.40625 17.6484ZM10.8613 23.3848C10.8613 28.7002 15.1845 33.0234 20.5 33.0234C25.8155 33.0234 30.1387 28.7002 30.1387 23.3848C30.1387 18.0693 25.8155 13.7461 20.5 13.7461C15.1845 13.7461 10.8613 18.0693 10.8613 23.3848Z" stroke="#103742" stroke-width="1.5"/>
</svg>
