<svg width="35" height="35" viewBox="0 0 35 35" fill="none" xmlns="http://www.w3.org/2000/svg">
<rect x="0.25" y="0.25" width="34.5" height="34.5" rx="1.75" fill="white" stroke="#E2E2E2" stroke-width="0.5"/>
<path d="M26.1432 17.2426L20.6744 11.7738C20.532 11.6314 20.3013 11.6314 20.1589 11.7738C20.0165 11.9162 20.0165 12.147 20.1589 12.2893L25.0053 17.1358H9.11459C8.91307 17.1358 8.75 17.2988 8.75 17.5003C8.75 17.7019 8.91307 17.8649 9.11459 17.8649H25.0053L20.1589 22.7113C20.0165 22.8537 20.0165 23.0845 20.1589 23.2268C20.2301 23.298 20.3234 23.3337 20.4167 23.3337C20.51 23.3337 20.6032 23.298 20.6745 23.2268L26.1432 17.7581C26.2856 17.6157 26.2856 17.385 26.1432 17.2426Z" fill="#103742"/>
</svg>
