<svg width="35" height="35" viewBox="0 0 35 35" fill="none" xmlns="http://www.w3.org/2000/svg">
<rect x="0.25" y="0.25" width="34.5" height="34.5" rx="1.75" fill="white" stroke="#E2E2E2" stroke-width="0.5"/>
<path d="M8.85681 17.2426L14.3256 11.7738C14.468 11.6314 14.6987 11.6314 14.8411 11.7738C14.9835 11.9162 14.9835 12.147 14.8411 12.2893L9.99469 17.1358H25.8854C26.0869 17.1358 26.25 17.2988 26.25 17.5003C26.25 17.7019 26.0869 17.8649 25.8854 17.8649H9.99469L14.8411 22.7113C14.9835 22.8537 14.9835 23.0845 14.8411 23.2268C14.7699 23.298 14.6766 23.3337 14.5833 23.3337C14.49 23.3337 14.3968 23.298 14.3255 23.2268L8.85678 17.7581C8.71439 17.6157 8.71439 17.385 8.85681 17.2426Z" fill="#103742"/>
</svg>
