<svg width="48" height="48" viewBox="0 0 48 48" fill="none" xmlns="http://www.w3.org/2000/svg">
<circle cx="24" cy="24" r="24" fill="#F3F3F3"/>
<g clip-path="url(#clip0)">
<path d="M32.5066 34.5656H34.2072L33.0047 33.3631C32.3563 32.7148 31.9514 31.8715 31.8426 30.9566C33.5345 29.8463 34.7717 28.3855 35.434 26.7103C36.0958 25.0363 36.179 23.1935 35.6745 21.3811C35.0691 19.2064 33.6494 17.2243 31.6768 15.7998C29.5333 14.2518 26.8648 13.4336 23.9599 13.4336C20.3004 13.4336 17.2159 14.485 15.0399 16.474C13.0796 18.266 12 20.6831 12 23.2801C12 24.5418 12.2569 25.7695 12.7636 26.929C13.2879 28.1289 14.0556 29.1973 15.0455 30.1044C17.2244 32.1013 20.307 33.1568 23.9599 33.1568C25.316 33.1568 26.731 32.9758 27.9944 32.6436C29.1903 33.8704 30.8107 34.5656 32.5066 34.5656ZM23.9599 14.8424C29.7848 14.8424 33.359 18.3162 34.3173 21.7589C35.2228 25.0123 33.8879 28.0865 30.7463 29.9823L30.3953 30.1942L30.4061 30.604C30.4275 31.4152 30.6208 32.1965 30.967 32.9028C30.1241 32.6176 29.3593 32.1006 28.7603 31.393L28.4625 31.0411L28.0209 31.1732C26.7814 31.5439 25.3392 31.748 23.9599 31.748C16.7106 31.748 13.4088 27.3585 13.4088 23.2801C13.4088 21.0835 14.3256 19.0357 15.9905 17.5139C17.9024 15.7662 20.6582 14.8424 23.9599 14.8424Z" fill="#103742"/>
</g>
<defs>
<clipPath id="clip0">
<rect width="24" height="24" fill="white" transform="matrix(-1 0 0 1 36 12)"/>
</clipPath>
</defs>
</svg>
