<svg width="22" height="22" viewBox="0 0 22 22" fill="none" xmlns="http://www.w3.org/2000/svg">
<path d="M12.2154 11L21.7483 1.46709C22.084 1.13146 22.084 0.587307 21.7483 0.251722C21.4127 -0.0838642 20.8685 -0.0839072 20.533 0.251722L11 9.78468L1.46709 0.251722C1.13146 -0.0839072 0.587307 -0.0839072 0.251722 0.251722C-0.0838642 0.58735 -0.0839072 1.13151 0.251722 1.46709L9.78463 11L0.251722 20.533C-0.0839072 20.8686 -0.0839072 21.4127 0.251722 21.7483C0.419514 21.9161 0.639471 22 0.859428 22C1.07939 22 1.2993 21.9161 1.46714 21.7483L11 12.2154L20.5329 21.7483C20.7007 21.9161 20.9207 22 21.1406 22C21.3606 22 21.5805 21.9161 21.7483 21.7483C22.084 21.4127 22.084 20.8685 21.7483 20.533L12.2154 11Z" fill="black"/>
</svg>
