<svg width="12" height="12" viewBox="0 0 12 12" fill="none" xmlns="http://www.w3.org/2000/svg">
<g clip-path="url(#clip0)">
<path d="M3.6582 8.34158C3.44521 8.1286 3.09983 8.1286 2.88681 8.34158C2.6738 8.55456 2.6738 8.89995 2.88681 9.11296L5.61409 11.8402C5.7206 11.9467 5.8602 12 5.9998 12C6.1394 12 6.279 11.9467 6.38547 11.8402L9.11274 9.11296C9.32576 8.89998 9.32576 8.5546 9.11274 8.34158C8.89976 8.1286 8.55438 8.1286 8.34136 8.34158L6.54525 10.1377V1.86227L8.34139 3.65842C8.44787 3.76493 8.58747 3.8182 8.72707 3.8182C8.86667 3.8182 9.00627 3.76493 9.11274 3.65842C9.32576 3.44544 9.32576 3.10005 9.11274 2.88704L6.38547 0.159764C6.17249 -0.0532545 5.8271 -0.0532545 5.61409 0.159764L2.88681 2.88704C2.6738 3.10002 2.6738 3.4454 2.88681 3.65842C3.0998 3.8714 3.44518 3.8714 3.6582 3.65842L5.45434 1.86227V10.1377L3.6582 8.34158Z" fill="#103742"/>
</g>
<defs>
<clipPath id="clip0">
<rect width="12" height="12" fill="white"/>
</clipPath>
</defs>
</svg>
