<svg width="35" height="35" viewBox="0 0 35 35" fill="none" xmlns="http://www.w3.org/2000/svg">
<g clip-path="url(#clip0)">
<path d="M8.75002 0C8.05964 0 7.5 0.559643 7.5 1.25002V3.75H9.99997V1.25002C9.99997 0.559643 9.44033 0 8.75002 0Z" fill="#962689"/>
<path d="M26.25 0C25.5596 0 25 0.559643 25 1.25002V3.75H27.5V1.25002C27.5 0.559643 26.9404 0 26.25 0Z" fill="#962689"/>
<path d="M31.25 3.75H27.5V8.75002C27.5 9.4404 26.9404 10 26.25 10C25.5596 10 25 9.4404 25 8.75002V3.75H9.99997V8.75002C9.99997 9.4404 9.44033 10 8.74995 10C8.05956 10 7.49992 9.4404 7.49992 8.75002V3.75H3.75C1.67893 3.75 0 5.42893 0 7.5V31.25C0 33.3211 1.67893 35 3.75 35H31.25C33.3211 35 35 33.3211 35 31.25V7.5C35 5.42893 33.3211 3.75 31.25 3.75ZM32.5 31.25C32.5 31.9404 31.9403 32.5 31.2499 32.5H3.75C3.05962 32.5 2.49997 31.9404 2.49997 31.25V15H32.5V31.25Z" fill="#103742"/>
<path d="M25.8842 17.8665C25.3961 17.3781 24.6045 17.3778 24.116 17.8658L14.9998 26.9821L10.8835 22.8659C10.3951 22.3778 9.60347 22.3781 9.11538 22.8665C8.6273 23.355 8.62759 24.1466 9.11604 24.6346L14.1161 29.6347C14.6042 30.1227 15.3955 30.1227 15.8835 29.6347L25.8836 19.6346C26.372 19.1466 26.3722 18.355 25.8842 17.8665Z" fill="#962689"/>
</g>
<defs>
<clipPath id="clip0">
<rect width="35" height="35" fill="white"/>
</clipPath>
</defs>
</svg>
