<svg width="60" height="35" viewBox="0 0 60 35" fill="none" xmlns="http://www.w3.org/2000/svg">
<path d="M12.1999 16.8031C12.2189 17.3429 12.4464 17.8544 12.8346 18.23C13.0438 18.4508 13.3005 18.6212 13.5851 18.7283C13.8698 18.8355 14.1751 18.8767 14.478 18.8488C14.6073 18.8364 14.7319 18.7934 14.8413 18.7233C14.9507 18.6532 15.0418 18.558 15.1071 18.4456L16.0577 16.5444C15.3922 16.2126 14.8529 15.6733 14.5211 15.0078L12.6096 15.9688C12.474 16.0596 12.3648 16.1845 12.2929 16.331C12.2209 16.4775 12.1889 16.6403 12.1999 16.8031Z" fill="#962689"/>
<path d="M14.2619 7.63435C13.7219 7.65332 13.2104 7.88121 12.8351 8.26998C12.6152 8.46487 12.4436 8.70814 12.3338 8.98064C12.224 9.25314 12.179 9.54742 12.2023 9.84029C12.2147 9.96193 12.2575 10.0785 12.3266 10.1794C12.3957 10.2803 12.489 10.3622 12.5979 10.4178L14.5432 11.449C14.7083 11.1368 14.9173 10.8498 15.1638 10.5969C15.4284 10.3407 15.7318 10.1281 16.0629 9.96685L15.101 8.04216C15.0095 7.90624 14.8837 7.79692 14.7364 7.7253C14.589 7.65368 14.4253 7.62231 14.2619 7.63435Z" fill="#962689"/>
<path d="M19.6133 16.5217L20.6398 18.4539C20.7143 18.5917 20.8272 18.7049 20.9649 18.7797C21.1026 18.8544 21.259 18.8875 21.4152 18.8748C21.9416 18.8489 22.4368 18.6173 22.7942 18.2298C23.0143 18.0351 23.1861 17.7919 23.2961 17.5193C23.4061 17.2468 23.4512 16.9525 23.428 16.6595C23.4153 16.5378 23.3724 16.4212 23.3031 16.3203C23.2339 16.2195 23.1404 16.1376 23.0314 16.082L21.087 15.0508C20.7626 15.6843 20.247 16.1996 19.6133 16.5236V16.5217Z" fill="#962689"/>
<path d="M23.4308 9.69647C23.4118 9.15645 23.1839 8.64489 22.7952 8.2696C22.5856 8.04917 22.329 7.879 22.0444 7.77185C21.7598 7.66469 21.4546 7.62333 21.1517 7.65085C21.0225 7.66336 20.8982 7.70645 20.789 7.77655C20.6797 7.84665 20.5888 7.94175 20.5236 8.05398L19.5664 9.96835C19.8977 10.1296 20.2015 10.3422 20.4664 10.5984C20.7237 10.8625 20.9402 11.1637 21.1086 11.4918L23.0211 10.5355C23.1574 10.4443 23.2671 10.3186 23.339 10.1712C23.411 10.0238 23.4426 9.86005 23.4308 9.69647Z" fill="#962689"/>
<path d="M17.8126 11.375C17.4418 11.3751 17.0794 11.4851 16.7711 11.6911C16.4628 11.8972 16.2226 12.19 16.0807 12.5325C15.9388 12.8751 15.9017 13.252 15.974 13.6157C16.0463 13.9793 16.2248 14.3134 16.487 14.5756C16.844 14.9167 17.3188 15.1071 17.8126 15.1071C18.3064 15.1071 18.7812 14.9167 19.1382 14.5756C19.4004 14.3134 19.5789 13.9793 19.6512 13.6157C19.7235 13.252 19.6864 12.8751 19.5445 12.5325C19.4026 12.19 19.1623 11.8972 18.8541 11.6911C18.5458 11.4851 18.1834 11.3751 17.8126 11.375Z" fill="#962689"/>
<path d="M47.82 2.11625C47.6606 1.25 46.755 0.125 45.9375 0.125H37.5V8.5625H48.6253L47.82 2.11625ZM45.9375 3.875H39.375V2H45.9375V3.875Z" fill="#962689"/>
<path d="M54.375 19.8125H49.6875C49.4389 19.8125 49.2004 19.7137 49.0246 19.5379C48.8488 19.3621 48.75 19.1236 48.75 18.875V15.125C48.75 14.8764 48.8488 14.6379 49.0246 14.4621C49.2004 14.2863 49.4389 14.1875 49.6875 14.1875H54.2981C54.2754 13.7883 54.1241 13.4071 53.8669 13.1009L49.4278 10.4375H36.5625C36.3139 10.4375 36.0754 10.3387 35.8996 10.1629C35.7238 9.9871 35.625 9.74864 35.625 9.5V0.125H33.75V22.625H54.375V19.8125ZM39.375 14.1875H35.625V12.3125H39.375V14.1875Z" fill="#103742"/>
<path d="M9.60717 10.2218L9.60822 10.2306L9.60947 10.2393C9.6854 10.7686 9.88647 11.2722 10.196 11.7083C10.3485 11.9231 10.5251 12.1184 10.7218 12.2908C9.25068 12.1066 7.7964 11.7969 6.375 11.3644V0.875H31.125V2.9375C31.125 5.50227 29.3536 7.96923 26.0528 9.77725C26.0532 9.74839 26.0533 9.7195 26.0531 9.69059L26.0531 9.69059L26.053 9.68435C26.0324 8.45207 25.5282 7.27743 24.6492 6.41382C24.1518 5.90473 23.5436 5.51719 22.872 5.28138C22.1974 5.04457 21.4772 4.96723 20.7678 5.05541L20.7678 5.05538L20.7605 5.05636C20.2186 5.12913 19.702 5.33055 19.2539 5.64377C18.8058 5.95699 18.4392 6.37292 18.1847 6.85679L18.181 6.86374L18.1775 6.87077L17.8136 7.5993L17.447 6.86318L17.4415 6.85218L17.4357 6.84137C17.1264 6.26812 16.6628 5.7929 16.0973 5.46955C15.5342 5.14754 14.8925 4.98894 14.2444 5.01148C13.0171 5.0337 11.8474 5.5356 10.9857 6.40948C10.4764 6.89152 10.0864 7.48568 9.84682 8.14484C9.60543 8.80885 9.52335 9.52026 9.60717 10.2218Z" stroke="#103742" stroke-width="1.5"/>
<path d="M54.375 16.0625H50.625V17.9375H54.375V16.0625Z" fill="#103742"/>
<path d="M6.375 14.8936C7.49891 15.1862 8.6394 15.4108 9.79025 15.5662C9.65005 15.9616 9.57855 16.3814 9.58222 16.8073L9.5821 16.8074L9.58244 16.8205C9.61448 18.0483 10.1165 19.217 10.9851 20.0855C11.8536 20.954 13.0223 21.4561 14.2501 21.4881L14.2591 21.4884L14.268 21.4884C14.4724 21.4889 14.6765 21.4734 14.8785 21.4422C15.4172 21.3684 15.9307 21.1674 16.3764 20.8557C16.8243 20.5424 17.1908 20.1265 17.4451 19.6427L17.4489 19.6355L17.4525 19.6283L17.8588 18.8131L18.3085 19.66C18.6028 20.2303 19.0525 20.7057 19.6056 21.0312C20.1596 21.3572 20.7947 21.5195 21.4371 21.4993C22.6512 21.4666 23.8039 20.9597 24.6486 20.0876C25.1564 19.606 25.5454 19.0128 25.7848 18.355C26.0263 17.6911 26.1087 16.9799 26.0254 16.2784L26.0243 16.2694L26.023 16.2603C25.9471 15.731 25.746 15.2274 25.4365 14.7914C25.2371 14.5105 24.9965 14.2629 24.7236 14.0563C27.3016 13.0997 29.4817 11.799 31.125 10.2304V21.8747H6.375V14.8936Z" stroke="#103742" stroke-width="1.5"/>
<path d="M44.0625 24.5C43.1354 24.5 42.2291 24.7749 41.4583 25.29C40.6874 25.8051 40.0866 26.5371 39.7318 27.3937C39.377 28.2502 39.2842 29.1927 39.4651 30.102C39.6459 31.0113 40.0924 31.8465 40.7479 32.5021C41.4035 33.1576 42.2387 33.6041 43.148 33.7849C44.0573 33.9658 44.9998 33.873 45.8563 33.5182C46.7129 33.1634 47.4449 32.5626 47.96 31.7917C48.4751 31.0209 48.75 30.1146 48.75 29.1875C48.7485 27.9448 48.2542 26.7533 47.3754 25.8746C46.4967 24.9958 45.3052 24.5015 44.0625 24.5ZM44.0625 32C43.5062 32 42.9625 31.8351 42.5 31.526C42.0374 31.217 41.677 30.7777 41.4641 30.2638C41.2512 29.7499 41.1955 29.1844 41.304 28.6388C41.4126 28.0932 41.6804 27.5921 42.0738 27.1988C42.4671 26.8054 42.9682 26.5376 43.5138 26.429C44.0594 26.3205 44.6249 26.3762 45.1388 26.5891C45.6527 26.802 46.092 27.1624 46.401 27.625C46.71 28.0875 46.875 28.6312 46.875 29.1875C46.875 29.9334 46.5787 30.6488 46.0512 31.1762C45.5238 31.7037 44.8084 32 44.0625 32Z" fill="#103742"/>
<path d="M44.0625 30.125C44.5803 30.125 45 29.7053 45 29.1875C45 28.6697 44.5803 28.25 44.0625 28.25C43.5447 28.25 43.125 28.6697 43.125 29.1875C43.125 29.7053 43.5447 30.125 44.0625 30.125Z" fill="#962689"/>
<path d="M20.521 24.5C21.0734 25.0415 21.526 25.6762 21.8579 26.375H38.1422C38.4741 25.6762 38.9267 25.0415 39.4791 24.5H20.521Z" fill="#103742"/>
<path d="M3.75 24.5V26.375H10.0172C10.3491 25.6762 10.8016 25.0415 11.3541 24.5H3.75Z" fill="#103742"/>
<path d="M49.9829 26.375H56.2501V24.5H48.646C49.1984 25.0415 49.651 25.6762 49.9829 26.375Z" fill="#103742"/>
<path d="M15.9375 24.5C15.0104 24.5 14.1041 24.7749 13.3333 25.29C12.5624 25.8051 11.9616 26.5371 11.6068 27.3937C11.252 28.2502 11.1592 29.1927 11.3401 30.102C11.5209 31.0113 11.9674 31.8465 12.6229 32.5021C13.2785 33.1576 14.1137 33.6041 15.023 33.7849C15.9323 33.9658 16.8748 33.873 17.7313 33.5182C18.5879 33.1634 19.3199 32.5626 19.835 31.7917C20.3501 31.0209 20.625 30.1146 20.625 29.1875C20.6235 27.9448 20.1292 26.7533 19.2504 25.8746C18.3717 24.9958 17.1802 24.5015 15.9375 24.5ZM15.9375 32C15.3812 32 14.8375 31.8351 14.375 31.526C13.9124 31.217 13.552 30.7777 13.3391 30.2638C13.1262 29.7499 13.0705 29.1844 13.179 28.6388C13.2876 28.0932 13.5554 27.5921 13.9488 27.1988C14.3421 26.8054 14.8432 26.5376 15.3888 26.429C15.9344 26.3205 16.4999 26.3762 17.0138 26.5891C17.5277 26.802 17.967 27.1624 18.276 27.625C18.585 28.0875 18.75 28.6312 18.75 29.1875C18.75 29.9334 18.4537 30.6488 17.9262 31.1762C17.3988 31.7037 16.6834 32 15.9375 32Z" fill="#103742"/>
<path d="M15.9375 30.125C16.4553 30.125 16.875 29.7053 16.875 29.1875C16.875 28.6697 16.4553 28.25 15.9375 28.25C15.4197 28.25 15 28.6697 15 29.1875C15 29.7053 15.4197 30.125 15.9375 30.125Z" fill="#962689"/>
</svg>
