<svg width="28" height="28" viewBox="0 0 28 28" fill="none" xmlns="http://www.w3.org/2000/svg">
<rect width="28" height="28" rx="3" fill="#103742"/>
<path d="M15.6458 9.35156L7.94276 17.0551C7.904 17.094 7.87602 17.1431 7.8627 17.1958L7.00889 20.6228C6.98335 20.726 7.01367 20.8357 7.08895 20.9109C7.14592 20.9679 7.22354 20.9994 7.30293 20.9994C7.32725 20.9994 7.35212 20.9965 7.37633 20.9903L10.8033 20.1364C10.8567 20.1231 10.9053 20.0952 10.944 20.0565L18.6477 12.3535L15.6458 9.35156Z" fill="white"/>
<path d="M20.5561 8.30075L19.6986 7.44328C19.1255 6.87019 18.1267 6.87075 17.5543 7.44328L16.5039 8.49363L19.5057 11.4954L20.5561 10.4451C20.8423 10.1589 21 9.77805 21 9.37297C21 8.96789 20.8423 8.58702 20.5561 8.30075Z" fill="white"/>
</svg>
