<svg width="32" height="32" viewBox="0 0 32 32" fill="none" xmlns="http://www.w3.org/2000/svg">
<g clip-path="url(#clip0)">
<path d="M16.2051 11.876C14.4024 11.876 12.9409 13.3374 12.9409 15.1402C12.9409 16.9429 14.4023 18.4044 16.2051 18.4044C18.0079 18.4044 19.4693 16.943 19.4693 15.1402C19.4693 13.3374 18.0079 11.876 16.2051 11.876ZM16.2051 16.8499C15.2608 16.8499 14.4953 16.0844 14.4953 15.1401C14.4953 14.1958 15.2608 13.4303 16.2051 13.4303C17.1495 13.4303 17.915 14.1958 17.915 15.1401C17.915 16.0844 17.1495 16.8499 16.2051 16.8499Z" fill="#CDCDCD"/>
<path d="M29.223 4.41528L8.00595 2.00608C7.1825 1.88901 6.34819 2.1294 5.71329 2.66671C5.07847 3.15895 4.67155 3.88861 4.58638 4.68736L4.19783 7.87382H2.99311C1.28329 7.87382 0.000928078 9.38929 0.000928078 11.0991V26.9925C-0.0421373 28.6229 1.24469 29.9797 2.87522 30.0227C2.91449 30.0238 2.95384 30.024 2.99311 30.0235H24.3267C26.0366 30.0235 27.5909 28.7023 27.5909 26.9925V26.3707C28.121 26.2683 28.6239 26.0565 29.0676 25.749C29.6972 25.2189 30.1003 24.4682 30.1945 23.6506L31.982 7.87382C32.1643 6.16006 30.9344 4.61841 29.223 4.41528ZM26.0366 26.9925C26.0366 27.8474 25.1816 28.4691 24.3267 28.4691H2.99311C2.22084 28.4918 1.57642 27.8841 1.55373 27.1118C1.55254 27.072 1.55306 27.0322 1.5553 26.9925V24.1169L7.57849 19.687C8.30205 19.1314 9.32119 19.1808 9.98777 19.8035L14.2234 23.534C14.8666 24.0741 15.6763 24.376 16.5161 24.3889C17.1728 24.3969 17.8186 24.2221 18.3814 23.8837L26.0366 19.4538V26.9925H26.0366ZM26.0366 17.6274L17.5653 22.5625C16.8378 22.9935 15.9171 22.9155 15.2725 22.3682L10.9981 18.5989C9.77296 17.5462 7.98237 17.4816 6.68468 18.4434L1.5553 22.1739V11.0991C1.5553 10.2442 2.1382 9.42819 2.99311 9.42819H24.3267C25.2401 9.46605 25.9777 10.1869 26.0366 11.0991V17.6274ZM30.4291 7.664C30.4286 7.66913 30.4282 7.67434 30.4276 7.67947L28.6012 23.4563C28.6043 23.8653 28.4178 24.2528 28.096 24.5054C27.9406 24.6609 27.5909 24.7386 27.5909 24.8164V11.0991C27.5295 9.32882 26.0975 7.91391 24.3267 7.87382H5.75212L6.10185 4.84281C6.17772 4.45032 6.38293 4.09464 6.68476 3.83245C7.02556 3.59682 7.43762 3.48696 7.85057 3.52155L29.0288 5.96965C29.8833 6.0508 30.5103 6.80939 30.4291 7.664Z" fill="#CDCDCD"/>
</g>
<defs>
<clipPath id="clip0">
<rect width="32" height="32" fill="white"/>
</clipPath>
</defs>
</svg>
