<svg width="18" height="18" viewBox="0 0 18 18" fill="none" xmlns="http://www.w3.org/2000/svg">
<g clip-path="url(#clip0)">
<path d="M17.9333 8.78709C17.7916 8.58082 14.385 3.75 8.99996 3.75C4.37912 3.75 0.261558 8.55309 0.0883051 8.75784C-0.029435 8.89734 -0.029435 9.10209 0.0883051 9.24233C0.261558 9.44709 4.37912 14.2502 8.99996 14.2502C13.6208 14.2502 17.7383 9.44709 17.9116 9.24233C18.0203 9.11334 18.0301 8.92659 17.9333 8.78709ZM8.99996 13.5002C5.29566 13.5002 1.77358 9.96762 0.878841 9.00011C1.7721 8.03185 5.29042 4.50004 8.99996 4.50004C13.3343 4.50004 16.3936 8.02735 17.1406 8.97985C16.278 9.91661 12.7358 13.5002 8.99996 13.5002Z" fill="#103742"/>
<path d="M9.00003 6C7.34552 6 6 7.34552 6 9.00003C6 10.6545 7.34552 12.0001 9.00003 12.0001C10.6545 12.0001 12.0001 10.6545 12.0001 9.00003C12.0001 7.34552 10.6545 6 9.00003 6ZM9.00003 11.2501C7.75953 11.2501 6.75 10.2406 6.75 9.00007C6.75 7.75956 7.75953 6.75003 9.00003 6.75003C10.2405 6.75003 11.2501 7.75956 11.2501 9.00007C11.2501 10.2406 10.2405 11.2501 9.00003 11.2501Z" fill="#103742"/>
</g>
<defs>
<clipPath id="clip0">
<rect width="18" height="18" fill="white"/>
</clipPath>
</defs>
</svg>
