<svg width="60" height="60" viewBox="0 0 60 60" fill="none" xmlns="http://www.w3.org/2000/svg">
<path d="M42.1875 43.125L40.3125 45L39.0047 45.4477L30.1805 48.4664L21.3105 51.5004L12.532 54.5039L4.6875 57.1875H2.8125V55.3125L4.4168 51.4617L6.69727 45.9879L8.97773 40.5152L11.4258 34.6406L13.5387 29.5699L15.8191 24.0973L16.875 21.5625L18.75 19.6875L27.5625 28.5L37.6863 38.6238L42.1875 43.125Z" fill="#D69651"/>
<path d="M21.3107 51.4998L12.5322 54.5033L4.41699 51.4611L6.69746 45.9873L21.3107 51.4998Z" fill="#C78640"/>
<path d="M39.005 45.4467L30.1808 48.4654L8.97803 40.5143L11.4261 34.6396L39.005 45.4467Z" fill="#C78640"/>
<path d="M37.6867 38.6232L13.5391 29.5693L15.8195 24.0967L27.5629 28.4994L37.6867 38.6232Z" fill="#C78640"/>
<path d="M23.4375 18.75L27.3577 14.8298C27.849 14.3385 28.125 13.6722 28.125 12.9774C28.125 12.4647 27.9746 11.9633 27.6923 11.5353C27.4101 11.1073 27.0085 10.7715 26.5373 10.5695L24.0962 9.52339C22.4362 8.81195 20.9922 7.67704 19.9085 6.2322L18.75 4.6875L21.5625 2.8125C22.7777 4.63534 24.5659 6.00112 26.6442 6.69391L27.7608 7.06611C28.9589 7.46545 30.0009 8.23162 30.7393 9.25609C31.4777 10.2806 31.875 11.5114 31.875 12.7742C31.875 14.2105 31.3612 15.5994 30.4265 16.6899L26.25 21.5625L23.4375 18.75Z" fill="#FFC431"/>
<path d="M36.5625 14.0625L35.625 8.4375L41.25 10.3125L36.5625 14.0625Z" fill="#D1E4FF"/>
<path d="M30.7246 4.66504L31.1802 2.84629L34.9297 3.78559L34.4741 5.60434L30.7246 4.66504Z" fill="#FB6A83"/>
<path d="M39.7915 3.89551L42.6038 2.01952L43.6444 3.57952L40.8321 5.45551L39.7915 3.89551Z" fill="#FFC431"/>
<path d="M17.8428 10.5303L19.6615 10.0746L20.6008 13.8241L18.7821 14.2797L17.8428 10.5303Z" fill="#6173E8"/>
<path d="M41.25 36.5625L45.1702 32.6423C45.6615 32.151 46.3278 31.875 47.0226 31.875C47.5353 31.875 48.0367 32.0254 48.4647 32.3077C48.8927 32.5899 49.2285 32.9915 49.4305 33.4627L50.4766 35.9038C51.188 37.5638 52.323 39.0078 53.7678 40.0915L55.3125 41.25L57.1875 38.4375C55.3647 37.2223 53.9989 35.4341 53.3061 33.3558L52.9339 32.2392C52.5345 31.0411 51.7684 29.9991 50.7439 29.2607C49.7194 28.5223 48.4886 28.125 47.2258 28.125C45.7895 28.125 44.4006 28.6388 43.3101 29.5735L38.4375 33.75L41.25 36.5625Z" fill="#6173E8"/>
<path d="M48.75 24.375L54.375 25.3125L52.5 19.6875L48.75 24.375Z" fill="#FFC431"/>
<path d="M54.4082 28.3223L56.227 27.8666L57.1663 31.6161L55.3475 32.0717L54.4082 28.3223Z" fill="#FB6A83"/>
<path d="M54.5483 19.1748L56.4243 16.3625L57.9843 17.4031L56.1083 20.2154L54.5483 19.1748Z" fill="#D1E4FF"/>
<path d="M45.7261 41.2461L46.1817 39.4273L49.9312 40.3666L49.4755 42.1854L45.7261 41.2461Z" fill="#6173E8"/>
<path d="M30 26.25L33.7338 21.8911C34.9461 20.4755 36.651 19.5735 38.5034 19.3677L38.6099 19.3558C40.1988 19.1817 41.6934 18.5147 42.8841 17.4483C44.0747 16.3819 44.9018 14.9696 45.2493 13.4094V13.4093C45.457 12.4748 45.9159 11.6147 46.5766 10.9218C47.2372 10.229 48.0745 9.72968 48.9981 9.47779L56.25 7.5L57.1875 11.25L52.1179 12.3766C51.1166 12.5991 50.2019 13.1086 49.4856 13.8427C48.7693 14.5769 48.2825 15.5039 48.0847 16.5103L48.0581 16.6458C47.7254 18.338 46.857 19.8782 45.5814 21.0387C44.3057 22.1993 42.6904 22.9185 40.9744 23.0901L40.8636 23.1011C38.7106 23.3112 36.7271 24.3611 35.3427 26.0233C34.114 27.5007 32.8125 29.0625 32.8125 29.0625L30 26.25Z" fill="#FB6A83"/>
</svg>
