<svg width="18" height="18" viewBox="0 0 18 18" fill="none" xmlns="http://www.w3.org/2000/svg">
<g clip-path="url(#clip0)">
<path d="M17.4346 7.63124L10.2728 0.469391C9.96144 0.157928 9.64325 0 9.32726 0C8.88876 0 8.37666 0.328629 8.37666 1.2545V5.67032C6.19066 5.81918 4.15681 6.74808 2.6028 8.3183C0.924362 10.0142 0 12.2623 0 14.6483C0 15.6761 0.172485 16.6855 0.512924 17.6484C0.587357 17.8591 0.786621 18 1.01006 18C1.23363 18 1.43275 17.8591 1.50732 17.6484C2.55432 14.6862 5.27385 12.6215 8.37666 12.3764V16.7454C8.37666 17.6712 8.88863 17.9999 9.32726 17.9999C9.64325 17.9999 9.9613 17.8421 10.2726 17.5307L17.4348 10.3686C17.7992 10.004 18 9.51801 18 8.99986C17.9999 8.48186 17.7991 7.99571 17.4346 7.63124ZM16.6889 9.62292L9.52693 16.785C9.49315 16.8187 9.46307 16.8456 9.43698 16.8669C9.43341 16.8334 9.43121 16.7932 9.43121 16.7455V11.825C9.43121 11.6842 9.37491 11.5491 9.27466 11.4501C9.17592 11.3524 9.04271 11.2977 8.90387 11.2977C8.90195 11.2977 8.90002 11.2978 8.8981 11.2978C7.01999 11.3187 5.22647 11.9123 3.71146 13.0144C2.65018 13.7865 1.78212 14.764 1.15096 15.8884C1.08696 15.4801 1.05469 15.0661 1.05469 14.6483C1.05469 10.3162 4.57841 6.75247 8.90977 6.70427C9.19872 6.70111 9.43135 6.466 9.43135 6.17693V1.2545C9.43135 1.20685 9.43355 1.16675 9.43698 1.1331C9.46307 1.15439 9.49315 1.1813 9.52693 1.21509L16.6889 8.37708C16.8543 8.54242 16.9453 8.76352 16.9453 9C16.9452 9.23634 16.8541 9.45758 16.6889 9.62292Z" fill="white"/>
</g>
<defs>
<clipPath id="clip0">
<rect width="18" height="18" fill="white"/>
</clipPath>
</defs>
</svg>
