<svg width="24" height="24" viewBox="0 0 24 24" fill="none" xmlns="http://www.w3.org/2000/svg">
<path d="M23.25 7.49996H0.750044C0.336027 7.49996 6.29425e-05 7.16394 6.29425e-05 6.74998C6.29425e-05 6.33596 0.336088 6 0.750044 6H23.25C23.664 6 24 6.33603 24 6.74998C24 7.16394 23.664 7.49996 23.25 7.49996Z" fill="black"/>
<path d="M0.750044 11.25H23.25C23.664 11.25 24 11.586 24 12C24 12.4139 23.664 12.7499 23.25 12.7499H0.750044C0.336027 12.7499 6.29425e-05 12.4139 6.29425e-05 12C6.29425e-05 11.586 0.336027 11.25 0.750044 11.25Z" fill="black"/>
<path d="M0.750034 16.5H15.75C16.164 16.5 16.5 16.836 16.5 17.25C16.5 17.664 16.164 18 15.75 18H0.750034C0.336018 18 5.34058e-05 17.6639 5.34058e-05 17.25C-9.53674e-06 16.836 0.336018 16.5 0.750034 16.5Z" fill="black"/>
</svg>
