<svg width="22" height="22" viewBox="0 0 22 22" fill="none" xmlns="http://www.w3.org/2000/svg">
<path d="M15.95 0.916992C13.9792 0.920036 12.1329 1.88128 11 3.49386C9.86706 1.88128 8.02083 0.920036 6.05 0.916992C2.82699 0.916992 0 3.91567 0 7.33366C0 10.6648 1.88096 14.0957 5.43984 17.2557C7.08877 18.717 8.89758 19.9872 10.8317 21.0427C10.9373 21.0971 11.0627 21.0971 11.1683 21.0427C13.1017 19.9872 14.91 18.7168 16.5584 17.2557C20.119 14.0957 22 10.6648 22 7.33366C22 3.91567 19.173 0.916992 15.95 0.916992V0.916992ZM11 20.3C9.65329 19.5568 0.733333 14.3648 0.733333 7.33366C0.733333 4.30615 3.21746 1.65033 6.05 1.65033C7.96891 1.65373 9.73779 2.68892 10.6806 4.3604C10.7511 4.46818 10.8713 4.53299 11 4.53299C11.1287 4.53299 11.2489 4.46818 11.3194 4.3604C12.2622 2.68892 14.0311 1.65373 15.95 1.65033C18.7825 1.65033 21.2667 4.30615 21.2667 7.33366C21.2667 14.3648 12.3467 19.5568 11 20.3Z" fill="#103742"/>
</svg>
