<svg width="20" height="20" viewBox="0 0 20 20" fill="none" xmlns="http://www.w3.org/2000/svg">
<g clip-path="url(#clip0)">
<path d="M17.0889 18.8054H18.506L17.5039 17.8033C16.9636 17.263 16.6262 16.5602 16.5355 15.7978C17.9454 14.8726 18.9764 13.6552 19.5283 12.2592C20.0798 10.8642 20.1491 9.32857 19.7287 7.81825C19.2243 6.00602 18.0412 4.35424 16.3974 3.16713C14.6111 1.87717 12.3874 1.19531 9.96657 1.19531C6.91702 1.19531 4.34658 2.07147 2.53325 3.72901C0.899668 5.2223 -9.53674e-06 7.23654 -9.53674e-06 9.40073C-9.53674e-06 10.4522 0.214088 11.4752 0.636299 12.4415C1.07323 13.4414 1.71302 14.3317 2.53791 15.0877C4.35366 16.7518 6.9225 17.6314 9.96661 17.6314C11.0967 17.6314 12.2759 17.4805 13.3287 17.2037C14.3252 18.2259 15.6756 18.8054 17.0889 18.8054ZM9.96657 2.36932C14.8206 2.36932 17.7991 5.26413 18.5977 8.13308C19.3524 10.8442 18.2399 13.406 15.6219 14.9859L15.3294 15.1625L15.3384 15.504C15.3562 16.18 15.5174 16.8311 15.8058 17.4196C15.1034 17.182 14.4661 16.7511 13.9669 16.1615L13.7188 15.8682L13.3507 15.9783C12.3179 16.2872 11.116 16.4574 9.96657 16.4574C3.92546 16.4574 1.17399 12.7994 1.17399 9.40073C1.17399 7.57023 1.93803 5.8637 3.32539 4.59554C4.91863 3.13915 7.21514 2.36932 9.96657 2.36932Z" fill="#103742"/>
</g>
<defs>
<clipPath id="clip0">
<rect width="20" height="20" fill="white" transform="matrix(-1 0 0 1 20 0)"/>
</clipPath>
</defs>
</svg>
