<svg width="20" height="20" viewBox="0 0 20 20" fill="none" xmlns="http://www.w3.org/2000/svg">
<g clip-path="url(#clip0)">
<path d="M19.8289 0.172624C19.6631 0.00684291 19.4145 -0.0441335 19.197 0.0428975L0.368828 7.57405C0.153399 7.66022 0.00914133 7.86538 0.000860091 8.09729C-0.00738208 8.32917 0.121993 8.54405 0.330742 8.6453L7.75526 12.2461L11.3561 19.6706C11.4543 19.8731 11.6594 20.0009 11.8832 20.0009C11.8901 20.0009 11.8971 20.0008 11.9041 20.0005C12.136 19.9923 12.3412 19.848 12.4273 19.6326L19.9586 0.804576C20.0456 0.58692 19.9946 0.338366 19.8289 0.172624ZM2.03539 8.1696L16.9817 2.19114L8.07432 11.0984L2.03539 8.1696ZM11.8318 17.966L8.90295 11.927L17.8104 3.01973L11.8318 17.966Z" fill="#103742"/>
</g>
<defs>
<clipPath id="clip0">
<rect width="20" height="20" fill="white"/>
</clipPath>
</defs>
</svg>
