<svg width="35" height="35" viewBox="0 0 35 35" fill="none" xmlns="http://www.w3.org/2000/svg">
<g clip-path="url(#clip0)">
<path d="M34.6994 12.2846L30.7897 9.63496V6.76189C30.7897 6.38358 30.4831 6.07692 30.1048 6.07692H25.539L17.8842 0.889404C17.6522 0.732178 17.3478 0.732178 17.1158 0.889404L9.46101 6.07699H4.89522C4.51691 6.07699 4.21025 6.38365 4.21025 6.76195V9.63503L0.300645 12.2846C0.112656 12.4121 0 12.6245 0 12.8516V33.5427C0 33.921 0.30666 34.2277 0.684961 34.2277H34.315C34.6933 34.2277 35 33.921 35 33.5427V12.8516C35 12.6245 34.8873 12.4121 34.6994 12.2846ZM1.36985 14.4762L11.7186 23.1972L1.36985 31.9181V14.4762ZM13.0316 23.8822H21.9684L32.6194 32.8578H2.38055L13.0316 23.8822ZM23.2814 23.1972L33.6301 14.4762V31.9181L23.2814 23.1972ZM33.2815 12.9786L30.7897 15.0785V11.2898L33.2815 12.9786ZM17.5 2.2838L23.0971 6.07692H11.9029L17.5 2.2838ZM29.4198 7.44685V16.2329L21.9684 22.5122H13.0316L5.58018 16.2329V7.44685H29.4198ZM4.21032 15.0785L1.71849 12.9786L4.21032 11.2898V15.0785Z" fill="#103742"/>
<path d="M17.0148 20.0441C17.2788 20.3081 17.7211 20.3079 17.9849 20.0441C17.9849 20.0441 22.305 15.7137 22.3885 15.6104C22.3893 15.6094 22.3902 15.6083 22.3911 15.6073C23.1924 14.6045 23.3661 13.252 22.8443 12.0778C22.6739 11.694 22.4357 11.347 22.1355 11.0461C21.488 10.3986 20.6273 10.042 19.7118 10.042C18.8929 10.042 18.1176 10.3274 17.4997 10.8511C16.1544 9.71325 14.1319 9.77813 12.8635 11.0467C12.564 11.347 12.3258 11.694 12.1553 12.0778C11.9599 12.5181 11.8608 12.9864 11.8608 13.4694C11.8608 14.244 12.1263 15.0031 12.6112 15.6104C12.6947 15.7137 17.0148 20.0441 17.0148 20.0441ZM13.4073 12.6336C13.5094 12.4036 13.6528 12.1952 13.8328 12.0147C14.2339 11.6135 14.7609 11.4129 15.2878 11.4129C15.8147 11.4129 16.3417 11.6135 16.7429 12.0147C16.9604 12.2323 17.1625 12.4879 17.4998 12.4879C17.837 12.4879 18.0392 12.2322 18.2567 12.0147C18.6454 11.6259 19.1622 11.4119 19.7118 11.4119C20.2614 11.4119 20.7781 11.626 21.1662 12.0141C21.9598 12.8099 21.9618 14.1292 21.1668 14.9242L17.4998 18.5918L13.8328 14.9241C13.2376 14.3293 13.066 13.4027 13.4073 12.6336Z" fill="#962689"/>
<path d="M21.876 31.4863C22.2535 31.4863 22.5596 31.1803 22.5596 30.8027C22.5596 30.4252 22.2535 30.1191 21.876 30.1191C21.4984 30.1191 21.1924 30.4252 21.1924 30.8027C21.1924 31.1803 21.4984 31.4863 21.876 31.4863Z" fill="#962689"/>
<path d="M18.8242 30.1182H12.4389C12.0606 30.1182 11.7539 30.4248 11.7539 30.8031C11.7539 31.1814 12.0606 31.4881 12.4389 31.4881H18.8242C19.2025 31.4881 19.5092 31.1814 19.5092 30.8031C19.5092 30.4248 19.2025 30.1182 18.8242 30.1182Z" fill="#962689"/>
</g>
<defs>
<clipPath id="clip0">
<rect width="35" height="35" fill="white"/>
</clipPath>
</defs>
</svg>
