<svg width="71" height="71" viewBox="0 0 71 71" fill="none" xmlns="http://www.w3.org/2000/svg">
<path fill-rule="evenodd" clip-rule="evenodd" d="M66.6979 31.9617C66.9748 38.1426 65.6066 44.0796 62.9851 49.6919C60.1994 55.6556 57.3583 62.4649 51.265 65.001C45.2348 67.5108 38.6786 63.9415 32.3199 62.455C26.317 61.0517 20.0859 60.4124 15.2656 56.5856C9.94114 52.3585 5.23985 46.8017 4.16476 40.1027C3.07544 33.315 5.64941 26.3991 9.50534 20.6926C13.1259 15.3345 19.0808 12.534 24.8218 9.53178C30.8272 6.39127 36.7759 2.23489 43.5218 2.9039C50.5231 3.59824 56.9736 7.66941 61.3482 13.1542C65.5186 18.383 66.3989 25.2875 66.6979 31.9617Z" fill="#E9E9E9"/>
<path d="M20.8215 10.999H50.8215V25.999L40.8215 35.999L50.8215 45.999V60.999H20.8215V45.999L30.8215 35.999L20.8215 25.999V10.999ZM45.8215 47.249L35.8215 37.249L25.8215 47.249V55.999H45.8215V47.249ZM35.8215 34.749L45.8215 24.749V15.999H25.8215V24.749L35.8215 34.749ZM30.8215 20.999H40.8215V22.874L35.8215 27.874L30.8215 22.874V20.999Z" fill="#103742"/>
</svg>
