<svg width="24" height="24" viewBox="0 0 24 24" fill="none" xmlns="http://www.w3.org/2000/svg">
<g clip-path="url(#clip0)">
<path d="M1.47035 23.251C1.28343 23.251 1.10018 23.1776 0.964795 23.0412C0.787311 22.8637 0.715688 22.6061 0.776829 22.3629L2.12002 16.9716C2.15146 16.8457 2.21644 16.7302 2.30798 16.6387L17.4286 1.51808C18.4512 0.495275 20.116 0.495275 21.1388 1.51808L22.4877 2.86703C23.5106 3.88984 23.5106 5.55463 22.4877 6.57726L7.36733 21.6978C7.27562 21.7894 7.16015 21.8552 7.03438 21.8858L1.64311 23.229C1.58582 23.2444 1.52852 23.251 1.47035 23.251ZM3.45953 17.5097L2.4521 21.5528L6.49529 20.5454L21.4765 5.56511C21.9411 5.10043 21.9411 4.34298 21.4765 3.87831L20.1275 2.52936C19.662 2.06381 18.9043 2.06468 18.4407 2.52936L3.45953 17.5097ZM6.86161 21.1923H6.87122H6.86161Z" fill="white"/>
<path d="M19.6555 9.11257C19.4722 9.11257 19.289 9.04287 19.1497 8.90277L15.1018 4.85574C14.8222 4.57606 14.8222 4.12292 15.1018 3.84342C15.3814 3.56391 15.8345 3.56391 16.114 3.84342L20.1621 7.89149C20.4416 8.17099 20.4416 8.62414 20.1621 8.90364C20.0207 9.04287 19.8377 9.11257 19.6555 9.11257Z" fill="white"/>
<path d="M6.86189 21.9076C6.67864 21.9076 6.49556 21.8379 6.35634 21.6976L2.30826 17.6497C2.02876 17.37 2.02876 16.9169 2.30826 16.6374C2.58776 16.3579 3.04091 16.3579 3.32058 16.6374L7.36849 20.6854C7.64799 20.9649 7.64799 21.4181 7.36849 21.6976C7.22821 21.8379 7.04514 21.9076 6.86189 21.9076Z" fill="white"/>
</g>
<defs>
<clipPath id="clip0">
<rect width="22.5" height="22.5" fill="white" transform="translate(0.75 0.75)"/>
</clipPath>
</defs>
</svg>
