<svg width="16" height="16" viewBox="0 0 16 16" fill="none" xmlns="http://www.w3.org/2000/svg">
<path d="M12.6451 9.91076C12.3176 9.56969 11.9225 9.38734 11.5037 9.38734C11.0884 9.38734 10.6899 9.56632 10.3488 9.90738L9.28172 10.9711C9.19392 10.9238 9.10612 10.8799 9.0217 10.836C8.90013 10.7753 8.78532 10.7178 8.68739 10.6571C7.68782 10.0222 6.77943 9.19486 5.90819 8.12438C5.48608 7.59082 5.20242 7.1417 4.99642 6.68581C5.27333 6.43254 5.52998 6.16915 5.77987 5.91588C5.87442 5.82132 5.96897 5.72339 6.06353 5.62884C6.77268 4.91969 6.77268 4.00117 6.06353 3.29202L5.14163 2.37012C5.03695 2.26544 4.92889 2.15738 4.82758 2.04932C4.62496 1.83995 4.41222 1.62382 4.19272 1.42121C3.86516 1.09703 3.47344 0.924805 3.06146 0.924805C2.64947 0.924805 2.251 1.09703 1.91331 1.42121C1.90993 1.42459 1.90993 1.42459 1.90655 1.42796L0.758404 2.58624C0.326159 3.01849 0.0796448 3.54529 0.0256142 4.15651C-0.0554316 5.14257 0.234983 6.06108 0.457859 6.66217C1.00492 8.13788 1.82213 9.50553 3.04119 10.9711C4.52028 12.7372 6.29991 14.1319 8.33281 15.1146C9.1095 15.4827 10.1462 15.9183 11.3045 15.9926C11.3754 15.996 11.4497 15.9993 11.5172 15.9993C12.2973 15.9993 12.9524 15.719 13.4657 15.1619C13.4691 15.1551 13.4758 15.1517 13.4792 15.145C13.6548 14.9322 13.8574 14.7397 14.0702 14.5338C14.2154 14.3953 14.364 14.2501 14.5092 14.0981C14.8435 13.7503 15.0191 13.3451 15.0191 12.9297C15.0191 12.511 14.8401 12.1091 14.499 11.7714L12.6451 9.91076ZM13.8541 13.4666C13.8507 13.4666 13.8507 13.47 13.8541 13.4666C13.7224 13.6085 13.5873 13.7368 13.4421 13.8786C13.2226 14.088 12.9997 14.3075 12.7903 14.554C12.4493 14.9187 12.0474 15.0909 11.5206 15.0909C11.47 15.0909 11.4159 15.0909 11.3653 15.0876C10.3623 15.0234 9.43031 14.6317 8.73129 14.2974C6.81996 13.3721 5.14163 12.0585 3.74697 10.3937C2.59544 9.00575 1.82551 7.72252 1.31559 6.34474C1.00154 5.50389 0.886726 4.84877 0.93738 4.2308C0.971149 3.8357 1.12311 3.50814 1.40339 3.22786L2.55492 2.07633C2.72039 1.92099 2.89599 1.83657 3.06821 1.83657C3.28096 1.83657 3.45318 1.96489 3.56124 2.07295C3.56462 2.07633 3.56799 2.07971 3.57137 2.08308C3.77736 2.27557 3.97322 2.47481 4.17921 2.68755C4.2839 2.79561 4.39196 2.90367 4.50002 3.01511L5.42192 3.93701C5.77987 4.29496 5.77987 4.6259 5.42192 4.98385C5.32399 5.08178 5.22943 5.17971 5.1315 5.27426C4.84784 5.56468 4.57769 5.83483 4.2839 6.09823C4.27714 6.10498 4.27039 6.10836 4.26701 6.11511C3.9766 6.40553 4.03063 6.68919 4.09141 6.88167C4.09479 6.8918 4.09817 6.90193 4.10154 6.91207C4.3413 7.49289 4.679 8.03995 5.19229 8.6917L5.19566 8.69507C6.12769 9.84322 7.11037 10.7381 8.19436 11.4236C8.33281 11.5114 8.47464 11.5823 8.60972 11.6499C8.73129 11.7107 8.8461 11.7681 8.94403 11.8288C8.95754 11.8356 8.97105 11.8457 8.98455 11.8525C9.09937 11.9099 9.20743 11.9369 9.31887 11.9369C9.59915 11.9369 9.77475 11.7613 9.83216 11.7039L10.9871 10.549C11.1019 10.4342 11.2842 10.2957 11.497 10.2957C11.7063 10.2957 11.8786 10.4274 11.9832 10.5422C11.9866 10.5456 11.9866 10.5456 11.99 10.549L13.8507 12.4097C14.1985 12.7541 14.1985 13.1087 13.8541 13.4666Z" fill="#932A85"/>
<path d="M8.64673 3.80475C9.53148 3.95334 10.3352 4.37207 10.9768 5.01369C11.6184 5.6553 12.0338 6.459 12.1857 7.34375C12.2229 7.56663 12.4154 7.72197 12.6349 7.72197C12.6619 7.72197 12.6855 7.71859 12.7125 7.71521C12.9624 7.67469 13.1279 7.43831 13.0874 7.18842C12.905 6.11793 12.3985 5.14201 11.6252 4.3687C10.8519 3.59538 9.87593 3.08885 8.80545 2.90649C8.55556 2.86597 8.32255 3.03144 8.27865 3.27795C8.23475 3.52447 8.39684 3.76423 8.64673 3.80475Z" fill="#932A85"/>
<path d="M15.9814 7.05794C15.6808 5.29519 14.8501 3.69116 13.5736 2.41469C12.2972 1.13821 10.6931 0.307495 8.9304 0.00695018C8.68389 -0.0369496 8.45088 0.131896 8.40698 0.37841C8.36646 0.628302 8.53192 0.861308 8.78182 0.905208C10.3555 1.17198 11.7906 1.91828 12.932 3.0563C14.0734 4.19769 14.8164 5.63288 15.0831 7.20652C15.1203 7.4294 15.3128 7.58473 15.5323 7.58473C15.5593 7.58473 15.5829 7.58136 15.6099 7.57798C15.8564 7.54084 16.0253 7.30445 15.9814 7.05794Z" fill="#932A85"/>
</svg>
