<svg width="48" height="48" viewBox="0 0 48 48" fill="none" xmlns="http://www.w3.org/2000/svg">
<path d="M48 31.9998V1.5998C48 1.15793 47.6419 0.799805 47.2 0.799805H0.8C0.358125 0.799805 0 1.15793 0 1.5998V31.9998C0 32.4417 0.358125 32.7998 0.8 32.7998H24.24C23.2547 37.5961 25.2819 42.5092 29.3625 45.2151C33.4431 47.9211 38.7581 47.8767 42.7925 45.1029C46.8275 42.3292 48.7722 37.3826 47.7069 32.6036C47.8903 32.4564 47.9972 32.2345 48 31.9998ZM46.4 2.3998V22.8686L39.7656 16.2342C39.4841 15.9526 39.0387 15.9211 38.72 16.1598L29.5266 23.0548L13.3062 9.78074C13.1231 9.63074 12.8825 9.5698 12.6497 9.61418C12.4172 9.65855 12.2159 9.80418 12.1006 10.0111L1.6 28.9126V2.3998H46.4ZM2.16 31.1998L13.0344 11.6254L29.52 25.1198C27.2869 26.5595 25.5922 28.697 24.7 31.1998H2.16ZM36 45.5998C30.2562 45.5998 25.6 40.9436 25.6 35.1998C25.6 29.4561 30.2562 24.7998 36 24.7998C41.7437 24.7998 46.4 29.4561 46.4 35.1998C46.3934 40.9407 41.7409 45.5932 36 45.5998ZM36 23.1998C34.2856 23.2014 32.5912 23.5729 31.0337 24.2892L30.8006 24.0992L39.1247 17.8592L46.4 25.1311V29.2389C44.265 25.5089 40.2981 23.2054 36 23.1998Z" fill="#103742"/>
<path d="M33.5999 12C35.8089 12 37.5998 10.2091 37.5998 8C37.5998 5.79094 35.8089 4 33.5999 4C31.3908 4 29.5999 5.79094 29.5999 8C29.6027 10.2081 31.3917 11.9972 33.5999 12ZM33.5999 5.6C34.9252 5.6 35.9999 6.67469 35.9999 8C35.9999 9.32531 34.9252 10.4 33.5999 10.4C32.2745 10.4 31.1999 9.32531 31.1999 8C31.1999 6.67469 32.2745 5.6 33.5999 5.6Z" fill="#103742"/>
<path d="M36.7998 27.2002H35.1998V34.4002H27.9998V36.0002H35.1998V42.4002H36.7998V36.0002H43.9998V34.4002H36.7998V27.2002Z" fill="#103742"/>
</svg>
