<svg width="20" height="20" viewBox="0 0 20 20" fill="none" xmlns="http://www.w3.org/2000/svg">
<g clip-path="url(#clip0)">
<path d="M7.37108 17.4161C5.72987 16.8694 4.31899 15.8389 3.29092 14.4362C2.24227 13.0053 1.68797 11.3082 1.68797 9.52825C1.68797 8.12456 2.03069 6.77796 2.68734 5.57104L2.69563 5.61664C2.75276 5.93135 3.05129 6.14148 3.36568 6.09063C3.36947 6.09001 3.37334 6.08934 3.37713 6.08868C3.69567 6.03088 3.90701 5.72575 3.84917 5.40721L3.59031 3.98152C3.53361 3.66924 3.23864 3.4588 2.92487 3.50682L1.50805 3.72371C1.5064 3.72395 1.50476 3.72422 1.50312 3.7245C1.1858 3.77577 0.968555 4.07348 1.01729 4.39185C1.06629 4.71188 1.36541 4.93158 1.68543 4.88257L1.73213 4.87542C0.933032 6.28767 0.515625 7.87332 0.515625 9.52825C0.515625 11.5591 1.14832 13.4959 2.34536 15.1292C3.51782 16.729 5.12758 17.9044 7.00061 18.5283C7.06208 18.5488 7.12453 18.5585 7.18597 18.5585C7.43142 18.5585 7.66019 18.4031 7.74203 18.1574C7.8443 17.8503 7.67821 17.5184 7.37108 17.4161Z" fill="white"/>
<path d="M19.4842 9.52888C19.4842 8.03597 19.1471 6.60692 18.4821 5.2815C18.337 4.99212 17.9847 4.87519 17.6953 5.02037C17.406 5.16551 17.289 5.51781 17.4342 5.80716C18.0165 6.96797 18.3118 8.22011 18.3118 9.52884C18.3118 13.8734 14.9611 17.4496 10.7082 17.8103L10.7622 17.7542C10.9866 17.5209 10.9794 17.1498 10.7461 16.9254C10.5127 16.7009 10.1417 16.7081 9.91726 16.9414L8.91277 17.9857C8.69271 18.2144 8.6947 18.5768 8.91726 18.8031L9.92226 19.825C10.037 19.9417 10.1886 20.0002 10.3403 20.0002C10.4886 20.0002 10.6371 19.9442 10.7513 19.8319C10.9821 19.6049 10.9852 19.2337 10.7582 19.0029L10.7401 18.9845C12.9945 18.8116 15.0905 17.851 16.7063 16.2353C18.4976 14.4439 19.4842 12.0622 19.4842 9.52888Z" fill="white"/>
<path d="M5.34377 2.59796C6.72019 1.66533 8.3303 1.17238 10 1.17238C11.1927 1.17238 12.3438 1.41944 13.4213 1.90672C14.043 2.1879 14.6209 2.54043 15.1502 2.95928L15.1214 2.95983C14.7977 2.96608 14.5404 3.23358 14.5467 3.55728C14.5528 3.8771 14.814 4.1321 15.1325 4.1321C15.1364 4.1321 15.1402 4.13206 15.1441 4.13198L16.5928 4.10388C16.9101 4.09774 17.165 3.84009 17.1676 3.52269L17.1795 2.08942C17.1822 1.76568 16.922 1.50104 16.5983 1.49838C16.5966 1.49834 16.595 1.49834 16.5933 1.49834C16.2719 1.49834 16.0099 1.75759 16.0072 2.07965L16.0067 2.1435C15.368 1.61961 14.6649 1.18246 13.9044 0.838487C12.6741 0.282114 11.3605 0 10 0C8.09492 0 6.25737 0.562704 4.68615 1.62738C4.41814 1.80898 4.34807 2.17348 4.52967 2.44148C4.71128 2.70945 5.07577 2.77948 5.34377 2.59796Z" fill="white"/>
</g>
<defs>
<clipPath id="clip0">
<rect width="20" height="20" fill="white"/>
</clipPath>
</defs>
</svg>
