<svg width="72" height="71" viewBox="0 0 72 71" fill="none" xmlns="http://www.w3.org/2000/svg">
<path fill-rule="evenodd" clip-rule="evenodd" d="M66.8549 31.7844C67.1303 37.9309 65.7697 43.835 63.1627 49.4161C60.3925 55.3467 57.5671 62.1182 51.5077 64.6402C45.511 67.1361 38.9911 63.5866 32.6677 62.1084C26.6981 60.7129 20.5016 60.0771 15.7081 56.2715C10.4132 52.0679 5.73797 46.5419 4.66885 39.8801C3.58558 33.1301 6.14526 26.2526 9.97978 20.5778C13.5802 15.2494 19.5021 12.4645 25.2113 9.47888C31.1834 6.3558 37.099 2.22249 43.8074 2.88778C50.7699 3.57827 57.1846 7.62685 61.5349 13.0812C65.6822 18.2809 66.5575 25.1471 66.8549 31.7844Z" fill="#E9E9E9"/>
<path fill-rule="evenodd" clip-rule="evenodd" d="M34.3584 6.93591C23.4488 7.61466 17.7478 13.7928 17.25 24.965H28.2553C28.3931 21.095 30.5531 18.2018 34.575 17.7753C38.5228 17.3562 42.2681 18.2965 43.4025 20.9956C44.6278 23.9112 41.8772 27.2993 40.5694 28.7215C38.1488 31.3587 34.2169 33.2825 32.1788 36.1278C30.1809 38.9159 29.8256 42.5844 29.6719 47.074H39.3713C39.5072 44.2034 39.6984 41.4537 41.0044 39.6697C43.1288 36.7709 46.3013 35.4125 48.96 33.1231C51.4997 30.935 54.1716 28.2978 54.6253 24.2159C55.9875 11.9993 46.0153 6.20841 34.3584 6.93591Z" fill="#103742"/>
<path d="M34.6078 63.1244C37.9898 63.1244 40.7315 60.4242 40.7315 57.0934C40.7315 53.7626 37.9898 51.0625 34.6078 51.0625C31.2257 51.0625 28.484 53.7626 28.484 57.0934C28.484 60.4242 31.2257 63.1244 34.6078 63.1244Z" fill="#103742"/>
</svg>
