<svg width="35" height="31" viewBox="0 0 35 31" fill="none" xmlns="http://www.w3.org/2000/svg">
<path d="M0.00744147 22.287C0.00744147 26.8885 3.73751 30.6186 8.33899 30.6186C12.9405 30.6186 16.6706 26.8885 16.6706 22.287C16.6706 17.6854 12.9405 13.9554 8.33899 13.9554C7.39332 13.9554 6.48808 14.1203 5.64064 14.4108C7.5156 3.65744 15.9012 -3.27726 8.12777 2.43013C-0.491748 8.75901 -0.00179001 22.0324 0.00785482 22.2756C0.00785482 22.2794 0.00744147 22.2828 0.00744147 22.287Z" fill="#962689"/>
<path d="M18.3366 22.287C18.3366 26.8885 22.0666 30.6186 26.6682 30.6186C31.2697 30.6186 34.9998 26.8885 34.9998 22.287C34.9998 17.6854 31.2697 13.9554 26.6681 13.9554C25.7224 13.9554 24.8172 14.1203 23.9698 14.4108C25.8447 3.65744 34.2303 -3.27726 26.4569 2.43013C17.8374 8.75901 18.3273 22.0324 18.337 22.2756C18.337 22.2794 18.3366 22.2828 18.3366 22.287Z" fill="#962689"/>
</svg>
