<svg width="72" height="71" viewBox="0 0 72 71" fill="none" xmlns="http://www.w3.org/2000/svg">
<path fill-rule="evenodd" clip-rule="evenodd" d="M66.8764 31.9617C67.1533 38.1426 65.7852 44.0796 63.1637 49.6919C60.378 55.6556 57.5368 62.4649 51.4435 65.001C45.4134 67.5108 38.8571 63.9415 32.4984 62.455C26.4955 61.0517 20.2644 60.4124 15.4441 56.5856C10.1197 52.3585 5.41838 46.8017 4.34329 40.1027C3.25397 33.315 5.82794 26.3991 9.68387 20.6926C13.3044 15.3345 19.2593 12.534 25.0003 9.53178C31.0058 6.39127 36.9544 2.23489 43.7003 2.9039C50.7017 3.59824 57.1521 7.66941 61.5267 13.1542C65.6971 18.383 66.5774 25.2875 66.8764 31.9617Z" fill="#E9E9E9"/>
<path d="M22.1002 33.001C23.3002 27.001 28.7002 22.501 35.0002 22.501C39.5002 22.501 43.1002 24.601 45.5002 27.901L50.6002 21.901C47.0002 17.701 41.3002 15.001 35.0002 15.001C24.5002 15.001 15.8002 22.801 14.3002 33.001H8.00024L18.5002 45.001L29.0002 33.001H22.1002ZM51.5002 27.001L41.0002 39.001H47.9002C46.4002 45.001 41.3002 49.501 35.0002 49.501C30.5002 49.501 26.9002 47.401 24.5002 44.101L19.4002 49.801C23.0002 54.301 28.7002 57.001 35.0002 57.001C45.5002 57.001 54.2002 49.201 55.7002 39.001H62.0002L51.5002 27.001Z" fill="#103742"/>
</svg>
