<svg width="21" height="21" viewBox="0 0 21 21" fill="none" xmlns="http://www.w3.org/2000/svg">
<path d="M12.265 4.11845C12.0028 3.86875 11.5871 3.87859 11.3374 4.14109C11.0873 4.40359 11.0978 4.819 11.36 5.06903L16.3941 9.84357H3.28125C2.919 9.84357 2.625 10.1376 2.625 10.4998C2.625 10.8621 2.919 11.1561 3.28125 11.1561H16.3731L11.36 15.9309C11.0975 16.181 11.0873 16.5964 11.3374 16.8589C11.4663 16.9941 11.6392 17.0623 11.8125 17.0623C11.9753 17.0623 12.138 17.0023 12.265 16.8812L17.9904 11.4278C18.2385 11.18 18.375 10.8506 18.375 10.4998C18.375 10.1491 18.2385 9.81962 17.979 9.56073L12.265 4.11845Z" fill="#962689"/>
</svg>
