<svg width="40" height="41" viewBox="0 0 40 41" fill="none" xmlns="http://www.w3.org/2000/svg">
<g clip-path="url(#clip0)">
<path d="M37.403 0H0.0463447C0.0102466 0.496006 -0.030774 1.1742 0.0364998 2.8602V40.999L20.1743 34.594L40.0004 40.999V2.02615C40.0004 0.907765 38.5877 0 37.403 0ZM37.5195 37.747C37.5195 37.8702 37.421 37.9839 37.2569 38.0492C37.1683 38.085 37.0666 38.103 36.9649 38.103C36.8812 38.103 36.7959 38.0903 36.7188 38.0661L20.1333 32.7933L3.2558 38.0661C3.08351 38.1198 2.88169 38.1124 2.71925 38.0482C2.5568 37.9829 2.45836 37.8692 2.45836 37.7459V2.67275C2.45836 2.47582 2.70612 2.3168 3.01295 2.3168C3.31979 2.3168 3.56755 2.47582 3.56755 2.67275V37.1773L19.8937 32.0761C20.048 32.0277 20.2285 32.0277 20.3827 32.0772L36.4103 37.172V2.67275C36.4103 2.47582 36.658 2.3168 36.9649 2.3168C37.2717 2.3168 37.5195 2.47582 37.5195 2.67275V37.747Z" fill="#ED4545"/>
</g>
<defs>
<clipPath id="clip0">
<rect width="40" height="41" fill="white"/>
</clipPath>
</defs>
</svg>
