<svg width="16" height="16" viewBox="0 0 16 16" fill="none" xmlns="http://www.w3.org/2000/svg">
<g clip-path="url(#clip0)">
<path d="M15.9583 6.13736C15.8536 5.81337 15.5662 5.58326 15.2262 5.55262L10.6082 5.1333L8.78208 0.859144C8.64744 0.545904 8.34079 0.34314 8.00008 0.34314C7.65938 0.34314 7.35273 0.545904 7.21808 0.859877L5.39198 5.1333L0.773211 5.55262C0.433847 5.584 0.147219 5.81337 0.0418692 6.13736C-0.0634802 6.46134 0.0338123 6.8167 0.290533 7.0407L3.78122 10.1021L2.7519 14.6362C2.67658 14.9696 2.80598 15.3142 3.0826 15.5142C3.23128 15.6216 3.40524 15.6763 3.58066 15.6763C3.73191 15.6763 3.88193 15.6355 4.01658 15.555L8.00008 13.1742L11.9821 15.555C12.2735 15.7303 12.6408 15.7143 12.9168 15.5142C13.1936 15.3136 13.3229 14.9689 13.2475 14.6362L12.2182 10.1021L15.7089 7.04131C15.9656 6.8167 16.0636 6.46195 15.9583 6.13736Z" fill="#FFC107"/>
</g>
<defs>
<clipPath id="clip0">
<rect width="16" height="16" fill="white"/>
</clipPath>
</defs>
</svg>
