<svg width="16" height="16" viewBox="0 0 16 16" fill="none" xmlns="http://www.w3.org/2000/svg">
<g clip-path="url(#clip0)">
<path d="M15.7204 6.21426L15.7205 6.21453C15.795 6.44392 15.7258 6.69433 15.5443 6.85316L15.5441 6.85334L12.0534 9.91408L11.9415 10.0122L11.9744 10.1574L13.0037 14.6914C13.057 14.9268 12.9656 15.1701 12.7701 15.3118L12.7701 15.3118C12.575 15.4532 12.3162 15.4642 12.111 15.3407L12.1104 15.3404L8.12837 12.9596L8.00011 12.8829L7.87183 12.9596L3.88833 15.3404L3.88821 15.3404C3.79227 15.3978 3.68659 15.4263 3.58066 15.4263C3.45754 15.4263 3.33487 15.388 3.22901 15.3115C3.03405 15.1706 2.94241 14.9277 2.99573 14.6915C2.99573 14.6914 2.99574 14.6914 2.99575 14.6913L4.02502 10.1574L4.05797 10.0122L3.94606 9.9141L0.455373 6.85274L0.454899 6.85233C0.274034 6.69451 0.205088 6.44386 0.279616 6.21466C0.354096 5.98561 0.556264 5.82384 0.795977 5.80159C0.796059 5.80158 0.796142 5.80157 0.796225 5.80156L5.41459 5.38228L5.56323 5.36878L5.62187 5.23154L7.44784 0.95841C7.44788 0.958324 7.44792 0.958237 7.44795 0.958151C7.54343 0.735788 7.75992 0.59314 8.00008 0.59314C8.24042 0.59314 8.45701 0.73599 8.55239 0.957833C8.55239 0.957846 8.5524 0.957859 8.5524 0.957872L10.3783 5.23152L10.4369 5.36878L10.5856 5.38228L15.2036 5.8016L15.2038 5.80162C15.4438 5.82325 15.6465 5.98551 15.7204 6.21426Z" fill="white" stroke="#103742" stroke-width="0.5"/>
</g>
<defs>
<clipPath id="clip0">
<rect width="16" height="16" fill="white"/>
</clipPath>
</defs>
</svg>
