<svg width="28" height="28" viewBox="0 0 28 28" fill="none" xmlns="http://www.w3.org/2000/svg">
<path d="M27.1991 3.82753C26.7872 3.41491 26.1188 3.4142 25.7069 3.82578L13.0472 16.4521L8.47956 11.4913C8.08488 11.0628 7.41758 11.0351 6.98845 11.4297C6.55964 11.8244 6.53219 12.492 6.92687 12.9208L12.2384 18.6893C12.433 18.9007 12.7052 19.0235 12.9923 19.0295C13 19.0298 13.0074 19.0298 13.0148 19.0298C13.2938 19.0298 13.5621 18.919 13.7598 18.722L27.197 5.32C27.61 4.90848 27.6107 4.24014 27.1991 3.82753Z" fill="#962689"/>
<path d="M26.9447 12.9447C26.3618 12.9447 25.8894 13.4171 25.8894 14C25.8894 20.5561 20.5561 25.8894 14 25.8894C7.44428 25.8894 2.11055 20.5561 2.11055 14C2.11055 7.44428 7.44428 2.11055 14 2.11055C14.5829 2.11055 15.0553 1.63816 15.0553 1.0553C15.0553 0.472391 14.5829 0 14 0C6.28031 0 0 6.28031 0 14C0 21.7194 6.28031 28 14 28C21.7194 28 28 21.7194 28 14C28 13.4171 27.5276 12.9447 26.9447 12.9447Z" fill="#962689"/>
</svg>
