<svg width="35" height="35" viewBox="0 0 35 35" fill="none" xmlns="http://www.w3.org/2000/svg">
<path d="M21.0354 31.879C20.7468 31.9509 20.4526 32.0148 20.1605 32.0686C19.397 32.2105 18.8922 32.9448 19.0335 33.709C19.1032 34.085 19.3167 34.3981 19.6066 34.6025C19.9054 34.8128 20.2856 34.9078 20.6731 34.8357C21.0209 34.7711 21.3714 34.6952 21.7154 34.6094C22.4693 34.4217 22.9287 33.6579 22.7406 32.9044C22.5529 32.1501 21.7898 31.6912 21.0354 31.879Z" fill="#962689"/>
<path d="M31.4401 13.0195C31.5386 13.3166 31.7268 13.559 31.9645 13.7266C32.3169 13.9748 32.778 14.0583 33.2181 13.9128C33.9558 13.6678 34.3556 12.8723 34.1115 12.1349C34.0003 11.7987 33.8769 11.4615 33.7455 11.1332C33.4569 10.4117 32.6384 10.0604 31.9166 10.349C31.1954 10.6375 30.844 11.4561 31.1328 12.1779C31.2433 12.4538 31.3467 12.7371 31.4401 13.0195Z" fill="#962689"/>
<path d="M25.6072 29.8701C25.359 30.0339 25.1029 30.1925 24.8448 30.3411C24.1715 30.7295 23.9409 31.5901 24.3291 32.2631C24.4345 32.4462 24.5749 32.5958 24.7366 32.7102C25.1706 33.0156 25.7601 33.0613 26.2509 32.7786C26.5577 32.6016 26.8628 32.4134 27.1584 32.2179C27.8065 31.7897 27.9849 30.9168 27.5565 30.2684C27.1281 29.6198 26.2556 29.4416 25.6072 29.8701Z" fill="#962689"/>
<path d="M34.9867 16.9495C34.9561 16.1729 34.302 15.5684 33.5252 15.5987C32.7494 15.6294 32.1445 16.2837 32.1749 17.06C32.1866 17.3568 32.1896 17.658 32.1828 17.9546C32.1718 18.4416 32.41 18.8757 32.7802 19.1366C33.0007 19.2919 33.2683 19.3859 33.5585 19.3925C34.3351 19.4097 34.9787 18.7937 34.9959 18.0168C35.0037 17.6625 35.0007 17.3035 34.9867 16.9495Z" fill="#962689"/>
<path d="M31.2106 26.1687C30.5879 25.7015 29.7069 25.8283 29.2405 26.4499C29.0619 26.6879 28.8738 26.9231 28.6812 27.1494C28.1778 27.7408 28.2489 28.6291 28.8403 29.1328C28.874 29.1613 28.9081 29.1876 28.9435 29.2123C29.5314 29.6268 30.3484 29.5315 30.8238 28.9737C31.0538 28.7036 31.278 28.4228 31.4914 28.1384C31.9579 27.5168 31.8316 26.6352 31.2106 26.1687Z" fill="#962689"/>
<path d="M33.2792 21.0824C32.5377 20.8499 31.7481 21.2627 31.5158 22.0041C31.4268 22.2874 31.3283 22.572 31.2219 22.8507C30.9883 23.4644 31.2121 24.1395 31.7252 24.5014C31.8193 24.5675 31.923 24.6235 32.0356 24.6661C32.7616 24.9432 33.5745 24.5789 33.8513 23.8527C33.9776 23.5213 34.0948 23.1826 34.2008 22.8459C34.4329 22.1043 34.0205 21.3149 33.2792 21.0824Z" fill="#962689"/>
<path d="M14.8967 32.081C13.6388 31.8551 12.432 31.4705 11.2878 30.9341C11.2742 30.927 11.2621 30.9189 11.2479 30.9125C10.9783 30.7855 10.7091 30.6496 10.4481 30.5075C10.4472 30.5065 10.4456 30.5058 10.4441 30.5052C9.96542 30.2416 9.4982 29.9499 9.0443 29.6304C2.4256 24.968 0.834193 15.79 5.4969 9.17138C6.51079 7.73271 7.73774 6.53246 9.10562 5.58117C9.12247 5.56943 9.13932 5.55777 9.15602 5.54596C13.9762 2.22472 20.5212 2.00089 25.6395 5.41377L24.5402 7.00209C24.2346 7.44418 24.4226 7.76634 24.9576 7.71819L29.7327 7.29069C30.2684 7.24254 30.5887 6.77916 30.4446 6.26183L29.1624 1.64186C29.0188 1.12394 28.6513 1.06194 28.3454 1.50396L27.2436 3.09604C23.4874 0.574636 18.9824 -0.386811 14.5108 0.388576C14.0605 0.466521 13.6164 0.561921 13.1785 0.67297C13.1751 0.673572 13.1724 0.673948 13.1697 0.67455C13.1527 0.678688 13.1356 0.68418 13.1191 0.688769C9.26324 1.67896 5.89904 3.92785 3.49847 7.13653C3.47823 7.16053 3.45739 7.18401 3.43828 7.21012C3.35845 7.31763 3.27923 7.42762 3.20166 7.53762C3.07481 7.71789 2.94977 7.90267 2.83014 8.08745C2.81517 8.10972 2.80373 8.13236 2.79064 8.15486C0.809667 11.2246 -0.145837 14.7735 0.0180282 18.3865C0.0184044 18.3984 0.0177273 18.4103 0.0180282 18.4225C0.0339031 18.7755 0.0618911 19.1333 0.0998855 19.4855C0.101917 19.5083 0.106958 19.5298 0.110795 19.5525C0.150068 19.9067 0.199348 20.2618 0.261117 20.6167C0.88889 24.2385 2.59736 27.4975 5.15743 30.0333C5.16338 30.0393 5.16954 30.0457 5.17556 30.0519C5.17767 30.0542 5.18 30.0554 5.18203 30.0576C5.86985 30.736 6.618 31.3635 7.42355 31.9309C9.53168 33.4163 11.8791 34.3982 14.4002 34.8506C15.1651 34.9881 15.8958 34.4789 16.033 33.7143C16.1702 32.9493 15.6614 32.218 14.8967 32.081Z" fill="#103742"/>
<path d="M16.6364 6.25977C16.0072 6.25977 15.4976 6.76987 15.4976 7.39817V18.7398L25.8704 24.102C26.0374 24.1885 26.2161 24.2292 26.392 24.2292C26.804 24.2292 27.202 24.0048 27.4043 23.6133C27.6928 23.0546 27.4745 22.3683 26.9158 22.0797L17.774 17.3535V7.39817C17.7739 6.76987 17.2649 6.25977 16.6364 6.25977Z" fill="#962689"/>
</svg>
