<svg width="14" height="14" viewBox="0 0 14 14" fill="none" xmlns="http://www.w3.org/2000/svg">
<g clip-path="url(#clip0)">
<path d="M11.5405 3.9488H2.45867C2.36041 3.94045 2.26305 3.97292 2.18943 4.03853C2.11705 4.10806 2.08352 4.20872 2.0997 4.30776L3.033 12.4383C3.14245 13.3347 3.90683 14.0065 4.80986 13.9998H9.33281C10.2613 14.013 11.0433 13.3091 11.1276 12.3845L11.8994 4.27186C11.9042 4.18485 11.8715 4.09992 11.8097 4.03853C11.7361 3.97292 11.6387 3.94045 11.5405 3.9488ZM10.4097 12.3486C10.3533 12.8951 9.88186 13.3037 9.33285 13.2819H4.80989C4.27074 13.3038 3.8073 12.9031 3.75093 12.3665L2.85353 4.66673H11.1456L10.4097 12.3486Z" fill="#103742"/>
<path d="M12.8508 1.61542H9.15342V1.04105C9.17335 0.486301 8.7398 0.0204599 8.18505 0.000534515C8.16684 -0.000118212 8.1486 -0.000289982 8.13039 5.35584e-05H5.8689C5.31388 -0.0102183 4.85566 0.431369 4.84539 0.986393C4.84505 1.0046 4.84522 1.02284 4.84587 1.04105V1.61538H1.14852C0.950259 1.61538 0.789551 1.77609 0.789551 1.97435C0.789551 2.1726 0.950259 2.33331 1.14852 2.33331H12.8508C13.049 2.33331 13.2097 2.1726 13.2097 1.97435C13.2097 1.77609 13.049 1.61542 12.8508 1.61542ZM8.43549 1.04105V1.61538H5.56377V1.04105C5.54353 0.883743 5.65467 0.739834 5.81198 0.719599C5.83084 0.71716 5.8499 0.716645 5.86887 0.717985H8.13036C8.28856 0.706785 8.42591 0.825925 8.43711 0.98416C8.43848 1.00312 8.43793 1.02219 8.43549 1.04105Z" fill="#103742"/>
</g>
<defs>
<clipPath id="clip0">
<rect width="14" height="14" fill="white"/>
</clipPath>
</defs>
</svg>
