<svg width="60" height="38" viewBox="0 0 60 38" fill="none" xmlns="http://www.w3.org/2000/svg">
<path d="M60 0L56.8914 20.1024L0 31.1634V9.42063L59.8667 0.021166L60 0Z" fill="#76226C"/>
<path d="M59.8667 0.0214844L56.8914 19.2684L0 30.3294V9.42095L59.8667 0.0214844Z" fill="#962689"/>
<path d="M0 31.1632L11.0827 37.9998V29.0078L0 31.1632Z" fill="#76226C"/>
<path d="M5.80239 22.0396L4.2536 13.6501L7.19222 13.1076C8.21018 12.9196 9.01845 12.973 9.61705 13.2677C10.2149 13.5585 10.5834 14.0804 10.7224 14.8333C10.7983 15.2443 10.7596 15.6268 10.6065 15.9808C10.4527 16.3309 10.201 16.6137 9.85151 16.8292C10.3016 16.8573 10.6797 17.012 10.9858 17.2931C11.2958 17.5735 11.4944 17.95 11.5816 18.4225C11.7305 19.2291 11.5859 19.8874 11.1478 20.3973C10.7096 20.9072 10.0149 21.2539 9.06369 21.4375L5.80239 22.0396ZM6.85659 18.0673L7.27464 20.3318L8.75547 20.0584C9.16265 19.9832 9.46184 19.8287 9.65302 19.5948C9.84733 19.3563 9.91293 19.0662 9.84982 18.7243C9.70798 17.956 9.23843 17.6395 8.44114 17.7748L6.85659 18.0673ZM6.63108 16.8458L7.91024 16.6096C8.77939 16.4333 9.1512 16.0052 9.02568 15.3252C8.95548 14.9449 8.79373 14.6928 8.54044 14.5687C8.29028 14.4401 7.92704 14.4198 7.45071 14.5077L6.24069 14.7311L6.63108 16.8458ZM20.4384 14.273L18.4389 14.6421L19.3431 19.5398L17.6721 19.8483L16.768 14.9506L14.8031 15.3133L14.5563 13.9765L20.1916 12.9362L20.4384 14.273ZM27.2311 14.9197C27.4084 15.88 27.3317 16.6906 27.0008 17.3515C26.6731 18.0078 26.1386 18.4044 25.3972 18.5413C24.7672 18.6576 24.2178 18.5326 23.749 18.1663L24.2915 21.1049L22.6263 21.4124L21.0328 12.7809L22.577 12.4958L22.7474 13.0959C23.0614 12.5375 23.543 12.1983 24.1922 12.0784C24.9604 11.9366 25.6103 12.1106 26.1416 12.6004C26.6729 13.0902 27.0308 13.8345 27.2152 14.8332L27.2311 14.9197ZM25.5436 15.1061C25.4365 14.526 25.2502 14.0977 24.9846 13.821C24.7228 13.5436 24.3961 13.441 24.0042 13.5134C23.4818 13.6098 23.1595 13.8759 23.0374 14.3115L23.5086 16.8641C23.7881 17.2375 24.189 17.376 24.7115 17.2796C25.5066 17.1328 25.784 16.4083 25.5436 15.1061ZM31.7239 17.3733C30.8097 17.5421 30.0127 17.3993 29.3329 16.9448C28.657 16.4896 28.2329 15.7953 28.0606 14.8619L28.0308 14.7005C27.9152 14.0744 27.933 13.4931 28.0843 12.9568C28.2348 12.4166 28.5065 11.9732 28.8993 11.6265C29.2953 11.2754 29.7775 11.0473 30.346 10.9424C31.1988 10.7849 31.9187 10.9301 32.5059 11.3778C33.0968 11.8248 33.4835 12.542 33.6657 13.5292L33.7912 14.2091L29.8212 14.942C29.9502 15.3393 30.1718 15.636 30.486 15.8322C30.8042 16.0277 31.1707 16.0871 31.5855 16.0106C32.227 15.8921 32.6854 15.5672 32.9607 15.0357L33.948 15.8008C33.7636 16.2003 33.4766 16.5393 33.0871 16.8178C32.6969 17.0924 32.2425 17.2776 31.7239 17.3733ZM30.5892 12.2918C30.2588 12.3527 30.0105 12.5138 29.8442 12.7749C29.6817 13.0353 29.61 13.3782 29.6289 13.8037L31.9453 13.3761L31.9208 13.2436C31.845 12.8762 31.6927 12.6104 31.4637 12.4461C31.2341 12.278 30.9426 12.2265 30.5892 12.2918ZM40.6222 15.6114L38.9512 15.9199L38.5087 13.5229L36.4402 13.9048L36.8827 16.3018L35.2174 16.6092L34.0665 10.3747L35.7317 10.0673L36.1934 12.568L38.2619 12.1861L37.8003 9.68541L39.4713 9.37692L40.6222 15.6114ZM41.7515 14.0146C42.0542 13.5456 42.2366 13.1028 42.2987 12.6862C42.3608 12.2695 42.3332 11.7006 42.216 10.9795L41.8855 8.93122L46.4721 8.08449L47.3752 12.9764L48.2741 12.8105L48.8676 16.0257L47.2024 16.3331L46.8567 14.4605L43.1633 15.1423L43.509 17.015L41.8092 17.3288L41.2156 14.1136L41.7515 14.0146ZM43.7163 13.6519L45.7157 13.2828L45.0669 9.76796L43.7704 10.0073L43.8972 10.7585C44.0739 11.9096 44.0137 12.8741 43.7163 13.6519ZM52.2597 13.5822C51.3455 13.7509 50.5485 13.6081 49.8687 13.1536C49.1928 12.6985 48.7687 12.0042 48.5964 11.0707L48.5666 10.9094C48.451 10.2832 48.4688 9.70199 48.6201 9.16562C48.7706 8.62541 49.0423 8.18201 49.4351 7.8354C49.8311 7.48425 50.3133 7.25619 50.8818 7.15124C51.7346 6.9938 52.4545 7.13895 53.0417 7.58667C53.6326 8.03369 54.0193 8.75081 54.2015 9.73803L54.327 10.418L50.357 11.1509C50.486 11.5481 50.7076 11.8448 51.0218 12.0411C51.34 12.2365 51.7065 12.296 52.1213 12.2194C52.7628 12.101 53.2212 11.776 53.4965 11.2446L54.4838 12.0097C54.2994 12.4092 54.0124 12.7482 53.6229 13.0266C53.2327 13.3013 52.7783 13.4864 52.2597 13.5822ZM51.125 8.50061C50.7946 8.5616 50.5463 8.72264 50.38 8.98373C50.2175 9.24411 50.1458 9.58705 50.1647 10.0126L52.4811 9.58494L52.4566 9.45241C52.3808 9.08506 52.2285 8.81924 51.9995 8.65495C51.7699 8.48681 51.4784 8.43537 51.125 8.50061Z" fill="white"/>
</svg>
