<svg width="22" height="22" viewBox="0 0 22 22" fill="none" xmlns="http://www.w3.org/2000/svg">
<path d="M10.9998 11.0283C5.20222 11.0283 0.485352 15.7452 0.485352 21.5428C0.485352 21.7952 0.69017 22 0.942518 22C1.19487 22 1.39968 21.7952 1.39968 21.5428C1.39968 16.249 5.70606 11.9426 10.9999 11.9426C16.2937 11.9426 20.6001 16.249 20.6001 21.5428C20.6001 21.7952 20.8049 22 21.0572 22C21.3096 22 21.5144 21.7952 21.5144 21.5428C21.5144 15.7443 16.7975 11.0283 10.9998 11.0283Z" fill="#103742"/>
<path d="M10.9998 0C8.22767 0 5.97119 2.25557 5.97119 5.02866C5.97119 7.80174 8.22771 10.0573 10.9998 10.0573C13.772 10.0573 16.0285 7.80174 16.0285 5.02866C16.0285 2.25557 13.772 0 10.9998 0ZM10.9998 9.14303C8.73146 9.14303 6.88548 7.29705 6.88548 5.02866C6.88548 2.76027 8.73146 0.91429 10.9998 0.91429C13.2682 0.91429 15.1142 2.76027 15.1142 5.02866C15.1142 7.29705 13.2682 9.14303 10.9998 9.14303Z" fill="#103742"/>
</svg>
