<svg width="45" height="41" viewBox="0 0 45 41" fill="none" xmlns="http://www.w3.org/2000/svg">
<g clip-path="url(#clip0)">
<path d="M16.5 24.9646L18.7857 12.1074H22.3571L20.1429 24.9646H16.5Z" fill="#3C58BF"/>
<path d="M16.5 24.9646L19.4286 12.1074H22.3571L20.1429 24.9646H16.5Z" fill="#293688"/>
<path d="M33.0712 12.2501C32.3569 11.9644 31.214 11.6787 29.7854 11.6787C26.214 11.6787 23.6426 13.4644 23.6426 16.0359C23.6426 17.9644 25.4283 18.9644 26.8569 19.6073C28.2854 20.2501 28.714 20.6787 28.714 21.2501C28.714 22.1073 27.5712 22.5359 26.5712 22.5359C25.1426 22.5359 24.3569 22.3216 23.1426 21.8216L22.6426 21.6073L22.1426 24.5359C22.9997 24.893 24.5712 25.2501 26.214 25.2501C29.9997 25.2501 32.4997 23.4644 32.4997 20.7501C32.4997 19.2501 31.5712 18.1073 29.4283 17.1787C28.1426 16.5359 27.3569 16.1787 27.3569 15.5359C27.3569 14.9644 27.9997 14.393 29.4283 14.393C30.6426 14.393 31.4997 14.6073 32.1426 14.893L32.4997 15.0359L33.0712 12.2501Z" fill="#3C58BF"/>
<path d="M33.0712 12.2501C32.3569 11.9644 31.214 11.6787 29.7854 11.6787C26.214 11.6787 24.2854 13.4644 24.2854 16.0359C24.2854 17.9644 25.4283 18.9644 26.8569 19.6073C28.2854 20.2501 28.714 20.6787 28.714 21.2501C28.714 22.1073 27.5712 22.5359 26.5712 22.5359C25.1426 22.5359 24.3569 22.3216 23.1426 21.8216L22.6426 21.6073L22.1426 24.5359C22.9997 24.893 24.5712 25.2501 26.214 25.2501C29.9997 25.2501 32.4997 23.4644 32.4997 20.7501C32.4997 19.2501 31.5712 18.1073 29.4283 17.1787C28.1426 16.5359 27.3569 16.1787 27.3569 15.5359C27.3569 14.9644 27.9997 14.393 29.4283 14.393C30.6426 14.393 31.4997 14.6073 32.1426 14.893L32.4997 15.0359L33.0712 12.2501Z" fill="#293688"/>
<path d="M39.2143 12.1074C38.3571 12.1074 37.7143 12.1789 37.3571 13.036L32 24.9646H35.8571L36.5714 22.8217H41.1429L41.5714 24.9646H45L42 12.1074H39.2143ZM37.5714 20.6789C37.7857 20.036 39 16.8931 39 16.8931C39 16.8931 39.2857 16.1074 39.5 15.6074L39.7143 16.8217C39.7143 16.8217 40.4286 20.036 40.5714 20.7503H37.5714V20.6789Z" fill="#3C58BF"/>
<path d="M40.0714 12.1074C39.2143 12.1074 38.5714 12.1789 38.2143 13.036L32 24.9646H35.8571L36.5714 22.8217H41.1429L41.5714 24.9646H45L42 12.1074H40.0714ZM37.5714 20.6789C37.8571 19.9646 39 16.8931 39 16.8931C39 16.8931 39.2857 16.1074 39.5 15.6074L39.7143 16.8217C39.7143 16.8217 40.4286 20.036 40.5714 20.7503H37.5714V20.6789Z" fill="#293688"/>
<path d="M9.92843 21.1073L9.57129 19.2501C8.92843 17.1073 6.857 14.7501 4.57129 13.6073L7.78558 25.0358H11.6427L17.4284 12.1787H13.5713L9.92843 21.1073Z" fill="#3C58BF"/>
<path d="M9.92843 21.1073L9.57129 19.2501C8.92843 17.1073 6.857 14.7501 4.57129 13.6073L7.78558 25.0358H11.6427L17.4284 12.1787H14.2856L9.92843 21.1073Z" fill="#293688"/>
<path d="M0 12.1074L0.642857 12.2503C5.21429 13.3217 8.35714 16.036 9.57143 19.2503L8.28572 13.1788C8.07143 12.3217 7.42857 12.1074 6.64286 12.1074H0Z" fill="#FFBC00"/>
<path d="M0 12.1074C4.57143 13.1788 8.35714 15.9646 9.57143 19.1788L8.35714 14.1074C8.14286 13.2503 7.42857 12.7503 6.64286 12.7503L0 12.1074Z" fill="#F7981D"/>
<path d="M0 12.1074C4.57143 13.1788 8.35714 15.9646 9.57143 19.1788L8.71429 16.3931C8.5 15.536 8.21429 14.6788 7.21429 14.3217L0 12.1074Z" fill="#ED7C00"/>
<path d="M13.5002 20.679L11.0716 18.2504L9.92878 20.9647L9.64307 19.179C9.00021 17.0361 6.92878 14.679 4.64307 13.5361L7.85735 24.9647H11.7145L13.5002 20.679Z" fill="#051244"/>
<path d="M20.1429 24.9651L17.0714 21.8223L16.5 24.9651H20.1429Z" fill="#051244"/>
<path d="M28.3574 20.5361C28.6431 20.8218 28.7859 21.0361 28.7145 21.3218C28.7145 22.179 27.5716 22.6076 26.5716 22.6076C25.1431 22.6076 24.3574 22.3933 23.1431 21.8933L22.6431 21.679L22.1431 24.6076C23.0002 24.9647 24.5716 25.3219 26.2145 25.3219C28.5002 25.3219 30.3574 24.679 31.4288 23.5361L28.3574 20.5361Z" fill="#051244"/>
<path d="M32.5 24.9646H35.8571L36.5714 22.8217H41.1429L41.5714 24.9646H45L43.7857 19.7503L39.5 15.6074L39.7143 16.7503C39.7143 16.7503 40.4286 19.9646 40.5714 20.6788H37.5714C37.8571 19.9646 39 16.8931 39 16.8931C39 16.8931 39.2857 16.1074 39.5 15.6074" fill="#051244"/>
</g>
<defs>
<clipPath id="clip0">
<rect width="45" height="45" fill="white" transform="translate(0 -4)"/>
</clipPath>
</defs>
</svg>
