<svg width="72" height="71" viewBox="0 0 72 71" fill="none" xmlns="http://www.w3.org/2000/svg">
<path fill-rule="evenodd" clip-rule="evenodd" d="M66.8764 31.9617C67.1533 38.1426 65.7852 44.0796 63.1637 49.6919C60.378 55.6556 57.5368 62.4649 51.4435 65.001C45.4134 67.5108 38.8571 63.9415 32.4984 62.455C26.4955 61.0517 20.2644 60.4124 15.4441 56.5856C10.1197 52.3585 5.41838 46.8017 4.34329 40.1027C3.25397 33.315 5.82794 26.3991 9.68387 20.6926C13.3044 15.3345 19.2593 12.534 25.0003 9.53178C31.0058 6.39127 36.9544 2.23489 43.7003 2.9039C50.7017 3.59824 57.1521 7.66941 61.5267 13.1542C65.6971 18.383 66.5774 25.2875 66.8764 31.9617Z" fill="#E9E9E9"/>
<path d="M29.4741 41.5673C29.7399 44.3355 30.1905 46.3929 30.8107 47.7502C31.4385 49.1032 32.553 49.778 34.162 49.778C34.4627 49.778 34.7318 49.731 34.9987 49.6763C35.2721 49.731 35.5401 49.778 35.843 49.778C37.4476 49.778 38.5654 49.1032 39.1899 47.7502C39.8134 46.3929 40.2563 44.3355 40.5276 41.5673L41.956 20.1932C42.2218 16.0271 42.3574 13.0379 42.3574 11.2234C42.3574 8.75367 41.7132 6.82648 40.4204 5.44289C39.1232 4.0593 37.4191 3.36914 35.3082 3.36914C35.1955 3.36914 35.1113 3.3943 35.0009 3.39867C34.8959 3.3943 34.8095 3.36914 34.7001 3.36914C32.5848 3.36914 30.884 4.0593 29.589 5.44289C28.2951 6.82867 27.6465 8.75695 27.6465 11.2245C27.6465 13.039 27.7788 16.0282 28.049 20.1943L29.4741 41.5673Z" fill="#103742"/>
<path d="M35.0545 57.5909C33.0048 57.5909 31.2635 58.2373 29.8176 59.5302C28.3727 60.8241 27.6487 62.3947 27.6487 64.2388C27.6487 66.3202 28.3815 67.9586 29.8362 69.1486C31.2974 70.3386 33.0015 70.9336 34.9495 70.9336C36.9324 70.9336 38.6617 70.3473 40.1404 69.1716C41.617 67.9991 42.3552 66.3519 42.3552 64.2409C42.3552 62.3969 41.6487 60.8263 40.2356 59.5323C38.8224 58.2373 37.0954 57.5909 35.0512 57.5909" fill="#103742"/>
</svg>
