<svg width="51" height="24" viewBox="0 0 51 24" fill="none" xmlns="http://www.w3.org/2000/svg">
<g clip-path="url(#clip0)">
<path d="M15.2461 6.18595C15.0514 6.36514 14.8566 6.54059 14.6619 6.71978C13.984 7.36187 13.4709 8.10475 13.2912 9.03429C13.0403 10.3222 13.3062 11.5019 14.0889 12.5583C14.4821 13.0884 14.9465 13.5252 15.5682 13.779C15.6393 13.8089 15.7142 13.835 15.8041 13.8686C15.7217 14.0889 15.6506 14.3054 15.5644 14.5145C15.0588 15.7389 14.3997 16.87 13.5009 17.8518C13.3324 18.0348 13.1451 18.199 12.9504 18.3558C12.295 18.8859 11.5572 19.0875 10.7296 18.8486C10.3176 18.7291 9.90567 18.5947 9.49371 18.4678C9.07052 18.3371 8.63984 18.2326 8.19418 18.2214C7.63991 18.2065 7.12684 18.3745 6.61752 18.5611C6.22803 18.703 5.83855 18.8523 5.43783 18.9456C4.80492 19.095 4.23567 18.9008 3.71136 18.5462C3.18331 18.1878 2.76387 17.7212 2.4006 17.206C1.4943 15.9144 0.801464 14.5145 0.378274 12.9914C2.41919e-05 11.6363 -0.104837 10.2625 0.10863 8.87004C0.295883 7.64185 0.756523 6.53312 1.62163 5.61852C2.52044 4.67032 3.62523 4.27834 4.92476 4.409C5.5689 4.47246 6.18684 4.65912 6.80851 4.8383C7.06692 4.91297 7.32907 4.96896 7.59123 5.03616C7.96573 5.12949 8.33275 5.08842 8.69227 4.98389C9.2016 4.83457 9.70343 4.66658 10.209 4.51726C10.9655 4.29327 11.7295 4.22981 12.5085 4.37913C13.5159 4.57326 14.3136 5.11455 14.9802 5.86864C15.0626 5.96196 15.145 6.05902 15.2274 6.15608C15.2349 6.15982 15.2386 6.17102 15.2461 6.18595Z" fill="#962689"/>
<path d="M11.4565 0C11.4677 0.220252 11.4977 0.429305 11.4827 0.634624C11.404 1.75082 10.9659 2.71395 10.1907 3.52403C9.84236 3.88987 9.45662 4.21092 8.97726 4.39757C8.57279 4.5581 8.13837 4.59169 7.70769 4.62156C7.7002 4.62156 7.69271 4.61409 7.68896 4.61036C7.75263 2.11666 9.01471 0.500233 11.4565 0Z" fill="#962689"/>
<path d="M20.6611 2.96741C21.6611 2.80315 22.9681 2.65756 24.6346 2.65756C26.6794 2.65756 28.1774 3.13166 29.1287 3.98654C30.0088 4.74436 30.5331 5.90908 30.5331 7.33138C30.5331 8.77609 30.1061 9.91468 29.2972 10.7472C28.2037 11.9081 26.4173 12.5017 24.3987 12.5017C23.7808 12.5017 23.2078 12.4793 22.7321 12.3599V18.7621H20.6611V2.96741ZM22.7321 10.6725C23.1853 10.792 23.7545 10.8368 24.4436 10.8368C26.9416 10.8368 28.4621 9.62723 28.4621 7.42098C28.4621 5.31179 26.964 4.29265 24.6796 4.29265C23.777 4.29265 23.0842 4.36358 22.7284 4.45691V10.6725H22.7321Z" fill="#103742"/>
<path d="M38.0007 18.7582L37.836 17.3135H37.7648C37.1244 18.2132 35.8848 19.0195 34.2445 19.0195C31.915 19.0195 30.7241 17.3844 30.7241 15.7232C30.7241 12.9495 33.1996 11.4302 37.645 11.4563V11.2174C37.645 10.2692 37.3828 8.56315 35.0272 8.56315C33.9561 8.56315 32.8401 8.89539 32.0311 9.41802L31.5555 8.04425C32.5068 7.42829 33.8849 7.02512 35.338 7.02512C38.8584 7.02512 39.716 9.42176 39.716 11.7213V16.0144C39.716 17.0111 39.7647 17.9817 39.907 18.7657H38.0007V18.7582ZM37.6936 12.901C35.4092 12.8525 32.8176 13.2556 32.8176 15.4843C32.8176 16.8357 33.7202 17.4777 34.7912 17.4777C36.2893 17.4777 37.2405 16.5295 37.5738 15.5552C37.645 15.3424 37.6936 15.1035 37.6936 14.8907V12.901Z" fill="#103742"/>
<path d="M42.4946 7.28293L45.015 14.0659C45.2772 14.8238 45.5618 15.7272 45.7528 16.4141H45.8015C46.0149 15.7272 46.2546 14.8499 46.5392 14.0174L48.8237 7.28293H51.037L47.8987 15.4621C46.4007 19.3968 45.3783 21.4127 43.9514 22.6483C42.929 23.548 41.9066 23.9064 41.3823 23.9997L40.858 22.2451C41.3823 22.0809 42.0714 21.7486 42.6893 21.226C43.2586 20.7743 43.9739 19.9679 44.4495 18.904C44.5431 18.6912 44.6143 18.5232 44.6143 18.4075C44.6143 18.2881 44.5656 18.1238 44.472 17.8625L40.2139 7.28666H42.4946V7.28293Z" fill="#103742"/>
</g>
<defs>
<clipPath id="clip0">
<rect width="51" height="24" fill="white"/>
</clipPath>
</defs>
</svg>
