<svg width="31" height="31" viewBox="0 0 31 31" fill="none" xmlns="http://www.w3.org/2000/svg">
<g clip-path="url(#clip0)">
<path d="M10.4474 23.7282C10.4395 23.6895 10.428 23.6514 10.4129 23.6144C10.3977 23.5781 10.3789 23.543 10.3571 23.5103C10.3354 23.477 10.3099 23.4461 10.2821 23.4182C10.2542 23.3904 10.2233 23.365 10.19 23.3432C10.1573 23.3214 10.1222 23.3026 10.0853 23.2875C10.049 23.2723 10.0108 23.2602 9.97207 23.253C9.89396 23.2372 9.81344 23.2372 9.73594 23.253C9.69719 23.2602 9.65904 23.2723 9.62211 23.2875C9.58578 23.3026 9.55066 23.3214 9.51797 23.3432C9.48467 23.365 9.45379 23.3904 9.42594 23.4182C9.39809 23.4461 9.37266 23.477 9.35086 23.5103C9.32846 23.543 9.31029 23.5781 9.29516 23.6144C9.28002 23.6514 9.26791 23.6895 9.26064 23.7282C9.25277 23.767 9.24854 23.807 9.24854 23.8463C9.24854 23.8857 9.25277 23.9256 9.26064 23.9644C9.26791 24.0031 9.28002 24.0413 9.29516 24.0776C9.31029 24.1145 9.32846 24.1497 9.35086 24.1823C9.37266 24.2156 9.39809 24.2465 9.42594 24.2744C9.45379 24.3022 9.48467 24.3277 9.51797 24.3495C9.55066 24.3713 9.58578 24.3901 9.62211 24.4052C9.65904 24.4204 9.69719 24.4325 9.73594 24.4397C9.77469 24.4476 9.81465 24.4518 9.854 24.4518C9.89336 24.4518 9.93332 24.4476 9.97207 24.4397C10.0108 24.4325 10.049 24.4204 10.0853 24.4052C10.1222 24.3901 10.1573 24.3713 10.19 24.3495C10.2233 24.3277 10.2542 24.3022 10.2821 24.2744C10.3099 24.2465 10.3354 24.2156 10.3571 24.1823C10.3789 24.1497 10.3977 24.1145 10.4129 24.0776C10.428 24.0413 10.4395 24.0031 10.4474 23.9644C10.4552 23.9256 10.4595 23.8857 10.4595 23.8463C10.4595 23.807 10.4552 23.767 10.4474 23.7282Z" fill="#962689"/>
<path d="M27.8511 23.9149C27.8488 23.9089 27.8464 23.9029 27.8438 23.8969C27.2865 22.5929 25.9796 22.111 24.4328 22.6393L20.2147 23.8058C19.9708 23.0672 19.3625 22.4387 18.5023 22.1195C18.497 22.1176 18.4917 22.1156 18.4863 22.1138L13.8496 20.5401C13.4636 20.0413 12.2547 18.7648 9.99132 18.7648C8.40954 18.7648 7.01024 19.8499 6.20969 21.0327H0.605469C0.271068 21.0327 0 21.3038 0 21.6382V29.2717C0 29.6061 0.271068 29.8772 0.605469 29.8772H4.2054C4.5398 29.8772 4.81087 29.6061 4.81087 29.2717V28.749H6.4991C6.8335 28.749 7.10457 28.4779 7.10457 28.1435V27.9693C8.0887 28.0551 8.41238 28.2418 9.31623 28.763C10.0113 29.1638 11.0619 29.7696 12.9537 30.6202C12.9625 30.6241 12.9714 30.6279 12.9803 30.6314C13.3434 30.7742 14.0532 30.9986 14.9283 30.9986C15.5374 30.9986 16.2267 30.8898 16.9342 30.5691L26.2579 27.2308C26.2745 27.2248 26.2908 27.2182 26.3068 27.2108C27.1979 26.8008 28.5258 25.6454 27.8511 23.9149ZM3.59994 28.6662H1.21094V22.2436H3.59994V28.6662ZM5.89363 27.538H4.81087V22.2436H5.89363V27.538ZM25.823 26.1002L16.5035 29.437C16.4953 29.4399 16.4842 29.4442 16.4762 29.4475C16.468 29.4508 16.4599 29.4544 16.4518 29.458C15.1539 30.0546 13.9201 29.6974 13.4366 29.5094C11.6091 28.6872 10.6338 28.1247 9.92115 27.7138C8.93036 27.1425 8.45295 26.8671 7.10457 26.7558V21.8792C7.67849 20.9386 8.79147 19.9757 9.99138 19.9757C12.0491 19.9757 12.9211 21.3141 12.9553 21.3681C13.0293 21.4883 13.1429 21.579 13.2765 21.6243L18.0885 23.2575C18.857 23.5459 19.2632 24.2041 19.0765 24.8604C18.9903 25.1635 18.7913 25.4149 18.516 25.5683C18.2431 25.7203 17.9277 25.7579 17.627 25.6747L12.2024 23.9557C11.8835 23.8546 11.5433 24.0312 11.4423 24.3499C11.3413 24.6687 11.5178 25.009 11.8366 25.1101L17.2706 26.8321C17.2764 26.8339 17.2821 26.8356 17.2879 26.8373C17.5049 26.899 17.7258 26.9295 17.9453 26.9295C18.3472 26.9295 18.7447 26.8271 19.1054 26.6261C19.6633 26.3153 20.0666 25.8059 20.2412 25.1916C20.2552 25.1426 20.2675 25.0935 20.2782 25.0445L24.8243 23.7851C25.4809 23.5608 26.3427 23.48 26.7265 24.3638C27.1237 25.4014 26.0913 25.9722 25.823 26.1002Z" fill="#103742"/>
<path d="M21.74 7.96442C21.7321 7.92567 21.7206 7.88753 21.7048 7.8506C21.6897 7.81427 21.6715 7.77915 21.6491 7.74646C21.6273 7.71316 21.6019 7.68228 21.5741 7.65442C21.5462 7.62657 21.5153 7.60114 21.482 7.57935C21.4493 7.55755 21.4142 7.53878 21.3779 7.52364C21.341 7.50851 21.3028 7.4964 21.2647 7.48913C21.1866 7.47339 21.106 7.47339 21.0279 7.48913C20.9892 7.4964 20.951 7.50851 20.9147 7.52364C20.8778 7.53878 20.8427 7.55755 20.81 7.57935C20.7767 7.60114 20.7458 7.62657 20.7179 7.65442C20.6901 7.68228 20.6646 7.71316 20.6429 7.74646C20.6211 7.77915 20.6023 7.81427 20.5871 7.8506C20.572 7.88753 20.5599 7.92567 20.5526 7.96442C20.5448 8.00317 20.5405 8.04314 20.5405 8.08249C20.5405 8.12185 20.5448 8.16181 20.5526 8.20056C20.5599 8.23931 20.572 8.27745 20.5871 8.31378C20.6023 8.35071 20.6211 8.38583 20.6429 8.41853C20.6646 8.45183 20.6901 8.48271 20.7179 8.51056C20.7458 8.53841 20.7767 8.56384 20.81 8.58564C20.8427 8.60743 20.8778 8.6262 20.9147 8.64134C20.951 8.65648 20.9892 8.66798 21.0279 8.67585C21.0667 8.68372 21.1066 8.68796 21.146 8.68796C21.1854 8.68796 21.2253 8.68372 21.2647 8.67585C21.3028 8.66798 21.341 8.65648 21.3779 8.64134C21.4142 8.6262 21.4493 8.60743 21.482 8.58564C21.5153 8.56384 21.5462 8.53841 21.5741 8.51056C21.6019 8.48271 21.6273 8.45183 21.6491 8.41853C21.6715 8.38583 21.6897 8.35071 21.7048 8.31378C21.7206 8.27745 21.7321 8.23931 21.74 8.20056C21.7478 8.16181 21.7515 8.12185 21.7515 8.08249C21.7515 8.04314 21.7478 8.00317 21.74 7.96442Z" fill="#962689"/>
<path d="M30.3947 2.0519H26.7948C26.4604 2.0519 26.1893 2.32297 26.1893 2.65737V3.18013H24.5011C24.1667 3.18013 23.8956 3.4512 23.8956 3.7856V3.95985C22.9115 3.87394 22.5878 3.68733 21.684 3.16614C20.9889 2.76532 19.9384 2.15955 18.0465 1.30893C18.0377 1.30493 18.0289 1.30124 18.0198 1.29773C17.404 1.05542 15.79 0.578672 14.0662 1.35991L11.6298 2.23227L9.57608 0.178639C9.33965 -0.0577966 8.95627 -0.0577966 8.71983 0.178639L1.97745 6.92096C1.75936 7.13911 1.71752 7.51734 1.97745 7.77727L13.4987 19.2986C13.6831 19.483 14.1148 19.5387 14.355 19.2986L20.5105 13.1431C20.6706 13.1569 20.8367 13.1644 21.0088 13.1644C22.5906 13.1644 23.9899 12.0792 24.7904 10.8965H30.3947C30.7291 10.8965 31.0002 10.6255 31.0002 10.2911V2.65737C31.0002 2.32297 30.7291 2.0519 30.3947 2.0519ZM9.1479 1.46302L10.5279 2.843C10.1177 3.0967 9.64341 3.23244 9.1479 3.23244C8.65232 3.23244 8.17812 3.09676 7.76791 2.843L9.1479 1.46302ZM4.64188 8.72913L3.26189 7.34909L4.64188 5.9691C4.89557 6.37931 5.03131 6.85357 5.03131 7.34909C5.03131 7.8446 4.89563 8.31886 4.64188 8.72913ZM13.9269 18.0141L12.5472 16.6344C13.3896 16.1145 14.4642 16.1145 15.3066 16.6344L13.9269 18.0141ZM16.179 15.7621C14.841 14.7916 13.0128 14.7916 11.6749 15.7621L5.51418 9.60137C5.98699 8.95109 6.24225 8.16998 6.24225 7.34909C6.24225 6.52813 5.98705 5.74708 5.51418 5.0968L6.89567 3.71536C7.54595 4.18817 8.327 4.44344 9.14796 4.44344C9.96891 4.44344 10.75 4.18817 11.4002 3.71536L12.7098 5.02493C12.4272 5.06665 12.1517 5.15977 11.8947 5.30296C11.4607 5.54479 11.1202 5.90692 10.9082 6.34504C10.2252 6.47152 9.59292 6.80217 9.09692 7.2981C7.75126 8.64382 7.75126 10.8334 9.09698 12.1791C9.76977 12.8519 10.6536 13.1883 11.5374 13.1883C12.4212 13.1883 13.3051 12.8519 13.978 12.1791C14.4157 11.7413 14.7224 11.2033 14.876 10.617L16.9203 11.3108C16.6902 12.3769 16.9259 13.4985 17.5617 14.3794L16.179 15.7621ZM12.4978 9.80959C12.5032 9.81153 12.5085 9.81346 12.5139 9.81528L13.7246 10.2262C13.6331 10.6388 13.4263 11.0182 13.1217 11.3228C12.2481 12.1963 10.8267 12.1964 9.95329 11.3228C9.07972 10.4493 9.07972 9.02799 9.95329 8.15442C10.164 7.94359 10.4127 7.77885 10.6836 7.66714C10.7954 8.59726 11.4651 9.42633 12.4978 9.80959ZM18.4341 13.5069C18.2004 13.1261 18.0681 12.6914 18.0473 12.2478C18.3373 12.4575 18.6917 12.6629 19.1151 12.826L18.4341 13.5069ZM23.8955 10.0497C23.3217 10.9904 22.2087 11.9533 21.0088 11.9533C20.7843 11.9533 20.5739 11.9373 20.3772 11.9089C20.3764 11.9087 20.3756 11.9086 20.3748 11.9085C19.0672 11.7186 18.3639 10.9754 18.132 10.6812C18.1197 10.663 18.0671 10.5942 18.0592 10.5827C17.9887 10.4567 17.8731 10.3553 17.7256 10.3052L12.9116 8.67137C12.1434 8.38304 11.7373 7.7252 11.9234 7.06912C11.9235 7.06869 11.9237 7.06827 11.9238 7.06784C11.924 7.06736 11.9241 7.06682 11.9242 7.06633C12.0107 6.7642 12.2094 6.5136 12.4841 6.3606C12.7569 6.20856 13.0723 6.17084 13.3731 6.25422L18.7977 7.9732C19.1165 8.07438 19.4568 7.8977 19.5578 7.57892C19.6588 7.26014 19.4823 6.91987 19.1635 6.81882L14.8492 5.45167L14.8116 5.41401C14.8112 5.41364 14.8108 5.41322 14.8104 5.41286L12.5768 3.17928L14.4967 2.49183C14.5031 2.48947 14.5111 2.4865 14.5176 2.4839C14.5192 2.48323 14.5223 2.48202 14.5239 2.48136C14.5321 2.47803 14.5403 2.47452 14.5483 2.47082C15.8462 1.87431 17.0799 2.23136 17.5635 2.41942C19.391 3.24171 20.3664 3.80413 21.079 4.21506C22.0698 4.78644 22.5472 5.06175 23.8955 5.17309V10.0497ZM26.1893 9.68547H25.1065V4.39107H26.1893V9.68547ZM29.7892 9.68547H27.4002V3.26284H29.7892V9.68547Z" fill="#103742"/>
</g>
<defs>
<clipPath id="clip0">
<rect width="31" height="31" fill="white"/>
</clipPath>
</defs>
</svg>
