<svg width="50" height="20" viewBox="0 0 50 20" fill="none" xmlns="http://www.w3.org/2000/svg">
<g clip-path="url(#clip0)">
<path d="M23.6491 2.93857V7.99345H26.7392C27.4739 7.99345 28.0846 7.74345 28.5654 7.2465C29.0612 6.74955 29.3061 6.15503 29.3061 5.46601C29.3061 4.79223 29.0582 4.20686 28.5654 3.70686C28.0846 3.19467 27.4739 2.93857 26.7392 2.93857H23.6491ZM23.6491 9.77089V15.6337H21.8018V1.15808H26.6999C27.9456 1.15808 28.9977 1.57576 29.8685 2.41113C30.7544 3.2465 31.1958 4.26479 31.1958 5.46296C31.1958 6.68857 30.7544 7.71296 29.8685 8.53613C29.0129 9.3593 27.9546 9.76784 26.6999 9.76784L23.6491 9.77089Z" fill="#5F6368"/>
<path d="M33.0613 12.6002C33.0613 13.0849 33.2638 13.4904 33.675 13.8136C34.0832 14.1368 34.5609 14.2984 35.1112 14.2984C35.8882 14.2984 36.5776 14.0087 37.1884 13.4295C37.7961 12.8502 38.1015 12.1703 38.1015 11.3898C37.527 10.9295 36.7227 10.7008 35.6917 10.7008C34.9419 10.7008 34.316 10.8837 33.8141 11.2465C33.3122 11.6124 33.0613 12.0605 33.0613 12.6002ZM35.4498 5.40506C36.8165 5.40506 37.8928 5.77091 38.682 6.50567C39.4711 7.24043 39.8642 8.24652 39.8642 9.52701V15.6337H38.0984V14.2587H38.0168C37.2549 15.3898 36.239 15.9569 34.9661 15.9569C33.8837 15.9569 32.9736 15.6337 32.2449 14.9874C31.5162 14.338 31.1504 13.5331 31.1504 12.5605C31.1504 11.5362 31.5344 10.7221 32.3024 10.1154C33.0733 9.50872 34.0983 9.20384 35.3833 9.20384C36.4809 9.20384 37.3849 9.40506 38.0924 9.81055V9.38677C38.0924 8.74043 37.8384 8.19165 37.3305 7.74043C36.8195 7.28921 36.2269 7.0636 35.5436 7.0636C34.5125 7.0636 33.6962 7.50262 33.0945 8.37762L31.4739 7.34408C32.3719 6.0514 33.6962 5.40506 35.4498 5.40506Z" fill="#5F6368"/>
<path d="M50.0006 5.72803L43.8356 19.9994H41.9308L44.2196 15.0055L40.165 5.72803H42.1727L45.1024 12.8439H45.1418L47.9929 5.72803H50.0006Z" fill="#5F6368"/>
<path d="M16.1855 8.50662C16.1855 7.92125 16.1371 7.35723 16.0434 6.81454H8.25781V10.0188H12.7175C12.527 11.0645 11.9465 11.9517 11.0697 12.5463V14.6255H13.7304C15.2875 13.1774 16.1855 11.0371 16.1855 8.50662Z" fill="#962689"/>
<path d="M8.25777 16.635C10.4861 16.635 12.3637 15.8972 13.7303 14.6259L11.0696 12.5466C10.3289 13.0496 9.37344 13.3423 8.25777 13.3423C6.10502 13.3423 4.27579 11.8789 3.62271 9.90939H0.880371V12.0527C2.23793 14.7691 5.03167 16.635 8.25777 16.635Z" fill="#962689"/>
<path d="M3.62267 9.90926C3.45637 9.40621 3.36265 8.86962 3.36265 8.31779C3.36265 7.76596 3.45335 7.22938 3.62267 6.72633V4.58304H0.880333C0.317958 5.70499 0.000488281 6.97328 0.000488281 8.31779C0.000488281 9.66231 0.317958 10.9306 0.880333 12.0525L3.62267 9.90926Z" fill="#962689"/>
<path d="M8.25777 3.29338C9.47322 3.29338 10.5647 3.71411 11.4264 4.54033L13.7817 2.16533C12.3516 0.82387 10.4831 -0.00234985 8.25777 -0.00234985C5.03167 -0.00234985 2.23793 1.8635 0.880371 4.57997L3.62271 6.72326C4.27579 4.75375 6.10502 3.29338 8.25777 3.29338Z" fill="#962689"/>
</g>
<defs>
<clipPath id="clip0">
<rect width="50" height="20" fill="white"/>
</clipPath>
</defs>
</svg>
