<svg id="Layer_1" data-name="Layer 1" xmlns="http://www.w3.org/2000/svg" viewBox="0 0 1080 488.7"><defs><style>.cls-1{fill:#932a85;}.cls-2{fill:#103843;}</style></defs><path class="cls-1" d="M540.3,13.1C435.1,11.3,385.6,130.7,438.1,201.9l2.4,3.2c11.4,16.7,56.6,54.7,107.4,102.8,36.5-42.3,77.8-83.7,92.8-103.2C694.1,134.4,648.4,13,540.3,13.1Zm-4.4,210.5-.3,6.2-2.3-5.8c-2.2-5.5-6.5-12-11.7-17.8,4.7,5.4,8.7,11.6,10.6,18.1l.4,1.6-1.6.2c-25.8,2.6-45.5-18.1-58.6-61.6l-1.2-4,3.4,2.5a62.3,62.3,0,0,0,19.1,10.5,73.4,73.4,0,0,1,14.9,6.6C527.7,191.3,536.8,205.9,535.9,223.6Zm6.5,1.3a2.4,2.4,0,1,1-4.8,0v-51a2.4,2.4,0,1,1,4.8,0Zm-1.5-55.1h-.1a18,18,0,0,1-6.9-1.3c-16-6.2-29.9-18.9-37.1-34.2s-7.1-31.1-.3-46.7l.7-1.6,1.8.2a71.1,71.1,0,0,1,19.5,5.4c5.6-14.6,12-23.7,20.2-28.4l1.3-.8,1.3.9c8.4,6.2,14.7,15.3,19.9,28.5a156.6,156.6,0,0,1,19.3-5.6l1.7-.3.9,1.5c6.9,11.8,7,27.8.2,44-7.7,18.3-22.7,32.6-39.6,38A9,9,0,0,1,540.9,169.8Zm66.7-5.3c-13.1,43.5-32.8,64.2-58.6,61.6l-1.6-.2.5-1.6c1.8-6.5,5.8-12.7,10.5-18.1-5.2,5.8-9.5,12.3-11.7,17.8l-2.3,5.8-.3-6.2c-1-17.7,8.2-32.3,27.3-43.5a73.4,73.4,0,0,1,14.9-6.6A62.3,62.3,0,0,0,605.4,163l3.4-2.5Z"/><path class="cls-2" d="M37.8,473.9a4,4,0,0,1-2.9-1.2,4.1,4.1,0,0,1-1.1-2.8V359.5a4.4,4.4,0,0,1,1.1-3,4,4,0,0,1,2.9-1.2h73.6a4.1,4.1,0,0,1,4.2,4.2v11.9a4.1,4.1,0,0,1-1.2,3,4.4,4.4,0,0,1-3,1.1H57v32.2h51a4.4,4.4,0,0,1,3,1.1,4.3,4.3,0,0,1,1.2,3.1v11.9a3.6,3.6,0,0,1-1.2,2.8,4.1,4.1,0,0,1-3,1.2H57v42.1a3.8,3.8,0,0,1-1.2,2.8,4.1,4.1,0,0,1-3.1,1.2Z"/><path class="cls-2" d="M137.8,473.9a4,4,0,0,1-2.9-1.2,3.8,3.8,0,0,1-1.2-2.8V357.7a3.8,3.8,0,0,1,1.2-2.9,4,4,0,0,1,2.9-1.2h14.1a3.6,3.6,0,0,1,2.8,1.2,3.8,3.8,0,0,1,1.2,2.9V469.9a3.8,3.8,0,0,1-1.2,2.8,3.6,3.6,0,0,1-2.8,1.2Z"/><path class="cls-2" d="M217.4,475.6c-9,0-16.6-1.6-22.7-4.7a33.2,33.2,0,0,1-14.1-13.4,46.2,46.2,0,0,1-5.5-20.2c-.1-2-.2-4.5-.2-7.4s.1-5.5.2-7.5a43,43,0,0,1,5.7-20.2A33.2,33.2,0,0,1,195,388.9c6.2-3.2,13.6-4.8,22.4-4.8s16.3,1.6,22.5,4.8a33.2,33.2,0,0,1,14.2,13.3,43,43,0,0,1,5.7,20.2c.1,2,.2,4.5.2,7.5s-.1,5.4-.2,7.4a46.2,46.2,0,0,1-5.5,20.2,33.2,33.2,0,0,1-14.1,13.4C234.1,474,226.5,475.6,217.4,475.6Zm0-16.8c6,0,10.7-1.9,13.9-5.6s5.1-9.4,5.5-16.7c.1-1.7.1-3.9.1-6.6s0-5-.1-6.6c-.4-7.4-2.2-13-5.5-16.7s-7.9-5.7-13.9-5.7-10.6,1.9-13.8,5.7-5.1,9.3-5.5,16.7c-.1,1.6-.1,3.8-.1,6.6s0,4.9.1,6.6c.4,7.3,2.2,12.9,5.5,16.7S211.5,458.8,217.4,458.8Z"/><path class="cls-2" d="M300.3,473.9a4.5,4.5,0,0,1-3.5-1.2,11.4,11.4,0,0,1-2.1-3l-24.2-78.6a10,10,0,0,1-.2-1.6,3.6,3.6,0,0,1,1.1-2.6,3.8,3.8,0,0,1,2.5-1.1h12.5a4.6,4.6,0,0,1,3.2,1.1A3.7,3.7,0,0,1,291,389l16.6,56.1,17.6-55.6a6.3,6.3,0,0,1,1.5-2.4,4.5,4.5,0,0,1,3.6-1.3h8.5a4.3,4.3,0,0,1,3.5,1.3,6.7,6.7,0,0,1,1.6,2.4l17.6,55.6L378.1,389a3.5,3.5,0,0,1,1.3-2.1,4.2,4.2,0,0,1,3.1-1.1H395a3.9,3.9,0,0,1,2.7,1.1,3.6,3.6,0,0,1,1.1,2.6,5.3,5.3,0,0,1-.4,1.6l-24.2,78.6a5.8,5.8,0,0,1-1.8,3,5.1,5.1,0,0,1-3.6,1.2h-11a5.7,5.7,0,0,1-3.7-1.2,6,6,0,0,1-1.9-3l-17.7-53.6-17.6,53.6a7.7,7.7,0,0,1-1.9,3,5.6,5.6,0,0,1-3.8,1.2Z"/><path class="cls-2" d="M450.6,475.6c-12.5,0-22.5-3.6-29.8-10.8s-11.3-17.5-11.9-30.9c-.1-1.1-.1-2.5-.1-4.3s0-3.1.1-4.1c.5-8.6,2.4-16,5.9-22.2a35.5,35.5,0,0,1,14.3-14.2,44.6,44.6,0,0,1,21.5-5c9.2,0,16.8,1.9,23.1,5.7a35.6,35.6,0,0,1,14,15.7,53.9,53.9,0,0,1,4.8,23.3v3.6a4,4,0,0,1-1.2,2.9,4.1,4.1,0,0,1-3.1,1.2H432v1.3a28.5,28.5,0,0,0,2.3,11,19.1,19.1,0,0,0,6.2,8,16.7,16.7,0,0,0,9.9,3.1,18.7,18.7,0,0,0,8-1.5,17.1,17.1,0,0,0,5.3-3.3,22.4,22.4,0,0,0,2.8-3,9.3,9.3,0,0,1,2.5-2.5,6.9,6.9,0,0,1,2.8-.4h14.6a4,4,0,0,1,2.8,1,2.9,2.9,0,0,1,.9,2.5c-.1,1.8-1,4-2.8,6.6a36,36,0,0,1-7.5,7.7,44.2,44.2,0,0,1-12.3,6.2A54.7,54.7,0,0,1,450.6,475.6ZM432,422.2h37.4v-.5a28.2,28.2,0,0,0-2.2-11.6,17.6,17.6,0,0,0-6.4-7.8,18.5,18.5,0,0,0-10.2-2.8,19,19,0,0,0-10.2,2.8,17.4,17.4,0,0,0-6.3,7.8,30,30,0,0,0-2.1,11.6Z"/><path class="cls-2" d="M514.5,473.9a4,4,0,0,1-2.9-1.2,3.8,3.8,0,0,1-1.2-2.8V390a4.1,4.1,0,0,1,1.2-3,4,4,0,0,1,2.9-1.2h13.7a4.2,4.2,0,0,1,3,1.2,4.2,4.2,0,0,1,1.3,3v7a25.3,25.3,0,0,1,10-8.3,34.3,34.3,0,0,1,14.4-2.9h6.9a3.9,3.9,0,0,1,3,1.2,4.2,4.2,0,0,1,1.1,2.9v12.2a3.9,3.9,0,0,1-4.1,4H550.6q-8.1,0-12.6,4.5c-3,3-4.5,7.2-4.5,12.7v46.6a3.8,3.8,0,0,1-1.2,2.8,4.1,4.1,0,0,1-3.1,1.2Z"/><path class="cls-2" d="M622.4,473.9a3.6,3.6,0,0,1-2.8-1.2,3.8,3.8,0,0,1-1.2-2.8V359.5a4.1,4.1,0,0,1,1.2-3,3.6,3.6,0,0,1,2.8-1.2h45.5c8.8,0,16.4,1.4,23,4.2A32.4,32.4,0,0,1,706.1,372c3.7,5.6,5.5,12.6,5.5,20.9s-1.8,15.5-5.5,20.9a32.6,32.6,0,0,1-15.2,12.3,60.2,60.2,0,0,1-23,4.1H642.6v39.7a4.1,4.1,0,0,1-1.1,2.8,3.8,3.8,0,0,1-3,1.2Zm19.9-62.5H667c6.6,0,11.6-1.6,15.1-4.7s5.2-7.7,5.2-13.8-1.6-10.2-4.9-13.6-8.4-5.2-15.4-5.2H642.3Z"/><path class="cls-2" d="M732.2,473.9a4.1,4.1,0,0,1-4-4V357.7a3.8,3.8,0,0,1,1.2-2.9,3.8,3.8,0,0,1,2.8-1.2h14.1a4,4,0,0,1,2.9,1.2,3.8,3.8,0,0,1,1.2,2.9V469.9a3.8,3.8,0,0,1-1.2,2.8,4,4,0,0,1-2.9,1.2Z"/><path class="cls-2" d="M798.5,475.6a34.4,34.4,0,0,1-15.9-3.5,28.9,28.9,0,0,1-11.3-9.3,21.9,21.9,0,0,1-4.1-13.1,22.3,22.3,0,0,1,9.6-18.9c6.4-4.7,14.9-7.8,25.3-9.4l23.2-3.4v-3.6c0-4.7-1.2-8.4-3.6-11s-6.4-3.9-12.2-3.9c-4.1,0-7.4.8-9.9,2.5a15.6,15.6,0,0,0-5.7,6.5,4.3,4.3,0,0,1-3.9,2.2H776.6a3.7,3.7,0,0,1-2.8-1,4,4,0,0,1-.9-2.7,16.8,16.8,0,0,1,2.3-6.6,29.1,29.1,0,0,1,6.4-7.6,38.8,38.8,0,0,1,11.3-6.2,51.3,51.3,0,0,1,16.8-2.5,55.2,55.2,0,0,1,18,2.6c4.9,1.8,8.9,4.1,11.8,7.1a25.6,25.6,0,0,1,6.4,10.3,37.3,37.3,0,0,1,2.1,12.5v53.3a3.8,3.8,0,0,1-1.2,2.8,4,4,0,0,1-2.9,1.2H830.2a3.9,3.9,0,0,1-3-1.2,4.1,4.1,0,0,1-1.1-2.8v-6.7a25.6,25.6,0,0,1-5.9,6,31.1,31.1,0,0,1-9.1,4.6A39,39,0,0,1,798.5,475.6Zm5.8-16.1A22.5,22.5,0,0,0,815,457a17.6,17.6,0,0,0,7.6-7.9c1.9-3.6,2.8-8.1,2.8-13.5v-3.5l-16.9,2.7c-6.7,1-11.6,2.6-14.9,4.9s-4.9,5-4.9,8.3a8.8,8.8,0,0,0,2.3,6.3,12.5,12.5,0,0,0,5.8,3.9A21.1,21.1,0,0,0,804.3,459.5Z"/><path class="cls-2" d="M907.8,475.6c-8.1,0-15.3-1.5-21.4-4.6A32.5,32.5,0,0,1,872,457.7c-3.5-5.8-5.4-12.8-5.7-21.1-.1-1.7-.2-3.9-.2-6.7s.1-5,.2-6.8c.3-8.3,2.2-15.3,5.7-21.1a33.1,33.1,0,0,1,14.4-13.3c6.1-3.1,13.3-4.6,21.4-4.6a50.9,50.9,0,0,1,18.5,3,38.3,38.3,0,0,1,12.5,7.6,34.3,34.3,0,0,1,7.4,9.7,23,23,0,0,1,2.6,9,3.2,3.2,0,0,1-1.1,3,4.4,4.4,0,0,1-3,1.1H929.8a3.6,3.6,0,0,1-2.6-.9,9,9,0,0,1-1.8-2.5c-1.7-4.5-3.9-7.7-6.7-9.6a18.9,18.9,0,0,0-10.6-2.8c-5.6,0-10.1,1.8-13.4,5.4s-5.1,9.1-5.4,16.8a117.9,117.9,0,0,0,0,11.9c.3,7.8,2,13.4,5.4,16.9s7.8,5.3,13.4,5.3,8-.9,10.7-2.8,4.9-5.1,6.6-9.6a9,9,0,0,1,1.8-2.5,3.6,3.6,0,0,1,2.6-.9h14.9a4.4,4.4,0,0,1,3,1.1,3.4,3.4,0,0,1,1.1,3,22.5,22.5,0,0,1-1.6,6.9,32.4,32.4,0,0,1-4.6,7.8,36.9,36.9,0,0,1-7.9,7.2,40.2,40.2,0,0,1-11.4,5.4A55.5,55.5,0,0,1,907.8,475.6Z"/><path class="cls-2" d="M1004.4,475.6c-12.6,0-22.5-3.6-29.8-10.8s-11.3-17.5-11.9-30.9c-.1-1.1-.2-2.5-.2-4.3s.1-3.1.2-4.1a50.5,50.5,0,0,1,5.8-22.2,36.4,36.4,0,0,1,14.4-14.2c6.1-3.3,13.2-5,21.5-5s16.8,1.9,23,5.7a36.4,36.4,0,0,1,14.1,15.7c3.2,6.8,4.7,14.5,4.7,23.3v3.6a4.4,4.4,0,0,1-1.1,2.9,4.3,4.3,0,0,1-3.1,1.2H985.7v1.3a32.7,32.7,0,0,0,2.3,11,18.5,18.5,0,0,0,6.3,8,16.7,16.7,0,0,0,9.9,3.1,19,19,0,0,0,8-1.5,16.6,16.6,0,0,0,5.2-3.3,24.8,24.8,0,0,0,2.9-3,7.2,7.2,0,0,1,2.5-2.5,6.6,6.6,0,0,1,2.8-.4h14.5a3.7,3.7,0,0,1,2.8,1,2.7,2.7,0,0,1,1,2.5c-.1,1.8-1.1,4-2.8,6.6a34.3,34.3,0,0,1-7.6,7.7,41.6,41.6,0,0,1-12.3,6.2A54.1,54.1,0,0,1,1004.4,475.6Zm-18.7-53.4h37.5v-.5a28.2,28.2,0,0,0-2.2-11.6,18.3,18.3,0,0,0-6.4-7.8,19,19,0,0,0-10.2-2.8,18.5,18.5,0,0,0-10.2,2.8,17.4,17.4,0,0,0-6.3,7.8,28.2,28.2,0,0,0-2.2,11.6Z"/></svg>