<svg width="54" height="54" viewBox="0 0 54 54" fill="none" xmlns="http://www.w3.org/2000/svg">
<path d="M47.2853 28.3021H46.0712C45.0339 25.3348 42.9918 22.8236 40.2982 21.2032V16.4803C40.2982 16.2845 40.2205 16.0967 40.082 15.9582C39.9436 15.8198 39.7558 15.742 39.56 15.742C38.3288 15.7422 37.1179 16.0559 36.0415 16.6537C36.3681 15.3714 36.4181 14.0343 36.1884 12.7311C35.9586 11.428 35.4543 10.1887 34.7089 9.09536C33.9635 8.00205 32.9941 7.0798 31.865 6.38982C30.7359 5.69985 29.473 5.25793 28.16 5.0934C26.847 4.92887 25.5141 5.0455 24.2497 5.43555C22.9852 5.82559 21.8182 6.48013 20.8261 7.35571C19.834 8.23129 19.0395 9.30788 18.4953 10.514C17.9511 11.7202 17.6697 13.0283 17.6697 14.3515C17.6679 16.3543 18.3119 18.3044 19.5061 19.9122C17.2205 20.612 15.1668 21.9173 13.563 23.6898C11.9592 25.4623 10.865 27.6358 10.3966 29.9799C10.3451 29.9301 10.2958 29.8794 10.2405 29.8314C10.286 28.8821 9.99599 27.9472 9.42121 27.1904C8.9743 26.5466 8.37496 26.0234 7.67667 25.6676C6.97838 25.3117 6.20286 25.1343 5.41931 25.1511C5.22729 25.1713 5.05083 25.2659 4.92775 25.4147C4.80467 25.5634 4.74477 25.7545 4.76088 25.9469C4.77699 26.1393 4.86784 26.3177 5.01394 26.444C5.16005 26.5702 5.34979 26.6342 5.54249 26.6221C6.07565 26.6282 6.59938 26.7635 7.06881 27.0163C7.53824 27.2691 7.93938 27.632 8.23785 28.0738C8.46053 28.366 8.62039 28.7011 8.7074 29.0581C8.42433 29.0095 8.13526 29.0071 7.85142 29.0509C6.46682 29.2618 6.01331 30.1752 6.04537 30.8945C6.0657 31.3294 6.24407 31.742 6.547 32.0548C6.84992 32.3676 7.25659 32.5591 7.69068 32.5934C7.73287 32.5959 7.77506 32.5972 7.81724 32.5972C8.20891 32.5863 8.59115 32.4746 8.92703 32.2728C9.26292 32.0711 9.54109 31.7861 9.73467 31.4454C9.88627 31.6404 10.0228 31.8466 10.143 32.0622C10.1346 32.2554 10.1305 32.4495 10.1308 32.6444C10.1337 34.7641 10.6406 36.8527 11.6098 38.7379C12.5789 40.6231 13.9825 42.2507 15.7046 43.4866C16.4931 44.0652 17.1327 44.8229 17.5709 45.6972C18.0091 46.5715 18.2333 47.5374 18.2249 48.5154C18.2249 48.7112 18.3027 48.8989 18.4411 49.0374C18.5796 49.1758 18.7674 49.2536 18.9632 49.2536H25.7258C25.9216 49.2536 26.1094 49.1758 26.2479 49.0374C26.3863 48.8989 26.4641 48.7112 26.4641 48.5154V45.9773H30.4643V48.5154C30.4643 48.7112 30.5421 48.8989 30.6806 49.0374C30.819 49.1758 31.0068 49.2536 31.2026 49.2536H37.964C38.1606 49.252 38.3486 49.1726 38.4869 49.0329C38.6252 48.8931 38.7026 48.7044 38.7023 48.5078C38.7136 47.5053 38.9596 46.5194 39.4205 45.6291C39.8815 44.7389 40.5446 43.969 41.3567 43.3811C43.5375 41.7749 45.1811 39.5461 46.0712 36.988H47.2853C47.8072 36.9875 48.3076 36.7799 48.6766 36.4109C49.0457 36.0418 49.2533 35.5415 49.2538 35.0196V30.2705C49.2533 29.7486 49.0457 29.2483 48.6766 28.8792C48.3076 28.5102 47.8072 28.3026 47.2853 28.3021ZM8.53865 30.5684C8.47808 30.7228 8.37468 30.8567 8.24061 30.9544C8.10654 31.0521 7.94737 31.1094 7.78181 31.1198C7.71237 31.1065 7.64919 31.0709 7.60195 31.0183C7.55471 30.9657 7.52601 30.8991 7.52024 30.8287C7.51054 30.6076 7.97882 30.5253 8.0729 30.511C8.12986 30.5023 8.1874 30.4979 8.24503 30.4979C8.3495 30.4985 8.45346 30.5126 8.55426 30.5401C8.5492 30.5494 8.54414 30.5591 8.53865 30.5684ZM26.9999 6.4966C28.4222 6.49857 29.8174 6.8862 31.0369 7.61822C32.2564 8.35025 33.2546 9.39927 33.9251 10.6536C34.5957 11.9079 34.9136 13.3206 34.8449 14.7413C34.7762 16.162 34.3236 17.5375 33.5352 18.7213C33.3304 18.9603 33.139 19.2104 32.9618 19.4705C32.1752 20.3834 31.189 21.103 30.0796 21.5736C29.1665 21.3989 28.2406 21.3001 27.3112 21.2783C27.4389 21.2194 27.5471 21.1252 27.6229 21.0069C27.6988 20.8886 27.7392 20.751 27.7394 20.6104V19.6203C28.3995 19.4563 28.9858 19.0761 29.4048 18.5403C29.8237 18.0045 30.0514 17.344 30.0514 16.6638C30.0514 15.9836 29.8237 15.323 29.4048 14.7872C28.9858 14.2514 28.3995 13.8713 27.7394 13.7073V10.6538C27.9929 10.7859 28.2055 10.9848 28.3542 11.229C28.5029 11.4732 28.5821 11.7533 28.5832 12.0392C28.5832 12.235 28.661 12.4228 28.7994 12.5612C28.9379 12.6997 29.1257 12.7775 29.3215 12.7775C29.5173 12.7775 29.7051 12.6997 29.8435 12.5612C29.982 12.4228 30.0598 12.235 30.0598 12.0392C30.0585 11.3579 29.8294 10.6966 29.4089 10.1606C28.9885 9.62454 28.4008 9.24452 27.7394 9.08101V8.09382C27.7394 7.89802 27.6617 7.71023 27.5232 7.57178C27.3848 7.43332 27.197 7.35554 27.0012 7.35554C26.8054 7.35554 26.6176 7.43332 26.4791 7.57178C26.3407 7.71023 26.2629 7.89802 26.2629 8.09382V9.08438C25.6042 9.24942 25.0196 9.6298 24.6019 10.1651C24.1841 10.7004 23.9573 11.36 23.9573 12.039C23.9573 12.718 24.1841 13.3775 24.6019 13.9129C25.0196 14.4482 25.6042 14.8286 26.2629 14.9936V18.0454C26.0112 17.9127 25.8003 17.714 25.6529 17.4706C25.5055 17.2272 25.427 16.9483 25.4259 16.6638C25.4259 16.468 25.3481 16.2802 25.2096 16.1417C25.0712 16.0033 24.8834 15.9255 24.6876 15.9255C24.4918 15.9255 24.304 16.0033 24.1656 16.1417C24.0271 16.2802 23.9493 16.468 23.9493 16.6638C23.9505 17.3437 24.1786 18.0038 24.5975 18.5393C25.0164 19.0749 25.602 19.4553 26.2616 19.6203V20.6087C26.2619 20.7474 26.3013 20.8831 26.3752 21.0003C26.4492 21.1176 26.5547 21.2116 26.6797 21.2715C25.7192 21.2765 24.7609 21.362 23.8147 21.5272C22.1687 20.7977 20.8233 19.5247 20.004 17.9215C19.1848 16.3182 18.9414 14.4821 19.3146 12.7208C19.6879 10.9594 20.6551 9.37987 22.0542 8.24673C23.4534 7.11358 25.1995 6.4957 26.9999 6.4966ZM28.5739 16.6638C28.5729 16.9482 28.4946 17.227 28.3474 17.4704C28.2002 17.7137 27.9896 17.9125 27.7382 18.0454V15.2821C27.9897 15.415 28.2003 15.6138 28.3475 15.8572C28.4947 16.1005 28.573 16.3794 28.5739 16.6638ZM26.2616 13.4154C26.0117 13.2823 25.8027 13.0838 25.657 12.8411C25.5112 12.5984 25.4342 12.3206 25.4342 12.0375C25.4342 11.7544 25.5112 11.4766 25.657 11.2339C25.8027 10.9912 26.0117 10.7927 26.2616 10.6597V13.4154ZM47.7772 35.0179C47.7771 35.1483 47.7253 35.2734 47.633 35.3656C47.5408 35.4578 47.4158 35.5097 47.2853 35.5098H45.5337C45.3747 35.5099 45.22 35.5612 45.0926 35.6562C44.9651 35.7512 44.8717 35.8848 44.8262 36.0371C44.081 38.5038 42.5564 40.6626 40.4809 42.1898C39.5834 42.8438 38.833 43.6789 38.2783 44.641C37.7235 45.6031 37.3768 46.6709 37.2603 47.7754H31.9409V45.2374C31.9409 45.0416 31.8631 44.8538 31.7247 44.7153C31.5862 44.5769 31.3984 44.4991 31.2026 44.4991H25.7258C25.5301 44.4992 25.3424 44.577 25.2039 44.7155C25.0655 44.8539 24.9877 45.0416 24.9876 45.2374V47.7754H19.6681C19.5732 46.6914 19.2471 45.6404 18.7118 44.693C18.1765 43.7457 17.4444 42.924 16.5648 42.2834C14.7232 40.9663 13.2973 39.1493 12.456 37.0473C11.6147 34.9452 11.3931 32.6462 11.8174 30.4222C12.2417 28.1981 13.2942 26.1422 14.8504 24.4976C16.4065 22.853 18.4012 21.6885 20.5984 21.142C20.9558 21.4773 21.3393 21.7838 21.745 22.0587C20.9139 22.3336 20.134 22.7444 19.4374 23.2746C19.3616 23.3351 19.2985 23.4099 19.2517 23.4948C19.2048 23.5797 19.1752 23.6729 19.1644 23.7693C19.1536 23.8657 19.1619 23.9632 19.1888 24.0563C19.2157 24.1495 19.2606 24.2364 19.3211 24.3122C19.4433 24.4652 19.6213 24.5634 19.8159 24.5852C19.9122 24.596 20.0098 24.5877 20.1029 24.5608C20.196 24.5339 20.283 24.4889 20.3587 24.4284C21.6598 23.3893 24.1341 22.7443 26.8168 22.7443C29.4995 22.7443 31.973 23.3889 33.2715 24.4271C33.3473 24.4876 33.4342 24.5326 33.5273 24.5595C33.6205 24.5864 33.718 24.5947 33.8144 24.5839C33.9107 24.5731 34.004 24.5435 34.0889 24.4966C34.1738 24.4498 34.2486 24.3867 34.3091 24.3109C34.3696 24.2351 34.4146 24.1482 34.4415 24.0551C34.4684 23.9619 34.4767 23.8644 34.4659 23.768C34.4551 23.6717 34.4254 23.5784 34.3786 23.4935C34.3317 23.4086 34.2686 23.3338 34.1929 23.2733C33.566 22.7934 32.8687 22.4131 32.1257 22.1461C32.7766 21.7223 33.3719 21.2186 33.8976 20.6467C33.9789 20.5886 34.0474 20.5143 34.0988 20.4286C34.0988 20.4261 34.1182 20.3982 34.1431 20.3603C34.3355 20.1324 34.5194 19.8962 34.6882 19.6532C35.7321 18.3834 37.201 17.5351 38.8225 17.2654V21.6293C38.8224 21.7609 38.8576 21.8903 38.9243 22.0038C38.9911 22.1173 39.0871 22.2108 39.2022 22.2747C41.9098 23.7839 43.926 26.285 44.8262 29.2513C44.8716 29.4037 44.965 29.5373 45.0925 29.6324C45.2199 29.7274 45.3747 29.7787 45.5337 29.7786H47.2853C47.4158 29.7787 47.5408 29.8306 47.633 29.9228C47.7253 30.015 47.7771 30.1401 47.7772 30.2705V35.0179Z" fill="#103742"/>
<path d="M40.2326 27.9131C40.1357 27.913 40.0396 27.9321 39.95 27.9692C39.8604 28.0063 39.779 28.0606 39.7105 28.1292C39.6419 28.1978 39.5875 28.2792 39.5504 28.3688C39.5134 28.4584 39.4943 28.5544 39.4944 28.6514C39.4944 28.9136 39.3902 29.1652 39.2047 29.3506C39.0193 29.5361 38.7677 29.6402 38.5055 29.6402C38.2432 29.6402 37.9917 29.5361 37.8062 29.3506C37.6208 29.1652 37.5166 28.9136 37.5166 28.6514C37.5166 28.4556 37.4388 28.2678 37.3004 28.1293C37.1619 27.9909 36.9741 27.9131 36.7783 27.9131C36.5825 27.9131 36.3947 27.9909 36.2563 28.1293C36.1178 28.2678 36.04 28.4556 36.04 28.6514C36.04 29.3052 36.2998 29.9323 36.7621 30.3947C37.2245 30.8571 37.8516 31.1168 38.5055 31.1168C39.1594 31.1168 39.7864 30.8571 40.2488 30.3947C40.7112 29.9323 40.9709 29.3052 40.9709 28.6514C40.971 28.5544 40.9519 28.4584 40.9148 28.3688C40.8777 28.2792 40.8234 28.1978 40.7548 28.1292C40.6862 28.0606 40.6048 28.0063 40.5152 27.9692C40.4256 27.9321 40.3296 27.913 40.2326 27.9131Z" fill="#103742"/>
</svg>
