<svg width="54" height="54" viewBox="0 0 54 54" fill="none" xmlns="http://www.w3.org/2000/svg">
<path d="M44.3618 16.397C44.0793 15.9658 43.9417 15.4558 43.9688 14.941L44.0923 12.6971C44.1314 11.9851 43.9623 11.2772 43.6056 10.6598C43.249 10.0423 42.7202 9.54218 42.0839 9.2204L40.0979 8.2156C39.6395 7.98484 39.2677 7.61253 39.0376 7.15385L38.0345 5.16524C37.7136 4.52885 37.2142 3.99979 36.5973 3.64277C35.9805 3.28575 35.273 3.11625 34.5613 3.155L32.3212 3.27851C31.8074 3.30528 31.2986 3.16714 30.869 2.88426L29.0162 1.66083C28.4179 1.26516 27.7164 1.0542 26.9991 1.0542C26.2818 1.0542 25.5803 1.26516 24.982 1.66083L23.1291 2.88426C22.6998 3.16722 22.1912 3.30527 21.6778 3.27819L19.4367 3.15479C18.725 3.11559 18.0174 3.28487 17.4005 3.64188C16.7836 3.99889 16.2843 4.52812 15.9637 5.16471L14.9605 7.15353C14.7305 7.61218 14.3588 7.98452 13.9006 8.21539L11.9144 9.22019C11.2785 9.54237 10.7501 10.0427 10.3938 10.6601C10.0375 11.2776 9.86859 11.9854 9.90778 12.6972L10.0313 14.9409C10.0584 15.4557 9.92076 15.9658 9.63831 16.397L8.41624 18.2529C8.02114 18.8524 7.81055 19.5546 7.81055 20.2726C7.81055 20.9906 8.02114 21.6928 8.41624 22.2923L9.63778 24.1478C9.92013 24.5789 10.0578 25.0887 10.0308 25.6033L9.90725 27.8475C9.86815 28.5593 10.0371 29.2671 10.3935 29.8845C10.7499 30.502 11.2784 31.0023 11.9143 31.3244L13.9002 32.3288C14.3585 32.5596 14.7303 32.9319 14.9605 33.3906L15.9636 35.3795C16.0049 35.4615 16.0489 35.5413 16.0956 35.619L9.71709 45.7725C9.65485 45.8716 9.62129 45.986 9.62015 46.1029C9.619 46.2199 9.65031 46.3349 9.71059 46.4352C9.77088 46.5355 9.85778 46.6171 9.96165 46.6709C10.0655 46.7248 10.1823 46.7488 10.299 46.7403L17.0519 46.2474L19.5391 52.5448C19.582 52.6536 19.6543 52.7484 19.7479 52.8186C19.8415 52.8888 19.9528 52.9317 20.0693 52.9425C20.0889 52.9442 20.1084 52.9451 20.1278 52.9451C20.2349 52.9451 20.3402 52.9179 20.4338 52.8661C20.5275 52.8143 20.6065 52.7395 20.6635 52.6489L26.9998 42.5633L33.3362 52.6493C33.3931 52.7399 33.4721 52.8147 33.5658 52.8665C33.6595 52.9183 33.7648 52.9455 33.8719 52.9455C33.8913 52.9455 33.9108 52.9446 33.9304 52.9429C34.0469 52.9321 34.1581 52.8892 34.2517 52.819C34.3453 52.7488 34.4176 52.654 34.4606 52.5452L36.9477 46.2474L43.7007 46.7403C43.8174 46.7488 43.9342 46.7248 44.038 46.6709C44.1419 46.6171 44.2288 46.5355 44.2891 46.4352C44.3494 46.3349 44.3807 46.2199 44.3795 46.1029C44.3784 45.986 44.3448 45.8716 44.2826 45.7725L37.904 35.6192C37.9508 35.5415 37.9948 35.4617 38.036 35.3799L39.0392 33.3908C39.2692 32.9322 39.6408 32.5599 40.0991 32.3291L42.0858 31.3244C42.7217 31.0022 43.25 30.5019 43.6063 29.8845C43.9626 29.267 44.1315 28.5592 44.0923 27.8475L43.9688 25.6034C43.9418 25.0888 44.0794 24.579 44.3618 24.1479L45.5834 22.2918C45.9785 21.6923 46.1891 20.99 46.1891 20.2721C46.1891 19.5541 45.9785 18.8518 45.5834 18.2523L44.3618 16.397ZM20.257 50.9174L18.0582 45.35C18.0087 45.2246 17.9204 45.1183 17.8063 45.0466C17.6921 44.9749 17.558 44.9415 17.4236 44.9513L11.4541 45.387L16.9684 36.6093C17.6689 37.1612 18.5466 37.4387 19.437 37.3897L21.677 37.266C22.1907 37.2394 22.6995 37.3776 23.1292 37.6603L24.4801 38.5522L26.2526 41.3737L20.257 50.9174ZM42.5459 45.387L36.5764 44.951C36.4419 44.9412 36.3079 44.9746 36.1937 45.0463C36.0796 45.118 35.9913 45.2243 35.9418 45.3497L33.7427 50.9174L26.5454 39.4609C27.4122 39.5739 28.2905 39.3688 29.0178 38.8838L30.8709 37.6604C31.3003 37.3779 31.8087 37.2398 32.322 37.2663L34.563 37.3901C35.4534 37.4391 36.3311 37.1616 37.0315 36.6096L42.5459 45.387ZM44.5264 21.5961L43.3049 23.4516C42.874 24.1095 42.6639 24.8876 42.7053 25.6729L42.8288 27.9171C42.8545 28.3834 42.7439 28.8471 42.5105 29.2517C42.2771 29.6562 41.9309 29.9841 41.5143 30.1952L39.5282 31.1998C38.8284 31.5521 38.2607 32.1205 37.9094 32.8208L36.9061 34.8103C36.6964 35.2271 36.3696 35.5737 35.9658 35.8074C35.5619 36.0412 35.0986 36.1519 34.6327 36.126L32.3913 36.0024C31.6067 35.9615 30.8296 36.1724 30.1734 36.6043L28.3204 37.8278C27.9288 38.087 27.4696 38.2252 27 38.2252C26.5304 38.2252 26.0711 38.087 25.6796 37.8278L23.827 36.6043C23.2257 36.2087 22.5218 35.9976 21.802 35.997C21.7374 35.997 21.6725 35.9987 21.6078 36.0023L19.3673 36.1259C18.9013 36.1517 18.438 36.0409 18.0341 35.8071C17.6302 35.5733 17.3033 35.2267 17.0936 34.8099L16.0904 32.8207C15.739 32.1204 15.1713 31.5519 14.4714 31.1996L12.4859 30.1959C12.0692 29.9848 11.723 29.657 11.4896 29.2525C11.2561 28.8479 11.1454 28.3842 11.1711 27.9178L11.2946 25.6736C11.3359 24.8883 11.1259 24.1102 10.695 23.4524L9.47346 21.5962C9.21467 21.2033 9.07674 20.7431 9.07674 20.2726C9.07674 19.8021 9.21467 19.3419 9.47346 18.9489L10.695 17.0932C11.126 16.4352 11.3361 15.6569 11.2946 14.8713L11.1711 12.6274C11.1454 12.161 11.256 11.6973 11.4894 11.2927C11.7228 10.8882 12.0689 10.5604 12.4855 10.3492L14.4717 9.34475C15.1715 8.99242 15.7391 8.42399 16.0905 7.7237L17.0938 5.73456C17.3035 5.31771 17.6303 4.97116 18.0342 4.73742C18.4381 4.50367 18.9014 4.39291 19.3673 4.41873L21.6086 4.54202C22.3931 4.5826 23.1701 4.37177 23.8265 3.94022L25.6793 2.71678C26.0707 2.45786 26.5297 2.3198 26.999 2.3198C27.4684 2.3198 27.9274 2.45786 28.3188 2.71678L30.1714 3.94022C30.8279 4.37243 31.6053 4.58341 32.3902 4.54234L34.6308 4.41894C35.0967 4.39334 35.56 4.50421 35.9638 4.73797C36.3677 4.97173 36.6945 5.31822 36.9044 5.73498L37.9076 7.7238C38.259 8.42408 38.8266 8.99249 39.5265 9.34475L41.5123 10.3498C41.9292 10.5607 42.2757 10.8884 42.5094 11.293C42.7431 11.6975 42.8539 12.1614 42.8283 12.6279L42.7051 14.8713C42.6637 15.6567 42.8737 16.4347 43.3047 17.0926L44.5262 18.9482C44.7851 19.3412 44.9231 19.8015 44.9231 20.2722C44.9231 20.7428 44.7851 21.2031 44.5262 21.5961H44.5264Z" fill="#103742"/>
<path d="M27 6.80469C19.5855 6.80469 13.5527 12.8456 13.5527 20.2707C13.5527 27.6958 19.5855 33.7368 27 33.7368C34.4145 33.7368 40.4473 27.6955 40.4473 20.2705C40.4473 12.8455 34.4145 6.80469 27 6.80469ZM27 32.4711C20.283 32.4711 14.8184 26.998 14.8184 20.2707C14.8184 13.5434 20.283 8.07031 27 8.07031C33.717 8.07031 39.1816 13.5434 39.1816 20.2705C39.1816 26.9976 33.717 32.4711 27 32.4711Z" fill="#103742"/>
<path d="M33.8684 17.606L29.5147 16.9724L27.5676 13.0211C27.5154 12.9151 27.4345 12.8259 27.3342 12.7635C27.2339 12.701 27.1181 12.668 27 12.668C26.8818 12.668 26.766 12.701 26.6657 12.7635C26.5654 12.8259 26.4846 12.9151 26.4323 13.0211L24.485 16.9724L20.1315 17.606C20.0147 17.623 19.905 17.6723 19.8148 17.7484C19.7245 17.8245 19.6574 17.9243 19.6209 18.0365C19.5844 18.1488 19.58 18.269 19.6082 18.3836C19.6364 18.4982 19.6962 18.6026 19.7806 18.6851L22.9315 21.7609L22.1875 26.1043C22.1676 26.2207 22.1806 26.3403 22.2252 26.4497C22.2697 26.5591 22.3439 26.6538 22.4395 26.7232C22.5351 26.7926 22.6482 26.8338 22.766 26.8423C22.8837 26.8507 23.0016 26.8261 23.1061 26.771L27 24.7209L30.8936 26.7709C30.9981 26.8259 31.1158 26.8506 31.2336 26.8422C31.3514 26.8337 31.4645 26.7925 31.56 26.7231C31.6556 26.6537 31.7299 26.559 31.7744 26.4497C31.8189 26.3403 31.832 26.2207 31.8121 26.1043L31.0684 21.7609L34.2193 18.6851C34.3038 18.6026 34.3635 18.4982 34.3917 18.3836C34.42 18.269 34.4156 18.1488 34.3791 18.0365C34.3426 17.9243 34.2754 17.8245 34.1852 17.7484C34.0949 17.6723 33.9852 17.623 33.8684 17.606ZM29.9466 21.0872C29.8732 21.1588 29.8184 21.2472 29.7867 21.3447C29.7551 21.4422 29.7476 21.5459 29.7649 21.6469L30.3482 25.0536L27.2953 23.4456C27.2044 23.3977 27.1032 23.3727 27.0005 23.3727C26.8978 23.3727 26.7966 23.3977 26.7057 23.4456L23.6521 25.0534L24.2355 21.6467C24.2528 21.5457 24.2454 21.442 24.2137 21.3445C24.1821 21.247 24.1272 21.1586 24.0539 21.087L21.5816 18.6738L24.9971 18.1767C25.0987 18.1619 25.1951 18.1227 25.2781 18.0623C25.3612 18.002 25.4282 17.9223 25.4736 17.8302L27 14.7324L28.5265 17.8305C28.5719 17.9225 28.639 18.0022 28.722 18.0625C28.805 18.1229 28.9015 18.1621 29.003 18.1769L32.4189 18.674L29.9466 21.0872Z" fill="#103742"/>
<path d="M24.9712 11.0827C25.0137 11.0827 25.0561 11.0785 25.0977 11.07C25.2569 11.0377 25.42 11.0091 25.5824 10.9848C25.7484 10.96 25.8977 10.8703 25.9976 10.7354C26.0974 10.6005 26.1396 10.4314 26.1148 10.2654C26.09 10.0994 26.0003 9.95008 25.8653 9.85023C25.7304 9.75039 25.5614 9.70822 25.3954 9.73302C25.2114 9.76055 25.0262 9.79303 24.8463 9.82953C24.6924 9.86051 24.5555 9.94759 24.4622 10.0738C24.3689 10.2001 24.3259 10.3565 24.3415 10.5127C24.3571 10.669 24.4302 10.8138 24.5466 10.9191C24.663 11.0245 24.8144 11.0828 24.9714 11.0827H24.9712Z" fill="#103742"/>
<path d="M23.2725 11.6363C23.4258 11.5698 23.5466 11.4454 23.6085 11.2902C23.6704 11.135 23.6685 10.9616 23.603 10.8078C23.5376 10.6541 23.4139 10.5324 23.2592 10.4695C23.1044 10.4065 22.9309 10.4074 22.7768 10.4718C20.8265 11.2993 19.1633 12.683 17.9947 14.4501C16.8261 16.2172 16.204 18.2894 16.2061 20.408C16.2061 20.5758 16.2727 20.7368 16.3914 20.8555C16.5101 20.9741 16.671 21.0408 16.8389 21.0408C17.0067 21.0408 17.1677 20.9741 17.2863 20.8555C17.405 20.7368 17.4717 20.5758 17.4717 20.408C17.4699 18.5377 18.0191 16.7084 19.0508 15.1483C20.0824 13.5883 21.5508 12.3668 23.2725 11.6363Z" fill="#103742"/>
</svg>
