<svg width="54" height="54" viewBox="0 0 54 54" fill="none" xmlns="http://www.w3.org/2000/svg">
<path d="M38.2974 29.1058H35.5506V21.0316C35.5506 20.734 35.4765 20.4411 35.3347 20.1795C35.193 19.9178 34.9882 19.6957 34.7389 19.5332C34.4896 19.3707 34.2037 19.2731 33.9071 19.249C33.6105 19.225 33.3126 19.2753 33.0404 19.3955C32.3013 19.722 31.6516 20.2217 31.1465 20.8523C30.6413 21.483 30.2955 22.226 30.1383 23.0186L29.8502 24.4745C29.6851 25.3139 29.2763 26.0861 28.6749 26.6945C28.0734 27.3029 27.3059 27.7205 26.4684 27.8951L25.2707 28.1482H5.48438C5.28857 28.1482 5.10079 28.226 4.96233 28.3644C4.82388 28.5029 4.74609 28.6907 4.74609 28.8865C4.74609 29.0823 4.82388 29.2701 4.96233 29.4085C5.10079 29.547 5.28857 29.6247 5.48438 29.6247H20.8124V44.3203H5.48438C5.28857 44.3203 5.10079 44.3981 4.96233 44.5366C4.82388 44.675 4.74609 44.8628 4.74609 45.0586C4.74609 45.2544 4.82388 45.4422 4.96233 45.5807C5.10079 45.7191 5.28857 45.7969 5.48438 45.7969H25.3475C25.4445 45.797 25.5405 45.7779 25.6301 45.7408C25.7197 45.7037 25.8011 45.6494 25.8697 45.5808C25.9382 45.5122 25.9926 45.4308 26.0297 45.3412C26.0668 45.2516 26.0859 45.1556 26.0858 45.0586V44.1415H36.9727C37.3895 44.142 37.7994 44.0353 38.163 43.8317C38.5267 43.628 38.8318 43.3342 39.049 42.9785C39.2663 42.6228 39.3884 42.2172 39.4035 41.8007C39.4187 41.3842 39.3265 40.9708 39.1357 40.6002C39.5166 40.4612 39.8567 40.229 40.1248 39.9247C40.3929 39.6204 40.5805 39.2538 40.6704 38.8583C40.7603 38.4629 40.7497 38.0512 40.6395 37.6609C40.5294 37.2706 40.3232 36.9141 40.0397 36.6241C40.4824 36.1712 40.7303 35.5631 40.7303 34.9298C40.7303 34.2965 40.4824 33.6884 40.0397 33.2356C40.3739 32.8932 40.5996 32.4598 40.6886 31.9897C40.7775 31.5196 40.7257 31.0337 40.5396 30.5929C40.3536 30.1521 40.0416 29.776 39.6427 29.5118C39.2438 29.2475 38.7758 29.1069 38.2974 29.1075V29.1058ZM39.2538 34.9277C39.2534 35.1813 39.1526 35.4243 38.9733 35.6036C38.794 35.7829 38.5509 35.8838 38.2974 35.8841H32.578C32.3244 35.8841 32.0811 35.7833 31.9018 35.604C31.7224 35.4246 31.6216 35.1814 31.6216 34.9277C31.6216 34.6741 31.7224 34.4308 31.9018 34.2514C32.0811 34.0721 32.3244 33.9713 32.578 33.9713H38.2974C38.551 33.9717 38.7941 34.0726 38.9734 34.252C39.1527 34.4313 39.2536 34.6745 39.2538 34.9281V34.9277ZM39.2538 31.5384C39.2534 31.792 39.1525 32.0351 38.9731 32.2144C38.7938 32.3937 38.5506 32.4945 38.297 32.4948H33.5332C33.2795 32.4948 33.0362 32.394 32.8569 32.2146C32.6775 32.0353 32.5768 31.792 32.5768 31.5384C32.5768 31.2847 32.6775 31.0415 32.8569 30.8621C33.0362 30.6827 33.2795 30.582 33.5332 30.582H38.2974C38.5511 30.5822 38.7943 30.6831 38.9737 30.8625C39.1531 31.0419 39.254 31.2851 39.2542 31.5388L39.2538 31.5384ZM24.6092 44.3187H22.2889V29.6231H24.6092V44.3187ZM26.0858 29.4843L26.7713 29.3404C27.8925 29.1065 28.9198 28.5473 29.725 27.7329C30.5301 26.9184 31.0774 25.8847 31.2985 24.7609L31.587 23.3051C31.698 22.7454 31.9421 22.2206 32.2988 21.7752C32.6554 21.3298 33.1142 20.9769 33.6361 20.7464C33.6836 20.7253 33.7355 20.7164 33.7873 20.7205C33.8391 20.7246 33.889 20.7416 33.9326 20.7699C33.9761 20.7983 34.0118 20.8371 34.0365 20.8828C34.0612 20.9285 34.0741 20.9796 34.074 21.0316V29.1058H33.5332C33.1039 29.1053 32.6821 29.2185 32.3109 29.434C31.9396 29.6495 31.6321 29.9595 31.4197 30.3326C31.2072 30.7056 31.0975 31.1283 31.1016 31.5575C31.1058 31.9868 31.2236 32.4073 31.4432 32.7762C31.0515 32.9823 30.7235 33.2916 30.4947 33.6706C30.266 34.0495 30.1451 34.4838 30.1451 34.9264C30.1451 35.3691 30.266 35.8034 30.4947 36.1823C30.7235 36.5613 31.0515 36.8706 31.4432 37.0767C31.169 37.5355 31.0545 38.0722 31.1175 38.6029C31.1804 39.1336 31.4173 39.6286 31.7912 40.0105C31.4558 40.3539 31.2298 40.7891 31.1418 41.261C31.0537 41.7329 31.1077 42.2203 31.2968 42.6615H26.0858V29.4843ZM36.9727 42.6632H33.5332C33.2795 42.6632 33.0362 42.5625 32.8569 42.3831C32.6775 42.2037 32.5768 41.9605 32.5768 41.7068C32.5768 41.4532 32.6775 41.2099 32.8569 41.0306C33.0362 40.8512 33.2795 40.7504 33.5332 40.7504H36.9727C37.2264 40.7504 37.4696 40.8512 37.649 41.0306C37.8283 41.2099 37.9291 41.4532 37.9291 41.7068C37.9291 41.9605 37.8283 42.2037 37.649 42.3831C37.4696 42.5625 37.2264 42.6632 36.9727 42.6632ZM38.2974 39.2739H33.5332C33.2795 39.2739 33.0362 39.1731 32.8569 38.9937C32.6775 38.8144 32.5768 38.5711 32.5768 38.3175C32.5768 38.0638 32.6775 37.8206 32.8569 37.6412C33.0362 37.4619 33.2795 37.3611 33.5332 37.3611H38.2974C38.551 37.3611 38.7943 37.4619 38.9737 37.6412C39.153 37.8206 39.2538 38.0638 39.2538 38.3175C39.2538 38.5711 39.153 38.8144 38.9737 38.9937C38.7943 39.1731 38.551 39.2739 38.2974 39.2739Z" fill="#103742"/>
<path d="M18.8638 22.5158L18.4842 24.74C18.4608 24.8757 18.4759 25.0154 18.5278 25.143C18.5797 25.2706 18.6662 25.3812 18.7777 25.4621C18.8892 25.5431 19.0211 25.5912 19.1585 25.6011C19.296 25.611 19.4334 25.5821 19.5553 25.5179L21.5508 24.4691L23.5479 25.5188C23.6698 25.5832 23.8073 25.6121 23.9448 25.6023C24.0823 25.5925 24.2143 25.5444 24.3258 25.4634C24.4373 25.3824 24.5239 25.2718 24.5758 25.1441C24.6276 25.0163 24.6426 24.8766 24.6191 24.7408L24.2394 22.5167L25.8552 20.9418C25.9538 20.8456 26.0236 20.7238 26.0566 20.59C26.0896 20.4562 26.0845 20.3159 26.0418 20.1848C25.9992 20.0538 25.9208 19.9373 25.8154 19.8485C25.71 19.7598 25.5819 19.7023 25.4455 19.6825L23.213 19.3581L22.2144 17.3331C22.1534 17.2095 22.0591 17.1055 21.9421 17.0327C21.8251 16.9599 21.69 16.9214 21.5522 16.9214C21.4144 16.9214 21.2794 16.9599 21.1624 17.0327C21.0454 17.1055 20.9511 17.2095 20.8901 17.3331L19.8915 19.3581L17.6585 19.6825C17.5222 19.7023 17.3941 19.7599 17.2888 19.8487C17.1835 19.9375 17.1051 20.054 17.0625 20.185C17.0199 20.316 17.0149 20.4563 17.0479 20.5901C17.0809 20.7238 17.1507 20.8457 17.2493 20.9418L18.8638 22.5158ZM20.4868 20.7625C20.6052 20.7454 20.7177 20.6997 20.8145 20.6294C20.9113 20.559 20.9896 20.4662 21.0424 20.3588L21.5487 19.3286L22.0549 20.3588C22.1079 20.4661 22.1862 20.559 22.2831 20.6293C22.38 20.6996 22.4925 20.7454 22.6109 20.7625L23.7475 20.9275L22.9252 21.729C22.8396 21.8126 22.7757 21.9158 22.7389 22.0297C22.7021 22.1436 22.6937 22.2647 22.7143 22.3825L22.9084 23.5144L21.8954 22.9808C21.7895 22.9251 21.6715 22.896 21.5518 22.896C21.4321 22.896 21.3142 22.9251 21.2082 22.9808L20.1915 23.5148L20.3855 22.383C20.406 22.2651 20.3975 22.144 20.3608 22.0302C20.324 21.9163 20.2601 21.8131 20.1746 21.7295L19.352 20.9279L20.4868 20.7625Z" fill="#103742"/>
<path d="M30.9291 13.19L30.6072 15.0682C30.5839 15.204 30.5991 15.3436 30.651 15.4712C30.7028 15.5988 30.7894 15.7093 30.9008 15.7903C31.0123 15.8713 31.1442 15.9195 31.2816 15.9294C31.419 15.9394 31.5564 15.9107 31.6783 15.8466L33.3658 14.9606L35.0533 15.8466C35.1753 15.9107 35.3127 15.9394 35.4501 15.9294C35.5875 15.9195 35.7194 15.8713 35.8308 15.7903C35.9423 15.7093 36.0288 15.5988 36.0807 15.4712C36.1326 15.3436 36.1478 15.204 36.1245 15.0682L35.8022 13.19L37.1669 11.859C37.2655 11.7628 37.3351 11.641 37.3681 11.5072C37.401 11.3735 37.3958 11.2333 37.3532 11.1023C37.3106 10.9714 37.2322 10.8549 37.1269 10.7662C37.0216 10.6775 36.8936 10.6199 36.7573 10.6001L34.8711 10.3263L34.0273 8.61691C33.9665 8.49331 33.8722 8.38922 33.7552 8.31644C33.6382 8.24366 33.5032 8.20508 33.3654 8.20508C33.2276 8.20508 33.0926 8.24366 32.9756 8.31644C32.8586 8.38922 32.7644 8.49331 32.7035 8.61691L31.8597 10.3263L29.974 10.6001C29.8377 10.6199 29.7097 10.6775 29.6043 10.7662C29.499 10.8549 29.4206 10.9714 29.378 11.1023C29.3354 11.2333 29.3303 11.3735 29.3632 11.5072C29.3961 11.641 29.4658 11.7628 29.5643 11.859L30.9291 13.19ZM32.4559 11.7316C32.5743 11.7144 32.6868 11.6687 32.7837 11.5984C32.8806 11.528 32.9589 11.4352 33.0119 11.3279L33.3654 10.6107L33.7185 11.3279C33.7715 11.4352 33.8498 11.528 33.9467 11.5984C34.0436 11.6687 34.1561 11.7144 34.2746 11.7316L35.0639 11.8464L34.4927 12.4032C34.4072 12.4869 34.3433 12.5901 34.3066 12.704C34.2699 12.8178 34.2613 12.9389 34.2817 13.0567L34.4163 13.8431L33.7076 13.4723C33.6016 13.4166 33.4837 13.3875 33.3639 13.3875C33.2442 13.3875 33.1263 13.4166 33.0203 13.4723L32.3141 13.8435L32.4487 13.0567C32.4691 12.9389 32.4605 12.8178 32.4238 12.704C32.387 12.5901 32.3232 12.4869 32.2377 12.4032L31.6665 11.8464L32.4559 11.7316Z" fill="#103742"/>
<path d="M49.2175 21.962C49.175 21.831 49.0967 21.7145 48.9914 21.6257C48.8862 21.5369 48.7581 21.4794 48.6219 21.4596L46.0611 21.0875L44.9161 18.7672C44.855 18.6437 44.7607 18.5398 44.6437 18.4671C44.5267 18.3945 44.3917 18.356 44.254 18.356C44.1162 18.356 43.9813 18.3945 43.8643 18.4671C43.7473 18.5398 43.6529 18.6437 43.5918 18.7672L42.4464 21.0875L39.8861 21.4596C39.7498 21.4795 39.6219 21.5371 39.5167 21.6259C39.4114 21.7148 39.3331 21.8312 39.2906 21.9622C39.248 22.0931 39.2429 22.2334 39.2758 22.3671C39.3087 22.5008 39.3784 22.6226 39.4769 22.7189L41.3302 24.5253L40.8927 27.0756C40.8693 27.2113 40.8844 27.3509 40.9363 27.4786C40.9882 27.6062 41.0748 27.7168 41.1863 27.7977C41.2977 27.8787 41.4297 27.9268 41.5671 27.9367C41.7045 27.9465 41.8419 27.9177 41.9638 27.8535L44.2546 26.6499L46.545 27.8535C46.6669 27.9177 46.8043 27.9465 46.9417 27.9367C47.0791 27.9268 47.2111 27.8787 47.3225 27.7977C47.434 27.7168 47.5206 27.6062 47.5725 27.4786C47.6244 27.3509 47.6395 27.2113 47.6161 27.0756L47.1786 24.5253L49.0319 22.7189C49.1303 22.6225 49.1998 22.5006 49.2326 22.3669C49.2654 22.2332 49.2602 22.0929 49.2175 21.962ZM45.8695 23.7389C45.784 23.8225 45.7201 23.9256 45.6833 24.0394C45.6466 24.1532 45.6381 24.2742 45.6586 24.392L45.9084 25.8504L44.6005 25.1624C44.4947 25.1064 44.3767 25.0771 44.2569 25.0771C44.1372 25.0771 44.0192 25.1064 43.9133 25.1624L42.6034 25.8504L42.8536 24.392C42.874 24.2742 42.8654 24.1532 42.8287 24.0394C42.7919 23.9257 42.7281 23.8225 42.6426 23.7389L41.5833 22.7058L43.0472 22.4948C43.1657 22.4778 43.2783 22.4321 43.3751 22.3617C43.472 22.2914 43.5503 22.1985 43.6032 22.0911L44.258 20.7643L44.9127 22.0911C44.9656 22.1985 45.0439 22.2914 45.1408 22.3617C45.2377 22.4321 45.3503 22.4778 45.4688 22.4948L46.9331 22.7058L45.8695 23.7389Z" fill="#103742"/>
</svg>
