<svg width="18" height="18" viewBox="0 0 18 18" fill="none" xmlns="http://www.w3.org/2000/svg">
<g clip-path="url(#clip0)">
<path d="M14.1609 10.6171H13.2345C11.5884 10.6171 10.0812 9.92837 9.01576 8.79785C7.95024 9.92844 6.44309 10.6171 4.79701 10.6171H3.87061C4.38789 11.6228 5.18942 12.4447 6.15418 13.0022C5.04644 13.4951 4.26966 14.602 4.26966 15.8906H5.32435C5.32435 14.9343 5.96764 14.1342 6.84131 13.8763C6.5506 14.3001 6.37904 14.8117 6.37904 15.3632V17.9999H11.6525V15.3632C11.6525 14.8117 11.4809 14.3001 11.1902 13.8763C12.0639 14.1342 12.7072 14.9343 12.7072 15.8906H13.7619C13.7619 14.6019 12.9851 13.495 11.8773 13.0022C12.8422 12.4447 13.6436 11.6228 14.1609 10.6171Z" fill="#103742"/>
<path d="M12.1065 5.82887C13.1279 6.4299 14.428 6.0531 14.996 5.05898L16.0507 3.23441C15.8195 3.10412 15.5677 3.01915 15.3014 2.98157L14.8101 2.91255L14.8493 2.41766C14.8812 2.01853 14.8451 1.62974 14.7432 1.26204C14.377 1.36607 14.0237 1.53137 13.6941 1.75335L13.2873 2.02732L12.9845 1.64159C12.8218 1.43399 12.6168 1.25582 12.3913 1.125L11.3366 2.9501C11.2063 3.18804 11.1254 3.41462 11.0832 3.65614C10.9405 4.53266 11.3412 5.38495 12.1065 5.82887Z" fill="#103742"/>
<path d="M5.894 5.62802C6.62567 5.20186 7.03063 4.3855 6.92537 3.50926C6.92639 3.51707 6.92639 3.52181 6.92755 3.53C7.07261 4.57091 7.97106 5.32663 8.96845 5.34326C9.07395 5.30227 10.7254 5.38868 11.083 3.65618C11.1118 3.53155 11.1252 3.39764 11.1252 3.23441V1.125C10.862 1.125 10.6035 1.17598 10.3563 1.27642L9.89798 1.46334L9.68271 1.01788C9.50869 0.657914 9.28468 0.268805 9.01584 0C8.74703 0.268805 8.52298 0.657914 8.34892 1.01788L8.13366 1.46334L7.67533 1.27642C7.42814 1.17598 7.16961 1.125 6.90646 1.125V3.23438C6.90646 3.30462 6.91008 3.38115 6.92256 3.48265C6.9091 3.32093 6.80992 3.00487 6.66392 2.74925L5.60923 0.913852C5.37748 1.04776 5.17614 1.22337 5.01031 1.43501L4.70389 1.82538L4.296 1.54368C3.97155 1.32019 3.62241 1.15794 3.25728 1.06165C3.15634 1.42007 3.11925 1.80633 3.14759 2.20904L3.18261 2.70035L2.69492 2.76834C2.42868 2.80543 2.17788 2.89143 1.94922 3.02326L3.00391 4.85866C3.60796 5.87268 4.89292 6.2003 5.894 5.62802Z" fill="#103742"/>
<path d="M11.571 6.73734C11.2087 6.52721 10.9081 6.24983 10.6633 5.93395C9.83578 6.43665 9.10337 6.37907 8.98729 6.39794C8.35114 6.37348 7.77665 6.20803 7.2415 5.84473C7.0126 6.11483 6.74203 6.35418 6.42475 6.53906C5.42719 7.10895 4.15299 7.15922 3.00668 6.34975C2.46549 7.1395 2.16016 8.06628 2.16016 9.0347V9.56204H4.79687C6.62018 9.56204 8.22756 8.52687 9.01562 6.9602C9.80369 8.52683 11.4111 9.56204 13.2344 9.56204H15.8711V9.0347C15.8711 8.10675 15.6022 7.23836 15.1108 6.47824C14.0026 7.35441 12.6184 7.35395 11.571 6.73734Z" fill="#103742"/>
</g>
<defs>
<clipPath id="clip0">
<rect width="18" height="18" fill="white"/>
</clipPath>
</defs>
</svg>
