<svg width="18" height="18" viewBox="0 0 18 18" fill="none" xmlns="http://www.w3.org/2000/svg">
<g clip-path="url(#clip0)">
<path d="M8.25 11.25C7.0095 11.25 6 10.2405 6 9C6 7.7595 7.0095 6.75 8.25 6.75H12V2.0625C12 0.92475 11.0752 0 9.9375 0H2.0625C0.92475 0 0 0.92475 0 2.0625V15.9375C0 17.0753 0.92475 18 2.0625 18H9.9375C11.0752 18 12 17.0753 12 15.9375V11.25H8.25Z" fill="#103742"/>
<path d="M13.9628 12.6931C13.683 12.5769 13.5 12.3031 13.5 12.0001V9.75014H8.25C7.836 9.75014 7.5 9.41414 7.5 9.00014C7.5 8.58614 7.836 8.25014 8.25 8.25014H13.5V6.00014C13.5 5.69714 13.683 5.42339 13.9628 5.30714C14.2433 5.19089 14.5658 5.25539 14.7803 5.46989L17.7803 8.46989C18.0735 8.76314 18.0735 9.23714 17.7803 9.53039L14.7803 12.5304C14.5658 12.7449 14.2433 12.8094 13.9628 12.6931Z" fill="#103742"/>
</g>
<defs>
<clipPath id="clip0">
<rect width="18" height="18" fill="white"/>
</clipPath>
</defs>
</svg>
