<svg width="18" height="18" viewBox="0 0 18 18" fill="none" xmlns="http://www.w3.org/2000/svg">
<path d="M8.99987 0C5.40532 0 2.48096 2.92437 2.48096 6.51888C2.48096 10.9798 8.31475 17.5287 8.56313 17.8053C8.79642 18.0651 9.20374 18.0647 9.43662 17.8053C9.685 17.5287 15.5188 10.9798 15.5188 6.51888C15.5187 2.92437 12.5944 0 8.99987 0ZM8.99987 9.79871C7.19136 9.79871 5.72008 8.32739 5.72008 6.51888C5.72008 4.71037 7.1914 3.23909 8.99987 3.23909C10.8083 3.23909 12.2796 4.71041 12.2796 6.51892C12.2796 8.32743 10.8083 9.79871 8.99987 9.79871Z" fill="#103742"/>
</svg>
