<svg width="18" height="18" viewBox="0 0 18 18" fill="none" xmlns="http://www.w3.org/2000/svg">
<g clip-path="url(#clip0)">
<path d="M9.00111 0C6.42967 0 4.32764 2.10203 4.32764 4.67348C4.32764 7.24492 6.42967 9.34695 9.00111 9.34695C11.5726 9.34695 13.6746 7.24492 13.6746 4.67348C13.6746 2.10203 11.5726 0 9.00111 0Z" fill="#103742"/>
<path d="M17.0216 13.082C16.8991 12.7759 16.7359 12.4902 16.5522 12.2249C15.6134 10.8371 14.1645 9.91873 12.5318 9.69424C12.3278 9.67385 12.1033 9.71463 11.94 9.83709C11.0828 10.4697 10.0625 10.7963 9.0012 10.7963C7.93995 10.7963 6.91956 10.4697 6.06241 9.83709C5.89913 9.71463 5.67464 9.65342 5.47058 9.69424C3.83792 9.91873 2.36855 10.8371 1.45019 12.2249C1.26651 12.4902 1.10323 12.7963 0.980812 13.082C0.919601 13.2045 0.939991 13.3473 1.0012 13.4698C1.16448 13.7555 1.36855 14.0412 1.55222 14.2861C1.83792 14.6739 2.14405 15.0208 2.49101 15.3473C2.77671 15.633 3.10323 15.8983 3.4298 16.1637C5.04202 17.3678 6.98081 18.0004 8.98081 18.0004C10.9808 18.0004 12.9196 17.3677 14.5318 16.1637C14.8583 15.9188 15.1849 15.633 15.4706 15.3473C15.7971 15.0208 16.1237 14.6738 16.4094 14.2861C16.6135 14.0208 16.7972 13.7555 16.9604 13.4698C17.0624 13.3473 17.0828 13.2044 17.0216 13.082Z" fill="#103742"/>
</g>
<defs>
<clipPath id="clip0">
<rect width="18" height="18" fill="white"/>
</clipPath>
</defs>
</svg>
