<svg width="26" height="26" viewBox="0 0 26 26" fill="none" xmlns="http://www.w3.org/2000/svg">
<path d="M17.7637 25.7611H8.38867C4.07412 25.7611 0.576172 22.2634 0.576172 17.949V8.57438C0.576172 4.26 4.07412 0.762207 8.38867 0.762207H17.7637C22.0782 0.762207 25.5762 4.26 25.5762 8.57438V17.949C25.5762 22.2634 22.0782 25.7611 17.7637 25.7611Z" fill="#2968CC"/>
<path opacity="0.6" d="M17.7637 25.7611H8.38867C4.07412 25.7611 0.576172 22.2634 0.576172 17.949V8.57438C0.576172 4.26 4.07412 0.762207 8.38867 0.762207H17.7637C22.0782 0.762207 25.5762 4.26 25.5762 8.57438V17.949C25.5762 22.2634 22.0782 25.7611 17.7637 25.7611Z" fill="#2968CC"/>
<path fill-rule="evenodd" clip-rule="evenodd" d="M15.0291 11.0243V13.3693H18.4958L17.9419 16.9838H15.0291V25.7623H11.1233V16.9838H7.94873V13.3693H11.1233V10.6146C11.1233 7.48058 12.9899 5.75098 15.8448 5.75098C17.2126 5.75098 18.6437 5.99531 18.6437 5.99531V9.07149H17.0665C15.5123 9.07149 15.0291 10.036 15.0291 11.0243Z" fill="white"/>
</svg>
