<svg width="25" height="25" viewBox="0 0 25 25" fill="none" xmlns="http://www.w3.org/2000/svg">
<path d="M1.63074 1.73567C-0.328197 3.77004 0.0727316 5.93109 0.0727316 12.4963C0.0727316 17.9483 -0.878694 23.4137 4.10071 24.7004C5.6556 25.1002 19.4326 25.1002 20.9854 24.6983C23.0586 24.1635 24.7454 22.4822 24.976 19.5506C25.0082 19.1415 25.0082 5.8584 24.9749 5.44094C24.7298 2.31826 22.8072 0.518588 20.2739 0.154085C19.6933 0.0699685 19.577 0.0450452 16.598 0.0398528C6.0316 0.0450452 3.71536 -0.425382 1.63074 1.73567V1.73567Z" fill="url(#paint0_linear)"/>
<path d="M12.5002 3.00916C8.60905 3.00916 4.91398 2.66329 3.50261 6.28262C2.91963 7.77747 3.00429 9.71884 3.00429 12.4987C3.00429 14.938 2.92606 17.2306 3.50261 18.7136C4.91077 22.3351 8.63584 21.9882 12.4981 21.9882C16.2242 21.9882 20.0661 22.3758 21.4946 18.7136C22.0787 17.2038 21.993 15.2913 21.993 12.4987C21.993 8.79152 22.1977 6.39827 20.3983 4.60145C18.5765 2.78108 16.1128 3.00916 12.4959 3.00916H12.5002ZM11.6493 4.71924C19.7661 4.70639 20.7991 3.80477 20.229 16.33C20.0265 20.7599 16.6508 20.2738 12.5013 20.2738C4.93541 20.2738 4.71787 20.0575 4.71787 12.4944C4.71787 4.84345 5.31799 4.72352 11.6493 4.7171V4.71924ZM17.5692 6.2944C16.9401 6.2944 16.43 6.8041 16.43 7.43267C16.43 8.06123 16.9401 8.57094 17.5692 8.57094C18.1982 8.57094 18.7083 8.06123 18.7083 7.43267C18.7083 6.8041 18.1982 6.2944 17.5692 6.2944V6.2944ZM12.5002 7.62541C9.80716 7.62541 7.6242 9.80772 7.6242 12.4987C7.6242 15.1896 9.80716 17.3708 12.5002 17.3708C15.1933 17.3708 17.3752 15.1896 17.3752 12.4987C17.3752 9.80772 15.1933 7.62541 12.5002 7.62541V7.62541ZM12.5002 9.33549C16.6851 9.33549 16.6904 15.6618 12.5002 15.6618C8.31649 15.6618 8.31006 9.33549 12.5002 9.33549Z" fill="white"/>
<defs>
<linearGradient id="paint0_linear" x1="1.67854" y1="23.3713" x2="24.8427" y2="3.31897" gradientUnits="userSpaceOnUse">
<stop stop-color="#FFDD55"/>
<stop offset="0.5" stop-color="#FF543E"/>
<stop offset="1" stop-color="#C837AB"/>
</linearGradient>
</defs>
</svg>
