<svg width="25" height="25" viewBox="0 0 25 25" fill="none" xmlns="http://www.w3.org/2000/svg">
<path d="M17.1884 25H7.8125C3.49794 25 0 21.5021 0 17.1875V7.8125C0 3.49794 3.49794 0 7.8125 0H17.1875C21.5021 0 25 3.49794 25 7.8125V17.1875C25.0009 21.5021 21.503 25 17.1884 25Z" fill="#37AEE2"/>
<path opacity="0.6" d="M17.1884 25H7.8125C3.49794 25 0 21.5021 0 17.1875V7.8125C0 3.49794 3.49794 0 7.8125 0H17.1875C21.5021 0 25 3.49794 25 7.8125V17.1875C25.0009 21.5021 21.503 25 17.1884 25Z" fill="#37AEE2"/>
<path d="M18.45 8.13631C18.4141 8.64153 18.1257 10.4089 17.8364 12.3204L16.9343 17.9834C16.9343 17.9834 16.8617 18.8129 16.2491 18.9571C15.6364 19.1013 14.6259 18.4519 14.4459 18.3077C14.3017 18.1993 11.7407 16.5762 10.8028 15.7825C10.5502 15.5658 10.2618 15.1331 10.8386 14.6279C12.1375 13.4374 13.6881 11.9585 14.6259 11.0206C15.0586 10.588 15.4912 9.57756 13.6881 10.8039L8.60191 14.2301C8.60191 14.2301 8.02504 14.5911 6.94296 14.266C5.86088 13.9417 4.59875 13.5081 4.59875 13.5081C4.59875 13.5081 3.73345 12.9671 5.21236 12.3902L13.6164 8.9272C14.4459 8.5662 17.2595 7.41247 17.2595 7.41247C17.2595 7.41247 18.5574 6.91001 18.45 8.13631Z" fill="white"/>
</svg>
