<svg width="26" height="26" viewBox="0 0 26 26" fill="none" xmlns="http://www.w3.org/2000/svg">
<path d="M17.1938 25.8994H7.81787C3.50332 25.8994 0.00537109 22.4015 0.00537109 18.0869V8.71192C0.00537109 4.39736 3.50332 0.899414 7.81787 0.899414H17.1929C21.5074 0.899414 25.0054 4.39736 25.0054 8.71192V18.0869C25.0063 22.4015 21.5083 25.8994 17.1938 25.8994Z" fill="#4C75A3"/>
<path opacity="0.6" d="M17.1938 25.8994H7.81787C3.50332 25.8994 0.00537109 22.4015 0.00537109 18.0869V8.71192C0.00537109 4.39736 3.50332 0.899414 7.81787 0.899414H17.1929C21.5074 0.899414 25.0054 4.39736 25.0054 8.71192V18.0869C25.0063 22.4015 21.5083 25.8994 17.1938 25.8994Z" fill="#4C75A3"/>
<path d="M19.2856 17.7752L17.2859 17.8027C17.2859 17.8027 16.856 17.8882 16.2911 17.4996C15.5434 16.9861 14.8379 15.6514 14.2886 15.826C13.731 16.0032 13.7485 17.2038 13.7485 17.2038C13.7485 17.2038 13.7521 17.4601 13.6254 17.597C13.4876 17.7458 13.2166 17.7752 13.2166 17.7752H12.3219C12.3219 17.7752 10.3479 17.8937 8.60902 16.0832C6.71307 14.1082 5.03759 10.1905 5.03759 10.1905C5.03759 10.1905 4.94114 9.9333 5.04586 9.80929C5.16343 9.66967 5.48493 9.66048 5.48493 9.66048L7.6243 9.6467C7.6243 9.6467 7.82547 9.67977 7.96969 9.78633C8.08818 9.87359 8.15524 10.0371 8.15524 10.0371C8.15524 10.0371 8.50062 10.9116 8.95899 11.7025C9.85277 13.2466 10.2689 13.5846 10.572 13.4193C11.0138 13.1777 10.8816 11.2368 10.8816 11.2368C10.8816 11.2368 10.8898 10.5322 10.6593 10.2181C10.4811 9.97463 10.144 9.9039 9.99515 9.8837C9.87481 9.86716 10.0723 9.58791 10.3286 9.46299C10.7135 9.27468 11.3932 9.26366 12.1961 9.27192C12.8216 9.27836 13.0026 9.31785 13.2469 9.37664C13.9845 9.55485 13.7338 10.2429 13.7338 11.8917C13.7338 12.4199 13.6382 13.163 14.0194 13.4092C14.1829 13.5148 14.5844 13.4248 15.5865 11.7227C16.0614 10.9162 16.4178 9.96729 16.4178 9.96729C16.4178 9.96729 16.4959 9.79827 16.6163 9.7257C16.7403 9.6513 16.9065 9.67426 16.9065 9.67426L19.158 9.66048C19.158 9.66048 19.834 9.57965 19.9443 9.88553C20.0591 10.2061 19.6916 10.9538 18.7722 12.1801C17.262 14.1927 17.0939 14.0044 18.3478 15.1683C19.5456 16.2797 19.7936 16.8208 19.834 16.8878C20.331 17.71 19.2856 17.7752 19.2856 17.7752Z" fill="white"/>
</svg>
