<svg width="26" height="26" viewBox="0 0 26 26" fill="none" xmlns="http://www.w3.org/2000/svg">
<path d="M17.7559 25.2725H8.38086C4.0663 25.2725 0.568359 21.7745 0.568359 17.46V8.08496C0.568359 3.7704 4.0663 0.272461 8.38086 0.272461H17.7559C22.0704 0.272461 25.5684 3.7704 25.5684 8.08496V17.46C25.5684 21.7745 22.0704 25.2725 17.7559 25.2725Z" fill="#00FF68"/>
<path opacity="0.6" d="M17.7559 25.2725H8.38086C4.0663 25.2725 0.568359 21.7745 0.568359 17.46V8.08496C0.568359 3.7704 4.0663 0.272461 8.38086 0.272461H17.7559C22.0704 0.272461 25.5684 3.7704 25.5684 8.08496V17.46C25.5684 21.7745 22.0704 25.2725 17.7559 25.2725Z" fill="#00FF68"/>
<path fill-rule="evenodd" clip-rule="evenodd" d="M13.0655 5.4292C9.00816 5.4292 5.71873 8.71862 5.71873 12.776C5.71873 14.1639 6.10362 15.4619 6.77326 16.5688L5.44775 20.5104L9.51521 19.2078C10.5679 19.7902 11.7786 20.1218 13.0664 20.1218C17.1238 20.1218 20.4132 16.8324 20.4132 12.776C20.4123 8.71862 17.1229 5.4292 13.0655 5.4292ZM13.0655 18.9525C11.8107 18.9525 10.6423 18.5759 9.6677 17.931L7.2941 18.6916L8.0657 16.3979C7.32624 15.3792 6.88992 14.1281 6.88992 12.7769C6.88992 9.37173 9.66035 6.60038 13.0664 6.60038C16.4716 6.60038 19.2429 9.37081 19.2429 12.7769C19.242 16.1811 16.4707 18.9525 13.0655 18.9525ZM16.7747 14.468C16.8197 14.5433 16.8197 14.9034 16.67 15.3241C16.5194 15.7448 15.7845 16.1499 15.4547 16.1802C15.125 16.2105 15.125 16.4512 13.2933 15.7301C11.4626 15.009 10.307 13.1315 10.217 13.012C10.127 12.8926 9.48214 12.0356 9.48214 11.1501C9.48214 10.2637 9.94694 9.82826 10.1123 9.64822C10.2776 9.46818 10.4724 9.42317 10.5927 9.42317C10.713 9.42317 10.8325 9.43787 10.9381 9.43787C11.0428 9.43787 11.1935 9.37816 11.3432 9.73824C11.4929 10.0983 11.853 10.9848 11.8989 11.0748C11.9439 11.1648 11.9742 11.2704 11.9136 11.3898C11.8539 11.5102 11.8236 11.5855 11.7336 11.6902C11.6436 11.7959 11.5443 11.9254 11.4635 12.0062C11.3735 12.0962 11.2798 12.1936 11.3845 12.3736C11.4892 12.5537 11.8512 13.1434 12.3867 13.6201C13.0747 14.2338 13.6552 14.4239 13.8344 14.5139C14.0144 14.6039 14.1191 14.5892 14.2248 14.4689C14.3295 14.3486 14.6749 13.9435 14.7952 13.7634C14.9155 13.5834 15.0349 13.6137 15.2003 13.6734C15.3656 13.7331 16.2511 14.1695 16.4312 14.2595C16.6094 14.3477 16.7297 14.3927 16.7747 14.468Z" fill="white"/>
</svg>
